NotoSerifTamil-CondensedExtraLight.ufo
<glyph name="exclam" format="2">
  <advance width="245.05757575757573"/>
  <unicode hex="0021"/>
  <outline>
    <contour>
      <point x="110.85454545454544" y="173.76666666666668" type="line"/>
      <point x="135.33030303030304" y="173.76666666666668" type="line"/>
      <point x="144.6727272727273" y="714.0" type="line"/>
      <point x="99.93636363636365" y="714.0" type="line"/>
    </contour>
    <contour>
      <point x="122.14242424242424" y="-5.424242424242424" type="curve" smooth="yes"/>
      <point x="139.81818181818184" y="-5.424242424242424"/>
      <point x="156.02121212121213" y="5.527272727272727"/>
      <point x="156.02121212121213" y="39.07272727272727" type="curve" smooth="yes"/>
      <point x="156.02121212121213" y="72.9969696969697"/>
      <point x="139.81818181818184" y="83.64848484848484"/>
      <point x="122.14242424242424" y="83.64848484848484" type="curve" smooth="yes"/>
      <point x="102.6878787878788" y="83.64848484848484"/>
      <point x="87.16060606060607" y="72.9969696969697"/>
      <point x="87.16060606060607" y="39.07272727272727" type="curve" smooth="yes"/>
      <point x="87.16060606060607" y="5.527272727272727"/>
      <point x="102.6878787878788" y="-5.424242424242424"/>
    </contour>
  </outline>
</glyph>
<glyph name="quotedbl" format="2">
  <advance width="273.3030303030303"/>
  <unicode hex="0022"/>
  <outline>
    <contour>
      <point x="192.35757575757577" y="516.7818181818182" type="line"/>
      <point x="216.57878787878786" y="516.7818181818182" type="line"/>
      <point x="231.03333333333336" y="714.0" type="line"/>
      <point x="176.6878787878788" y="714.0" type="line"/>
    </contour>
    <contour>
      <point x="56.61818181818182" y="516.7818181818182" type="line"/>
      <point x="80.69090909090909" y="516.7818181818182" type="line"/>
      <point x="95.5909090909091" y="714.0" type="line"/>
      <point x="41.0969696969697" y="714.0" type="line"/>
    </contour>
  </outline>
</glyph>
<glyph name="numbersign" format="2">
  <advance width="467.8727272727273"/>
  <unicode hex="0023"/>
  <outline>
    <contour>
      <point x="55.60303030303031" y="0.0" type="line"/>
      <point x="89.64848484848484" y="0.0" type="line"/>
      <point x="130.16060606060606" y="216.34848484848484" type="line"/>
      <point x="277.0424242424242" y="216.34848484848484" type="line"/>
      <point x="236.53030303030306" y="0.0" type="line"/>
      <point x="270.57575757575756" y="0.0" type="line"/>
      <point x="311.08787878787876" y="216.34848484848484" type="line"/>
      <point x="424.97878787878784" y="216.34848484848484" type="line"/>
      <point x="424.97878787878784" y="247.37272727272727" type="line"/>
      <point x="317.2757575757576" y="247.37272727272727" type="line"/>
      <point x="359.1515151515152" y="472.47878787878784" type="line"/>
      <point x="456.97878787878784" y="472.47878787878784" type="line"/>
      <point x="456.97878787878784" y="503.79999999999995" type="line"/>
      <point x="365.2757575757576" y="503.79999999999995" type="line"/>
      <point x="404.7878787878788" y="714.0" type="line"/>
      <point x="370.5939393939394" y="714.0" type="line"/>
      <point x="331.23030303030305" y="503.79999999999995" type="line"/>
      <point x="184.34848484848484" y="503.79999999999995" type="line"/>
      <point x="223.86060606060605" y="714.0" type="line"/>
      <point x="189.6030303030303" y="714.0" type="line"/>
      <point x="150.3030303030303" y="503.79999999999995" type="line"/>
      <point x="41.09090909090909" y="503.79999999999995" type="line"/>
      <point x="41.09090909090909" y="472.47878787878784" type="line"/>
      <point x="144.03030303030303" y="472.47878787878784" type="line"/>
      <point x="102.23939393939393" y="247.37272727272727" type="line"/>
      <point x="9.090909090909092" y="247.37272727272727" type="line"/>
      <point x="9.090909090909092" y="216.34848484848484" type="line"/>
      <point x="96.11515151515152" y="216.34848484848484" type="line"/>
    </contour>
    <contour>
      <point x="136.34848484848484" y="247.37272727272727" type="line"/>
      <point x="178.22424242424245" y="472.47878787878784" type="line"/>
      <point x="325.1060606060606" y="472.47878787878784" type="line"/>
      <point x="283.23030303030305" y="247.37272727272727" type="line"/>
    </contour>
  </outline>
</glyph>
<glyph name="percent" format="2">
  <advance width="742.1545454545454"/>
  <unicode hex="0025"/>
  <outline>
    <contour>
      <point x="192.8121212121212" y="0.0" type="line"/>
      <point x="229.28787878787878" y="0.0" type="line"/>
      <point x="545.490909090909" y="714.0" type="line"/>
      <point x="509.2272727272727" y="714.0" type="line"/>
    </contour>
    <contour>
      <point x="171.41515151515154" y="280.0" type="curve" smooth="yes"/>
      <point x="259.6151515151515" y="280.0"/>
      <point x="298.6575757575757" y="363.95757575757574"/>
      <point x="298.6575757575757" y="503.0" type="curve"/>
      <point x="298.6575757575757" y="644.0909090909091"/>
      <point x="258.51212121212126" y="724.0"/>
      <point x="172.41515151515154" y="724.0" type="curve" smooth="yes"/>
      <point x="83.8" y="724.0"/>
      <point x="45.42424242424243" y="642.5151515151515"/>
      <point x="45.42424242424243" y="503.0" type="curve" smooth="yes"/>
      <point x="45.42424242424243" y="359.7818181818182"/>
      <point x="84.11515151515152" y="280.0"/>
    </contour>
    <contour>
      <point x="170.94242424242424" y="307.6515151515151" type="curve" smooth="yes"/>
      <point x="106.4090909090909" y="307.6515151515151"/>
      <point x="83.45757575757577" y="377.8030303030303"/>
      <point x="83.45757575757577" y="503.0" type="curve"/>
      <point x="83.45757575757577" y="622.9666666666667"/>
      <point x="105.22727272727272" y="696.1363636363636"/>
      <point x="171.39090909090908" y="696.1363636363636" type="curve" smooth="yes"/>
      <point x="237.8151515151515" y="696.1363636363636"/>
      <point x="260.41212121212124" y="627.6939393939394"/>
      <point x="260.41212121212124" y="503.0" type="curve" smooth="yes"/>
      <point x="260.41212121212124" y="380.8757575757576"/>
      <point x="239.46969696969694" y="307.6515151515151"/>
    </contour>
    <contour>
      <point x="570.0393939393939" y="-10.0" type="curve" smooth="yes"/>
      <point x="658.239393939394" y="-10.0"/>
      <point x="697.2818181818182" y="73.95757575757577"/>
      <point x="697.2818181818182" y="213.0" type="curve" smooth="yes"/>
      <point x="697.2818181818182" y="354.09090909090907"/>
      <point x="657.1363636363636" y="434.0"/>
      <point x="571.0393939393939" y="434.0" type="curve" smooth="yes"/>
      <point x="482.57272727272726" y="434.0"/>
      <point x="444.04848484848486" y="352.5151515151515"/>
      <point x="444.04848484848486" y="213.0" type="curve" smooth="yes"/>
      <point x="444.04848484848486" y="69.78181818181818"/>
      <point x="482.8878787878788" y="-10.0"/>
    </contour>
    <contour>
      <point x="569.5666666666667" y="17.651515151515152" type="curve" smooth="yes"/>
      <point x="505.03333333333336" y="17.651515151515152"/>
      <point x="482.0818181818182" y="87.8030303030303"/>
      <point x="482.0818181818182" y="213.0" type="curve" smooth="yes"/>
      <point x="482.0818181818182" y="332.9666666666667"/>
      <point x="503.8515151515151" y="406.1363636363636"/>
      <point x="569.8666666666668" y="406.1363636363636" type="curve" smooth="yes"/>
      <point x="636.4393939393939" y="406.1363636363636"/>
      <point x="659.0363636363636" y="337.6939393939394"/>
      <point x="659.0363636363636" y="213.0" type="curve" smooth="yes"/>
      <point x="659.0363636363636" y="90.87575757575758"/>
      <point x="638.0939393939395" y="17.651515151515152"/>
    </contour>
  </outline>
</glyph>
<glyph name="quotesingle" format="2">
  <advance width="136.83636363636364"/>
  <unicode hex="0027"/>
  <outline>
    <contour>
      <point x="56.61818181818182" y="516.7818181818182" type="line"/>
      <point x="80.69090909090909" y="516.7818181818182" type="line"/>
      <point x="95.5909090909091" y="714.0" type="line"/>
      <point x="41.0969696969697" y="714.0" type="line"/>
    </contour>
  </outline>
</glyph>
<glyph name="parenleft" format="2">
  <advance width="251.78181818181818"/>
  <unicode hex="0028"/>
  <outline>
    <contour>
      <point x="225.38181818181818" y="-117.37272727272727" type="curve"/>
      <point x="225.38181818181818" y="-86.7969696969697" type="line"/>
      <point x="127.41515151515152" y="-34.130303030303025"/>
      <point x="90.28181818181818" y="123.33333333333334"/>
      <point x="90.28181818181818" y="315.42424242424244" type="curve" smooth="yes"/>
      <point x="90.28181818181818" y="507.5151515151515"/>
      <point x="126.70606060606062" y="666.5090909090909"/>
      <point x="225.38181818181818" y="717.1969696969697" type="curve"/>
      <point x="225.38181818181818" y="747.6484848484848" type="line"/>
      <point x="109.4969696969697" y="696.839393939394"/>
      <point x="47.4969696969697" y="568.9484848484849"/>
      <point x="47.4969696969697" y="315.42424242424244" type="curve" smooth="yes"/>
      <point x="47.4969696969697" y="60.269696969696966"/>
      <point x="109.4969696969697" y="-65.7939393939394"/>
    </contour>
  </outline>
</glyph>
<glyph name="parenright" format="2">
  <advance width="251.78181818181818"/>
  <unicode hex="0029"/>
  <outline>
    <contour>
      <point x="31.90606060606061" y="-117.37272727272727" type="line"/>
      <point x="147.7909090909091" y="-65.7939393939394"/>
      <point x="209.79090909090908" y="60.269696969696966"/>
      <point x="209.79090909090908" y="315.42424242424244" type="curve" smooth="yes"/>
      <point x="209.79090909090908" y="568.9484848484849"/>
      <point x="147.7909090909091" y="696.839393939394"/>
      <point x="31.90606060606061" y="747.6484848484848" type="curve"/>
      <point x="31.90606060606061" y="717.1969696969697" type="line"/>
      <point x="130.58181818181822" y="666.5090909090909"/>
      <point x="167.15454545454546" y="507.5151515151515"/>
      <point x="167.15454545454546" y="315.42424242424244" type="curve" smooth="yes"/>
      <point x="167.15454545454546" y="123.33333333333334"/>
      <point x="129.87272727272727" y="-34.130303030303025"/>
      <point x="31.90606060606061" y="-86.7969696969697" type="curve"/>
    </contour>
  </outline>
</glyph>
<glyph name="asterisk" format="2">
  <advance width="376.0909090909091"/>
  <unicode hex="002A"/>
  <outline>
    <contour>
      <point x="161.83939393939394" y="379.6121212121212" type="line"/>
      <point x="211.7181818181818" y="379.6121212121212" type="line"/>
      <point x="196.04242424242423" y="548.5696969696969" type="line"/>
      <point x="315.0060606060606" y="462.42424242424244" type="line"/>
      <point x="334.38181818181823" y="510.5818181818182" type="line"/>
      <point x="200.89090909090908" y="569.8060606060607" type="line"/>
      <point x="334.38181818181823" y="629.5818181818181" type="line"/>
      <point x="315.0060606060606" y="679.3606060606061" type="line"/>
      <point x="196.04242424242423" y="591.0424242424243" type="line"/>
      <point x="211.24545454545455" y="760.0" type="line"/>
      <point x="161.83939393939394" y="760.0" type="line"/>
      <point x="176.53939393939396" y="591.6181818181818" type="line"/>
      <point x="58.02424242424242" y="681.3606060606061" type="line"/>
      <point x="37.624242424242425" y="630.5818181818181" type="line"/>
      <point x="170.8151515151515" y="569.8060606060607" type="line"/>
      <point x="37.624242424242425" y="509.5818181818182" type="line"/>
      <point x="58.02424242424242" y="460.42424242424244" type="line"/>
      <point x="175.53939393939396" y="548.1666666666666" type="line"/>
    </contour>
  </outline>
</glyph>
<glyph name="plus" format="2">
  <advance width="465.2"/>
  <unicode hex="002B"/>
  <outline>
    <contour>
      <point x="214.70606060606062" y="143.0" type="line"/>
      <point x="250.44848484848484" y="143.0" type="line"/>
      <point x="250.44848484848484" y="340.5181818181818" type="line"/>
      <point x="411.73939393939395" y="340.5181818181818" type="line"/>
      <point x="411.73939393939395" y="374.7969696969697" type="line"/>
      <point x="250.44848484848484" y="374.7969696969697" type="line"/>
      <point x="250.44848484848484" y="572.0" type="line"/>
      <point x="214.70606060606062" y="572.0" type="line"/>
      <point x="214.70606060606062" y="374.7969696969697" type="line"/>
      <point x="53.46060606060606" y="374.7969696969697" type="line"/>
      <point x="53.46060606060606" y="340.5181818181818" type="line"/>
      <point x="214.70606060606062" y="340.5181818181818" type="line"/>
    </contour>
  </outline>
</glyph>
<glyph name="comma" format="2">
  <advance width="179.0878787878788"/>
  <unicode hex="002C"/>
  <outline>
    <contour>
      <point x="24.78181818181818" y="-154.0" type="line"/>
      <point x="104.02121212121212" y="-124.09393939393938"/>
      <point x="134.15151515151516" y="-58.28181818181818"/>
      <point x="134.15151515151516" y="6.533333333333337" type="curve" smooth="yes"/>
      <point x="134.15151515151516" y="61.88484848484849"/>
      <point x="109.38787878787879" y="83.0969696969697"/>
      <point x="82.91818181818182" y="83.0969696969697" type="curve" smooth="yes"/>
      <point x="62.68787878787879" y="83.0969696969697"/>
      <point x="48.727272727272734" y="69.65151515151516"/>
      <point x="48.727272727272734" y="49.8060606060606" type="curve" smooth="yes"/>
      <point x="48.727272727272734" y="14.9"/>
      <point x="96.32121212121211" y="9.790909090909091"/>
      <point x="96.32121212121211" y="-26.690909090909095" type="curve" smooth="yes"/>
      <point x="96.32121212121211" y="-61.0"/>
      <point x="75.46666666666668" y="-108.04242424242425"/>
      <point x="24.78181818181818" y="-126.14545454545456" type="curve"/>
    </contour>
  </outline>
</glyph>
<glyph name="hyphen" format="2">
  <advance width="259.6848484848485"/>
  <unicode hex="002D"/>
  <outline>
    <contour>
      <point x="21.5" y="254.05757575757573" type="line"/>
      <point x="238.1848484848485" y="254.05757575757573" type="line"/>
      <point x="238.1848484848485" y="291.73030303030305" type="line"/>
      <point x="21.5" y="291.73030303030305" type="line"/>
    </contour>
  </outline>
</glyph>
<glyph name="period" format="2">
  <advance width="179.0878787878788"/>
  <unicode hex="002E"/>
  <outline>
    <contour>
      <point x="90.44545454545454" y="-5.975757575757576" type="curve" smooth="yes"/>
      <point x="108.12121212121212" y="-5.975757575757576"/>
      <point x="123.77272727272728" y="4.9757575757575765"/>
      <point x="123.77272727272728" y="38.521212121212116" type="curve" smooth="yes"/>
      <point x="123.77272727272728" y="72.44545454545455"/>
      <point x="108.12121212121212" y="83.0969696969697"/>
      <point x="90.44545454545454" y="83.0969696969697" type="curve" smooth="yes"/>
      <point x="70.9909090909091" y="83.0969696969697"/>
      <point x="55.315151515151506" y="72.44545454545455"/>
      <point x="55.315151515151506" y="38.521212121212116" type="curve" smooth="yes"/>
      <point x="55.315151515151506" y="4.9757575757575765"/>
      <point x="70.9909090909091" y="-5.975757575757576"/>
    </contour>
  </outline>
</glyph>
<glyph name="slash" format="2">
  <advance width="241.03636363636363"/>
  <unicode hex="002F"/>
  <outline>
    <contour>
      <point x="0.0" y="-121.0" type="line"/>
      <point x="34.027272727272724" y="-121.0" type="line"/>
      <point x="241.03636363636363" y="760.0" type="line"/>
      <point x="207.36969696969697" y="760.0" type="line"/>
    </contour>
  </outline>
</glyph>
<glyph name="zero" format="2">
  <advance width="467.72424242424245"/>
  <unicode hex="0030"/>
  <outline>
    <contour>
      <point x="233.73636363636362" y="-10.0" type="curve" smooth="yes"/>
      <point x="359.3" y="-10.0"/>
      <point x="421.6" y="110.55757575757576"/>
      <point x="421.6" y="358.0" type="curve" smooth="yes"/>
      <point x="421.6" y="600.830303030303"/>
      <point x="364.4727272727273" y="724.0"/>
      <point x="234.73636363636362" y="724.0" type="curve" smooth="yes"/>
      <point x="97.5030303030303" y="724.0"/>
      <point x="45.42424242424243" y="593.4787878787879"/>
      <point x="45.42424242424243" y="359.0" type="curve" smooth="yes"/>
      <point x="45.42424242424243" y="113.03636363636363"/>
      <point x="101.73030303030302" y="-10.0"/>
    </contour>
    <contour>
      <point x="233.49999999999997" y="20.55757575757576" type="curve" smooth="yes"/>
      <point x="129.5151515151515" y="20.55757575757576"/>
      <point x="87.61515151515152" y="139.85757575757577"/>
      <point x="87.61515151515152" y="358.0" type="curve" smooth="yes"/>
      <point x="87.61515151515152" y="572.1242424242425"/>
      <point x="127.15151515151516" y="693.4424242424242"/>
      <point x="234.49999999999997" y="693.4424242424242" type="curve" smooth="yes"/>
      <point x="340.32121212121217" y="693.4424242424242"/>
      <point x="379.70606060606065" y="573.778787878788"/>
      <point x="379.70606060606065" y="358.0" type="curve" smooth="yes"/>
      <point x="379.70606060606065" y="141.74848484848485"/>
      <point x="337.72121212121215" y="20.55757575757576"/>
    </contour>
  </outline>
</glyph>
<glyph name="one" format="2">
  <advance width="467.72424242424245"/>
  <unicode hex="0031"/>
  <outline>
    <contour>
      <point x="99.69999999999999" y="0.0" type="line"/>
      <point x="365.1727272727273" y="0.0" type="line"/>
      <point x="365.1727272727273" y="24.51818181818182" type="line"/>
      <point x="315.8787878787879" y="24.51818181818182" type="line" smooth="yes"/>
      <point x="268.78484848484845" y="24.51818181818182"/>
      <point x="256.5909090909091" y="34.69090909090909"/>
      <point x="256.5909090909091" y="107.46969696969697" type="curve" smooth="yes"/>
      <point x="256.5909090909091" y="718.0" type="line"/>
      <point x="229.69696969696972" y="718.0" type="line"/>
      <point x="189.02727272727273" y="668.1969696969697" type="line" smooth="yes"/>
      <point x="142.28181818181818" y="611.3181818181819"/>
      <point x="107.97878787878787" y="598.430303030303"/>
      <point x="71.37272727272727" y="588.1939393939393" type="curve"/>
      <point x="71.37272727272727" y="573.4393939393939"/>
      <point x="84.53030303030305" y="564.2545454545456"/>
      <point x="102.23030303030305" y="564.2545454545456" type="curve" smooth="yes"/>
      <point x="139.23939393939395" y="564.2545454545456"/>
      <point x="176.58484848484846" y="605.3878787878788"/>
      <point x="215.48181818181817" y="661.130303030303" type="curve"/>
      <point x="215.48181818181817" y="107.46969696969697" type="line" smooth="yes"/>
      <point x="215.48181818181817" y="34.24545454545454"/>
      <point x="203.28787878787878" y="24.51818181818182"/>
      <point x="156.1939393939394" y="24.51818181818182" type="curve" smooth="yes"/>
      <point x="99.69999999999999" y="24.51818181818182" type="line"/>
    </contour>
  </outline>
</glyph>
<glyph name="two" format="2">
  <advance width="467.72424242424245"/>
  <unicode hex="0032"/>
  <outline>
    <contour>
      <point x="51.99393939393939" y="0.0" type="line"/>
      <point x="401.41818181818184" y="0.0" type="line"/>
      <point x="404.4666666666667" y="138.51818181818183" type="line"/>
      <point x="380.2454545454545" y="138.51818181818183" type="line"/>
      <point x="378.3727272727273" y="107.68484848484847" type="line" smooth="yes"/>
      <point x="375.05454545454546" y="56.86060606060606"/>
      <point x="367.44242424242424" y="37.875757575757575"/>
      <point x="315.56969696969696" y="37.875757575757575" type="curve" smooth="yes"/>
      <point x="94.53333333333333" y="37.875757575757575" type="line"/>
      <point x="270.6090909090909" y="279.7575757575757" type="line" smooth="yes"/>
      <point x="340.46060606060604" y="376.3787878787879"/>
      <point x="386.41515151515154" y="449.16969696969693"/>
      <point x="386.41515151515154" y="553.3242424242424" type="curve" smooth="yes"/>
      <point x="386.41515151515154" y="650.2272727272727"/>
      <point x="334.7454545454546" y="724.0"/>
      <point x="227.4030303030303" y="724.0" type="curve" smooth="yes"/>
      <point x="122.33030303030301" y="724.0"/>
      <point x="75.15454545454546" y="654.6393939393938"/>
      <point x="75.15454545454546" y="601.3787878787879" type="curve" smooth="yes"/>
      <point x="75.15454545454546" y="569.5939393939394"/>
      <point x="89.13333333333334" y="557.0999999999999"/>
      <point x="108.30909090909091" y="557.0999999999999" type="curve"/>
      <point x="108.30909090909091" y="635.4181818181818"/>
      <point x="143.63636363636363" y="693.8454545454547"/>
      <point x="227.4030303030303" y="693.8454545454547" type="curve" smooth="yes"/>
      <point x="315.59090909090907" y="693.8454545454547"/>
      <point x="344.41515151515154" y="624.9606060606061"/>
      <point x="344.41515151515154" y="548.1212121212122" type="curve" smooth="yes"/>
      <point x="344.41515151515154" y="456.9545454545455"/>
      <point x="308.5" y="390.8848484848485"/>
      <point x="227.13636363636363" y="276.06060606060606" type="curve" smooth="yes"/>
      <point x="51.99393939393939" y="31.92727272727273" type="line"/>
    </contour>
  </outline>
</glyph>
<glyph name="three" format="2">
  <advance width="467.72424242424245"/>
  <unicode hex="0033"/>
  <outline>
    <contour>
      <point x="220.81515151515148" y="-9.212121212121213" type="curve" smooth="yes"/>
      <point x="311.02727272727276" y="-9.212121212121213"/>
      <point x="409.56969696969696" y="44.89090909090909"/>
      <point x="409.56969696969696" y="192.25454545454548" type="curve" smooth="yes"/>
      <point x="409.56969696969696" y="327.2939393939394"/>
      <point x="335.0969696969697" y="370.7606060606061"/>
      <point x="267.6515151515152" y="376.8515151515152" type="curve"/>
      <point x="336.22424242424245" y="392.8727272727273"/>
      <point x="388.6212121212121" y="466.70303030303035"/>
      <point x="388.6212121212121" y="559.5393939393939" type="curve" smooth="yes"/>
      <point x="388.6212121212121" y="664.8272727272727"/>
      <point x="331.6484848484848" y="724.0"/>
      <point x="236.34848484848484" y="724.0" type="curve" smooth="yes"/>
      <point x="140.10000000000002" y="724.0"/>
      <point x="85.60606060606061" y="664.9787878787878"/>
      <point x="85.60606060606061" y="595.1121212121212" type="curve" smooth="yes"/>
      <point x="85.60606060606061" y="563.8242424242424"/>
      <point x="100.64545454545456" y="551.8818181818182"/>
      <point x="118.16666666666669" y="551.8818181818182" type="curve"/>
      <point x="118.16666666666669" y="635.6878787878787"/>
      <point x="150.52424242424243" y="693.8454545454547"/>
      <point x="236.01818181818183" y="693.8454545454547" type="curve" smooth="yes"/>
      <point x="309.68181818181813" y="693.8454545454547"/>
      <point x="346.6424242424243" y="644.2212121212121"/>
      <point x="346.6424242424243" y="556.460606060606" type="curve" smooth="yes"/>
      <point x="346.6424242424243" y="450.9909090909091"/>
      <point x="286.9818181818182" y="388.6969696969697"/>
      <point x="206.77575757575755" y="388.6969696969697" type="curve"/>
      <point x="182.40303030303033" y="388.6969696969697" type="line"/>
      <point x="182.40303030303033" y="358.7757575757576" type="line"/>
      <point x="209.14848484848486" y="358.7757575757576" type="line" smooth="yes"/>
      <point x="318.530303030303" y="358.7757575757576"/>
      <point x="367.5272727272727" y="299.06666666666666"/>
      <point x="367.5272727272727" y="192.3090909090909" type="curve" smooth="yes"/>
      <point x="367.5272727272727" y="74.6"/>
      <point x="298.160606060606" y="21.642424242424244"/>
      <point x="221.51818181818183" y="21.642424242424244" type="curve" smooth="yes"/>
      <point x="131.9939393939394" y="21.642424242424244"/>
      <point x="95.76969696969698" y="74.82121212121211"/>
      <point x="95.76969696969698" y="142.15151515151516" type="curve"/>
      <point x="77.72727272727273" y="142.15151515151516"/>
      <point x="67.04848484848485" y="125.79393939393938"/>
      <point x="67.04848484848485" y="99.73030303030303" type="curve" smooth="yes"/>
      <point x="67.04848484848485" y="43.269696969696966"/>
      <point x="116.40909090909092" y="-9.212121212121213"/>
    </contour>
  </outline>
</glyph>
<glyph name="four" format="2">
  <advance width="467.72424242424245"/>
  <unicode hex="0034"/>
  <outline>
    <contour>
      <point x="207.73333333333335" y="0.0" type="line"/>
      <point x="421.8484848484848" y="0.0" type="line"/>
      <point x="421.8484848484848" y="24.51818181818182" type="line"/>
      <point x="403.3848484848485" y="24.51818181818182" type="line" smooth="yes"/>
      <point x="353.4272727272728" y="24.51818181818182"/>
      <point x="341.4878787878788" y="33.990909090909085"/>
      <point x="341.4878787878788" y="105.26363636363637" type="curve" smooth="yes"/>
      <point x="341.4878787878788" y="205.60303030303027" type="line"/>
      <point x="456.07878787878786" y="205.60303030303027" type="line"/>
      <point x="456.07878787878786" y="237.03030303030303" type="line"/>
      <point x="341.4878787878788" y="237.03030303030303" type="line"/>
      <point x="341.4878787878788" y="714.0" type="line"/>
      <point x="299.82424242424247" y="714.0" type="line"/>
      <point x="17.824242424242424" y="227.94848484848487" type="line"/>
      <point x="17.824242424242424" y="205.60303030303027" type="line"/>
      <point x="300.8454545454546" y="205.60303030303027" type="line"/>
      <point x="300.8454545454546" y="105.26363636363637" type="line" smooth="yes"/>
      <point x="300.8454545454546" y="33.990909090909085"/>
      <point x="288.5030303030303" y="24.51818181818182"/>
      <point x="238.9484848484849" y="24.51818181818182" type="curve" smooth="yes"/>
      <point x="207.73333333333335" y="24.51818181818182" type="line"/>
    </contour>
    <contour>
      <point x="57.17575757575757" y="237.03030303030303" type="line"/>
      <point x="213.76060606060608" y="506.18787878787873" type="line" smooth="yes"/>
      <point x="238.98484848484844" y="549.8454545454546"/>
      <point x="293.5151515151515" y="646.5727272727272"/>
      <point x="303.6090909090909" y="670.060606060606" type="curve"/>
      <point x="301.3575757575757" y="606.9575757575758"/>
      <point x="300.8454545454546" y="502.8424242424242"/>
      <point x="300.8454545454546" y="444.8424242424242" type="curve" smooth="yes"/>
      <point x="300.8454545454546" y="237.03030303030303" type="line"/>
    </contour>
  </outline>
</glyph>
<glyph name="five" format="2">
  <advance width="467.72424242424245"/>
  <unicode hex="0035"/>
  <outline>
    <contour>
      <point x="206.1727272727273" y="-10.0" type="curve" smooth="yes"/>
      <point x="322.1818181818182" y="-10.0"/>
      <point x="391.4" y="72.43939393939394"/>
      <point x="391.4" y="216.42424242424244" type="curve" smooth="yes"/>
      <point x="391.4" y="354.6757575757576"/>
      <point x="316.1606060606061" y="424.27272727272725"/>
      <point x="214.57272727272726" y="424.27272727272725" type="curve" smooth="yes"/>
      <point x="171.41818181818178" y="424.27272727272725"/>
      <point x="138.9848484848485" y="412.59393939393937"/>
      <point x="115.28181818181817" y="397.89090909090913" type="curve"/>
      <point x="136.66363636363636" y="673.6272727272727" type="line"/>
      <point x="290.2151515151515" y="673.6272727272727" type="line" smooth="yes"/>
      <point x="334.9060606060606" y="673.6272727272727"/>
      <point x="341.1666666666667" y="667.3848484848485"/>
      <point x="344.33333333333337" y="618.6060606060605" type="curve" smooth="yes"/>
      <point x="346.1181818181818" y="593.1727272727273" type="line"/>
      <point x="370.339393939394" y="593.1727272727273" type="line"/>
      <point x="367.21212121212125" y="712.2121212121212" type="line"/>
      <point x="110.33333333333334" y="712.2121212121212" type="line"/>
      <point x="82.46363636363637" y="355.04242424242426" type="line"/>
      <point x="97.05454545454545" y="349.96060606060604" type="line"/>
      <point x="117.44242424242427" y="372.2969696969697"/>
      <point x="157.74242424242425" y="393.5030303030303"/>
      <point x="209.07575757575756" y="393.5030303030303" type="curve" smooth="yes"/>
      <point x="293.95757575757574" y="393.5030303030303"/>
      <point x="349.2090909090909" y="331.7454545454545"/>
      <point x="349.2090909090909" y="216.42424242424244" type="curve" smooth="yes"/>
      <point x="349.2090909090909" y="83.72727272727272"/>
      <point x="293.9909090909091" y="21.024242424242427"/>
      <point x="206.38181818181818" y="21.024242424242427" type="curve" smooth="yes"/>
      <point x="127.5121212121212" y="21.024242424242427"/>
      <point x="85.45151515151515" y="67.61212121212121"/>
      <point x="85.45151515151515" y="131.83333333333334" type="curve"/>
      <point x="67.64242424242424" y="131.83333333333334"/>
      <point x="57.02727272727272" y="119.0"/>
      <point x="57.02727272727272" y="90.26363636363637" type="curve" smooth="yes"/>
      <point x="57.02727272727272" y="51.154545454545456"/>
      <point x="99.81515151515151" y="-10.0"/>
    </contour>
  </outline>
</glyph>
<glyph name="six" format="2">
  <advance width="467.72424242424245"/>
  <unicode hex="0036"/>
  <outline>
    <contour>
      <point x="244.7848484848485" y="-10.0" type="curve" smooth="yes"/>
      <point x="343.439393939394" y="-10.0"/>
      <point x="413.5242424242424" y="60.34545454545455"/>
      <point x="413.5242424242424" y="219.7030303030303" type="curve" smooth="yes"/>
      <point x="413.5242424242424" y="354.72424242424245"/>
      <point x="352.3424242424243" y="429.43939393939394"/>
      <point x="251.11515151515152" y="429.43939393939394" type="curve" smooth="yes"/>
      <point x="180.43030303030304" y="429.43939393939394"/>
      <point x="131.1727272727273" y="390.28484848484845"/>
      <point x="103.52727272727273" y="360.2030303030303" type="curve"/>
      <point x="104.41818181818182" y="598.1636363636363"/>
      <point x="162.46969696969697" y="694.2696969696971"/>
      <point x="263.3454545454545" y="694.2696969696971" type="curve" smooth="yes"/>
      <point x="334.07272727272726" y="694.2696969696971"/>
      <point x="362.660606060606" y="655.3727272727273"/>
      <point x="362.660606060606" y="581.9787878787879" type="curve"/>
      <point x="381.0515151515151" y="581.9787878787879"/>
      <point x="393.3545454545454" y="592.2666666666667"/>
      <point x="393.3545454545454" y="623.4909090909091" type="curve" smooth="yes"/>
      <point x="393.3545454545454" y="677.7272727272727"/>
      <point x="353.1484848484849" y="724.0"/>
      <point x="265.5242424242424" y="724.0" type="curve" smooth="yes"/>
      <point x="137.05454545454546" y="724.0"/>
      <point x="61.69696969696969" y="622.5878787878787"/>
      <point x="61.69696969696969" y="340.24848484848485" type="curve" smooth="yes"/>
      <point x="61.69696969696969" y="94.39999999999999"/>
      <point x="131.72727272727272" y="-10.0"/>
    </contour>
    <contour>
      <point x="246.53333333333333" y="20.62121212121212" type="curve" smooth="yes"/>
      <point x="155.40909090909093" y="20.62121212121212"/>
      <point x="105.78787878787878" y="117.9151515151515"/>
      <point x="103.31515151515151" y="320.8848484848485" type="curve"/>
      <point x="129.52121212121213" y="352.4575757575758"/>
      <point x="174.72727272727272" y="399.369696969697"/>
      <point x="247.16969696969696" y="399.369696969697" type="curve" smooth="yes"/>
      <point x="331.44242424242424" y="399.369696969697"/>
      <point x="372.0545454545455" y="337.0878787878788"/>
      <point x="372.0545454545455" y="218.36969696969695" type="curve" smooth="yes"/>
      <point x="372.0545454545455" y="86.68181818181819"/>
      <point x="326.9060606060606" y="20.62121212121212"/>
    </contour>
  </outline>
</glyph>
<glyph name="seven" format="2">
  <advance width="467.72424242424245"/>
  <unicode hex="0037"/>
  <outline>
    <contour>
      <point x="157.72424242424242" y="0.0" type="line"/>
      <point x="192.42424242424244" y="0.0" type="line"/>
      <point x="417.3575757575758" y="689.0242424242424" type="line"/>
      <point x="417.3575757575758" y="712.2121212121212" type="line"/>
      <point x="54.393939393939384" y="712.2121212121212" type="line"/>
      <point x="49.709090909090904" y="560.809090909091" type="line"/>
      <point x="74.37575757575759" y="560.809090909091" type="line"/>
      <point x="77.82424242424243" y="618.9515151515152" type="line" smooth="yes"/>
      <point x="80.82424242424243" y="665.8515151515152"/>
      <point x="91.37878787878788" y="673.6272727272727"/>
      <point x="125.7878787878788" y="673.6272727272727" type="curve" smooth="yes"/>
      <point x="379.74545454545455" y="673.6272727272727" type="line"/>
    </contour>
  </outline>
</glyph>
<glyph name="eight" format="2">
  <advance width="467.72424242424245"/>
  <unicode hex="0038"/>
  <outline>
    <contour>
      <point x="231.50606060606063" y="-10.0" type="curve" smooth="yes"/>
      <point x="342.7" y="-10.0"/>
      <point x="417.8242424242424" y="54.03030303030303"/>
      <point x="417.8242424242424" y="172.91818181818184" type="curve" smooth="yes"/>
      <point x="417.8242424242424" y="279.4515151515152"/>
      <point x="369.03636363636366" y="327.6575757575757"/>
      <point x="276.9272727272728" y="376.969696969697" type="curve"/>
      <point x="353.1969696969697" y="410.6242424242424"/>
      <point x="398.6484848484849" y="464.6121212121212"/>
      <point x="398.6484848484849" y="557.4606060606061" type="curve" smooth="yes"/>
      <point x="398.6484848484849" y="653.7848484848485"/>
      <point x="344.09090909090907" y="724.0"/>
      <point x="238.51818181818183" y="724.0" type="curve" smooth="yes"/>
      <point x="129.1787878787879" y="724.0"/>
      <point x="74.66969696969699" y="651.7303030303029"/>
      <point x="74.66969696969699" y="551.669696969697" type="curve" smooth="yes"/>
      <point x="74.66969696969699" y="465.5878787878788"/>
      <point x="125.86969696969696" y="411.3545454545455"/>
      <point x="200.28181818181818" y="374.3242424242424" type="curve"/>
      <point x="109.38787878787879" y="336.6030303030303"/>
      <point x="53.74242424242424" y="272.9515151515152"/>
      <point x="53.74242424242424" y="171.33333333333334" type="curve" smooth="yes"/>
      <point x="53.74242424242424" y="60.56363636363637"/>
      <point x="115.76969696969698" y="-10.0"/>
    </contour>
    <contour>
      <point x="231.41212121212124" y="19.9" type="curve" smooth="yes"/>
      <point x="139.9969696969697" y="19.9"/>
      <point x="94.15151515151514" y="78.31818181818183"/>
      <point x="94.15151515151514" y="171.44545454545454" type="curve" smooth="yes"/>
      <point x="94.15151515151514" y="252.74848484848485"/>
      <point x="133.63939393939398" y="318.54848484848486"/>
      <point x="230.10303030303032" y="357.5030303030303" type="curve"/>
      <point x="345.23939393939395" y="304.3484848484849"/>
      <point x="377.3515151515151" y="251.02424242424243"/>
      <point x="377.3515151515151" y="169.25454545454545" type="curve" smooth="yes"/>
      <point x="377.3515151515151" y="72.2090909090909"/>
      <point x="319.66363636363633" y="19.9"/>
    </contour>
    <contour>
      <point x="247.21818181818185" y="392.73030303030305" type="curve"/>
      <point x="160.61818181818182" y="433.8090909090909"/>
      <point x="115.18484848484847" y="474.0060606060606"/>
      <point x="115.18484848484847" y="558.9424242424243" type="curve" smooth="yes"/>
      <point x="115.18484848484847" y="639.4454545454546"/>
      <point x="160.53939393939396" y="694.0363636363637"/>
      <point x="239.25757575757575" y="694.0363636363637" type="curve" smooth="yes"/>
      <point x="325.3575757575758" y="694.0363636363637"/>
      <point x="359.4909090909091" y="625.8454545454546"/>
      <point x="359.4909090909091" y="556.3454545454545" type="curve" smooth="yes"/>
      <point x="359.4909090909091" y="476.97878787878784"/>
      <point x="334.1151515151516" y="431.1484848484848"/>
    </contour>
  </outline>
</glyph>
<glyph name="nine" format="2">
  <advance width="467.72424242424245"/>
  <unicode hex="0039"/>
  <outline>
    <contour>
      <point x="192.9969696969697" y="-12.103030303030303" type="curve"/>
      <point x="339.2909090909091" y="-12.103030303030303"/>
      <point x="405.6242424242424" y="112.43939393939392"/>
      <point x="405.6242424242424" y="388.0" type="curve"/>
      <point x="405.6242424242424" y="629.3545454545455"/>
      <point x="330.0212121212121" y="724.0"/>
      <point x="217.54545454545453" y="724.0" type="curve" smooth="yes"/>
      <point x="109.23939393939393" y="724.0"/>
      <point x="53.64848484848484" y="634.5090909090909"/>
      <point x="53.64848484848484" y="485.0363636363636" type="curve" smooth="yes"/>
      <point x="53.64848484848484" y="354.6575757575757"/>
      <point x="113.44242424242424" y="284.2424242424242"/>
      <point x="219.1121212121212" y="284.2424242424242" type="curve" smooth="yes"/>
      <point x="293.26666666666665" y="284.2424242424242"/>
      <point x="345.330303030303" y="328.6393939393939"/>
      <point x="363.94242424242424" y="354.8606060606061" type="curve"/>
      <point x="359.44545454545454" y="125.38484848484849"/>
      <point x="308.5242424242424" y="19.112121212121213"/>
      <point x="196.54242424242423" y="19.112121212121213" type="curve" smooth="yes"/>
      <point x="139.63333333333335" y="19.112121212121213"/>
      <point x="109.26969696969697" y="51.306060606060605"/>
      <point x="93.99090909090908" y="88.82424242424243" type="curve"/>
      <point x="85.33939393939394" y="85.1030303030303"/>
      <point x="80.53636363636363" y="75.62121212121211"/>
      <point x="80.53636363636363" y="59.68181818181818" type="curve" smooth="yes"/>
      <point x="80.53636363636363" y="25.542424242424243"/>
      <point x="117.26363636363637" y="-12.103030303030303"/>
    </contour>
    <contour>
      <point x="223.93636363636367" y="314.969696969697" type="curve" smooth="yes"/>
      <point x="135.53333333333333" y="315.41515151515154"/>
      <point x="95.33030303030304" y="373.9272727272727"/>
      <point x="95.33030303030304" y="488.0" type="curve" smooth="yes"/>
      <point x="95.33030303030304" y="613.0181818181818"/>
      <point x="131.63333333333333" y="693.3787878787879"/>
      <point x="219.0848484848485" y="693.3787878787879" type="curve" smooth="yes"/>
      <point x="310.4818181818182" y="693.3787878787879"/>
      <point x="363.66666666666663" y="597.569696969697"/>
      <point x="364.3030303030303" y="396.55151515151516" type="curve"/>
      <point x="347.38787878787883" y="372.3151515151515"/>
      <point x="305.8181818181818" y="315.41515151515154"/>
    </contour>
  </outline>
</glyph>
<glyph name="colon" format="2">
  <advance width="206.3939393939394"/>
  <unicode hex="003A"/>
  <outline>
    <contour>
      <point x="103.33939393939394" y="426.0" type="curve" smooth="yes"/>
      <point x="121.01515151515152" y="426.0"/>
      <point x="137.21818181818185" y="436.25151515151515"/>
      <point x="137.21818181818185" y="470.3484848484848" type="curve" smooth="yes"/>
      <point x="137.21818181818185" y="504.27272727272725"/>
      <point x="121.01515151515152" y="514.2242424242424"/>
      <point x="103.33939393939394" y="514.2242424242424" type="curve" smooth="yes"/>
      <point x="83.88484848484849" y="514.2242424242424"/>
      <point x="68.35757575757575" y="504.27272727272725"/>
      <point x="68.35757575757575" y="470.3484848484848" type="curve" smooth="yes"/>
      <point x="68.35757575757575" y="436.25151515151515"/>
      <point x="83.88484848484849" y="426.0"/>
    </contour>
    <contour>
      <point x="103.33939393939394" y="-5.424242424242424" type="curve" smooth="yes"/>
      <point x="121.01515151515152" y="-5.424242424242424"/>
      <point x="137.21818181818185" y="4.9757575757575765"/>
      <point x="137.21818181818185" y="39.07272727272727" type="curve" smooth="yes"/>
      <point x="137.21818181818185" y="72.9969696969697"/>
      <point x="121.01515151515152" y="83.0969696969697"/>
      <point x="103.33939393939394" y="83.0969696969697" type="curve" smooth="yes"/>
      <point x="83.88484848484849" y="83.0969696969697"/>
      <point x="68.35757575757575" y="72.9969696969697"/>
      <point x="68.35757575757575" y="39.07272727272727" type="curve" smooth="yes"/>
      <point x="68.35757575757575" y="4.9757575757575765"/>
      <point x="83.88484848484849" y="-5.424242424242424"/>
    </contour>
  </outline>
</glyph>
<glyph name="semicolon" format="2">
  <advance width="206.3939393939394"/>
  <unicode hex="003B"/>
  <outline>
    <contour>
      <point x="37.52424242424243" y="-154.0" type="line"/>
      <point x="116.9121212121212" y="-124.09393939393938"/>
      <point x="147.04242424242426" y="-58.28181818181818"/>
      <point x="147.04242424242426" y="6.533333333333337" type="curve" smooth="yes"/>
      <point x="147.04242424242426" y="61.88484848484849"/>
      <point x="122.27878787878787" y="83.0969696969697"/>
      <point x="95.66060606060604" y="83.0969696969697" type="curve" smooth="yes"/>
      <point x="75.57878787878788" y="83.0969696969697"/>
      <point x="61.61818181818181" y="69.65151515151516"/>
      <point x="61.61818181818181" y="49.8060606060606" type="curve" smooth="yes"/>
      <point x="61.61818181818181" y="14.9"/>
      <point x="109.36060606060607" y="9.790909090909091"/>
      <point x="109.36060606060607" y="-26.690909090909095" type="curve" smooth="yes"/>
      <point x="109.36060606060607" y="-61.14848484848485"/>
      <point x="88.50606060606061" y="-108.04242424242425"/>
      <point x="37.52424242424243" y="-126.14545454545456" type="curve"/>
    </contour>
    <contour>
      <point x="103.33939393939394" y="426.0" type="curve" smooth="yes"/>
      <point x="121.71515151515152" y="426.0"/>
      <point x="137.21818181818185" y="436.25151515151515"/>
      <point x="137.21818181818185" y="470.3484848484848" type="curve" smooth="yes"/>
      <point x="137.21818181818185" y="504.27272727272725"/>
      <point x="121.71515151515152" y="514.2242424242424"/>
      <point x="103.33939393939394" y="514.2242424242424" type="curve" smooth="yes"/>
      <point x="83.88484848484849" y="514.2242424242424"/>
      <point x="68.35757575757575" y="504.27272727272725"/>
      <point x="68.35757575757575" y="470.3484848484848" type="curve" smooth="yes"/>
      <point x="68.35757575757575" y="436.25151515151515"/>
      <point x="83.88484848484849" y="426.0"/>
    </contour>
  </outline>
</glyph>
<glyph name="less" format="2">
  <advance width="465.2"/>
  <unicode hex="003C"/>
  <outline>
    <contour>
      <point x="411.73939393939395" y="115.89999999999999" type="line"/>
      <point x="411.73939393939395" y="157.14545454545456" type="line"/>
      <point x="94.85151515151516" y="357.0" type="line"/>
      <point x="411.73939393939395" y="559.0030303030303" type="line"/>
      <point x="411.73939393939395" y="600.1" type="line"/>
      <point x="53.46060606060606" y="371.8484848484849" type="line"/>
      <point x="53.46060606060606" y="343.1515151515151" type="line"/>
    </contour>
  </outline>
</glyph>
<glyph name="equal" format="2">
  <advance width="465.2"/>
  <unicode hex="003D"/>
  <outline>
    <contour>
      <point x="54.484848484848484" y="440.8393939393939" type="line"/>
      <point x="409.69090909090914" y="440.8393939393939" type="line"/>
      <point x="409.69090909090914" y="475.26666666666665" type="line"/>
      <point x="54.484848484848484" y="475.26666666666665" type="line"/>
    </contour>
    <contour>
      <point x="54.484848484848484" y="239.28484848484848" type="line"/>
      <point x="409.69090909090914" y="239.28484848484848" type="line"/>
      <point x="409.69090909090914" y="273.71212121212125" type="line"/>
      <point x="54.484848484848484" y="273.71212121212125" type="line"/>
    </contour>
  </outline>
</glyph>
<glyph name="greater" format="2">
  <advance width="465.2"/>
  <unicode hex="003E"/>
  <outline>
    <contour>
      <point x="53.46060606060606" y="115.89999999999999" type="line"/>
      <point x="411.73939393939395" y="343.1515151515151" type="line"/>
      <point x="411.73939393939395" y="371.8484848484849" type="line"/>
      <point x="53.46060606060606" y="600.1" type="line"/>
      <point x="53.46060606060606" y="559.0030303030303" type="line"/>
      <point x="369.2545454545455" y="357.0" type="line"/>
      <point x="53.46060606060606" y="157.14545454545456" type="line"/>
    </contour>
  </outline>
</glyph>
<glyph name="question" format="2">
  <advance width="395.8545454545455"/>
  <unicode hex="003F"/>
  <outline>
    <contour>
      <point x="169.1818181818182" y="197.22424242424242" type="line"/>
      <point x="194.0181818181818" y="197.22424242424242" type="line"/>
      <point x="198.6969696969697" y="322.6636363636364" type="line"/>
      <point x="296.4424242424243" y="371.23030303030305"/>
      <point x="343.95151515151514" y="438.0939393939394"/>
      <point x="343.95151515151514" y="550.4484848484848" type="curve" smooth="yes"/>
      <point x="343.95151515151514" y="659.8878787878788"/>
      <point x="282.0727272727272" y="724.0"/>
      <point x="185.35757575757575" y="724.0" type="curve" smooth="yes"/>
      <point x="80.69393939393939" y="724.0"/>
      <point x="40.087878787878786" y="663.8060606060607"/>
      <point x="40.087878787878786" y="614.5212121212121" type="curve" smooth="yes"/>
      <point x="40.087878787878786" y="583.7333333333333"/>
      <point x="54.49090909090909" y="570.3454545454546"/>
      <point x="73.05151515151515" y="570.3454545454546" type="curve"/>
      <point x="73.05151515151515" y="638.5121212121213"/>
      <point x="99.05151515151515" y="694.0575757575758"/>
      <point x="186.1909090909091" y="694.0575757575758" type="curve" smooth="yes"/>
      <point x="263.3030303030303" y="694.0575757575758"/>
      <point x="302.7454545454546" y="636.0151515151516"/>
      <point x="302.7454545454546" y="550.5757575757576" type="curve" smooth="yes"/>
      <point x="302.7454545454546" y="454.72424242424245"/>
      <point x="262.75757575757575" y="388.23636363636365"/>
      <point x="165.2030303030303" y="339.3545454545455" type="curve"/>
    </contour>
    <contour>
      <point x="181.74545454545455" y="-5.424242424242424" type="curve" smooth="yes"/>
      <point x="201.37272727272727" y="-5.424242424242424"/>
      <point x="217.5757575757576" y="4.9757575757575765"/>
      <point x="217.5757575757576" y="39.07272727272727" type="curve" smooth="yes"/>
      <point x="217.5757575757576" y="72.9969696969697"/>
      <point x="201.37272727272727" y="83.0969696969697"/>
      <point x="181.74545454545455" y="83.0969696969697" type="curve" smooth="yes"/>
      <point x="163.54242424242426" y="83.0969696969697"/>
      <point x="148.01515151515153" y="72.9969696969697"/>
      <point x="148.01515151515153" y="39.07272727272727" type="curve" smooth="yes"/>
      <point x="148.01515151515153" y="4.9757575757575765"/>
      <point x="163.54242424242426" y="-5.424242424242424"/>
    </contour>
  </outline>
</glyph>
<glyph name="bracketleft" format="2">
  <advance width="264.3818181818182"/>
  <unicode hex="005B"/>
  <outline>
    <contour>
      <point x="83.0939393939394" y="-128.0" type="line"/>
      <point x="232.9818181818182" y="-128.0" type="line"/>
      <point x="232.9818181818182" y="-103.48181818181818" type="line"/>
      <point x="183.5969696969697" y="-103.48181818181818" type="line" smooth="yes"/>
      <point x="136.14242424242425" y="-103.48181818181818"/>
      <point x="124.6060606060606" y="-92.9060606060606"/>
      <point x="124.6060606060606" y="-18.875757575757575" type="curve" smooth="yes"/>
      <point x="124.6060606060606" y="650.8757575757577" type="line" smooth="yes"/>
      <point x="124.6060606060606" y="724.9060606060607"/>
      <point x="136.14242424242425" y="735.4818181818183"/>
      <point x="183.5969696969697" y="735.4818181818183" type="curve" smooth="yes"/>
      <point x="232.9818181818182" y="735.4818181818183" type="line"/>
      <point x="232.9818181818182" y="760.0" type="line"/>
      <point x="83.0939393939394" y="760.0" type="line"/>
    </contour>
  </outline>
</glyph>
<glyph name="backslash" format="2">
  <advance width="241.03636363636363"/>
  <unicode hex="005C"/>
  <outline>
    <contour>
      <point x="207.15757575757576" y="-121.0" type="line"/>
      <point x="241.03636363636363" y="-121.0" type="line"/>
      <point x="33.81515151515152" y="760.0" type="line"/>
      <point x="0.0" y="760.0" type="line"/>
    </contour>
  </outline>
</glyph>
<glyph name="bracketright" format="2">
  <advance width="264.3818181818182"/>
  <unicode hex="005D"/>
  <outline>
    <contour>
      <point x="30.445454545454545" y="-128.0" type="line"/>
      <point x="180.18484848484852" y="-128.0" type="line"/>
      <point x="180.18484848484852" y="760.0" type="line"/>
      <point x="30.445454545454545" y="760.0" type="line"/>
      <point x="30.445454545454545" y="735.4818181818183" type="line"/>
      <point x="79.68181818181819" y="735.4818181818183" type="line" smooth="yes"/>
      <point x="127.2848484848485" y="735.4818181818183"/>
      <point x="138.67272727272726" y="724.9060606060607"/>
      <point x="138.67272727272726" y="650.8757575757577" type="curve" smooth="yes"/>
      <point x="138.67272727272726" y="-18.875757575757575" type="line" smooth="yes"/>
      <point x="138.67272727272726" y="-92.9060606060606"/>
      <point x="127.2848484848485" y="-103.48181818181818"/>
      <point x="79.68181818181819" y="-103.48181818181818" type="curve" smooth="yes"/>
      <point x="30.445454545454545" y="-103.48181818181818" type="line"/>
    </contour>
  </outline>
</glyph>
<glyph name="asciicircum" format="2">
  <advance width="465.2"/>
  <unicode hex="005E"/>
  <outline>
    <contour>
      <point x="43.233333333333334" y="270.3242424242424" type="line"/>
      <point x="80.63939393939394" y="270.3242424242424" type="line"/>
      <point x="231.1" y="659.4848484848484" type="line"/>
      <point x="383.41212121212124" y="270.3242424242424" type="line"/>
      <point x="420.96666666666664" y="270.3242424242424" type="line"/>
      <point x="243.9272727272727" y="714.0" type="line"/>
      <point x="218.24848484848482" y="714.0" type="line"/>
    </contour>
  </outline>
</glyph>
<glyph name="underscore" format="2">
  <advance width="382.82727272727277"/>
  <unicode hex="005F"/>
  <outline>
    <contour>
      <point x="-3.7484848484848485" y="-133.96363636363637" type="line"/>
      <point x="387.1272727272727" y="-133.96363636363637" type="line"/>
      <point x="387.1272727272727" y="-83.0" type="line"/>
      <point x="-3.7484848484848485" y="-83.0" type="line"/>
    </contour>
  </outline>
</glyph>
<glyph name="braceleft" format="2">
  <advance width="347.9545454545455"/>
  <unicode hex="007B"/>
  <outline>
    <contour>
      <point x="261.3696969696969" y="-131.15151515151516" type="curve" smooth="yes"/>
      <point x="292.85454545454553" y="-131.15151515151516" type="line"/>
      <point x="292.85454545454553" y="-102.48181818181818" type="line"/>
      <point x="271.31818181818187" y="-102.48181818181818" type="line" smooth="yes"/>
      <point x="220.23636363636365" y="-102.48181818181818"/>
      <point x="198.20606060606062" y="-65.0090909090909"/>
      <point x="198.20606060606062" y="12.681818181818183" type="curve" smooth="yes"/>
      <point x="198.20606060606062" y="188.6757575757576" type="line" smooth="yes"/>
      <point x="198.20606060606062" y="257.8969696969697"/>
      <point x="168.65757575757576" y="303.75454545454545"/>
      <point x="117.4" y="314.8727272727273" type="curve"/>
      <point x="117.4" y="317.2121212121212" type="line"/>
      <point x="170.49999999999997" y="328.9848484848485"/>
      <point x="198.20606060606062" y="373.4878787878788"/>
      <point x="198.20606060606062" y="442.57575757575756" type="curve" smooth="yes"/>
      <point x="198.20606060606062" y="614.9939393939394" type="line" smooth="yes"/>
      <point x="198.20606060606062" y="692.1"/>
      <point x="218.5818181818182" y="731.3303030303031"/>
      <point x="272.50000000000006" y="731.3303030303031" type="curve" smooth="yes"/>
      <point x="292.85454545454553" y="731.3303030303031" type="line"/>
      <point x="292.85454545454553" y="760.0" type="line"/>
      <point x="260.26666666666665" y="760.0" type="line" smooth="yes"/>
      <point x="191.96363636363637" y="760.0"/>
      <point x="156.54545454545456" y="709.5757575757576"/>
      <point x="156.54545454545456" y="620.1515151515151" type="curve" smooth="yes"/>
      <point x="156.54545454545456" y="444.57575757575756" type="line" smooth="yes"/>
      <point x="156.54545454545456" y="357.27272727272725"/>
      <point x="111.84242424242424" y="329.37272727272733"/>
      <point x="55.57272727272727" y="327.37272727272733" type="curve"/>
      <point x="55.57272727272727" y="303.47575757575754" type="line"/>
      <point x="121.76969696969698" y="299.92424242424244"/>
      <point x="156.54545454545456" y="264.75151515151515"/>
      <point x="156.54545454545456" y="185.6757575757576" type="curve" smooth="yes"/>
      <point x="156.54545454545456" y="9.696969696969697" type="line" smooth="yes"/>
      <point x="156.54545454545456" y="-76.32424242424241"/>
      <point x="191.96363636363637" y="-131.15151515151516"/>
    </contour>
  </outline>
</glyph>
<glyph name="bar" format="2">
  <advance width="466.6212121212121"/>
  <unicode hex="007C"/>
  <outline>
    <contour>
      <point x="216.63636363636365" y="-240.0" type="line"/>
      <point x="250.08787878787876" y="-240.0" type="line"/>
      <point x="250.08787878787876" y="760.0" type="line"/>
      <point x="216.63636363636365" y="760.0" type="line"/>
    </contour>
  </outline>
</glyph>
<glyph name="braceright" format="2">
  <advance width="347.9545454545455"/>
  <unicode hex="007D"/>
  <outline>
    <contour>
      <point x="55.57272727272727" y="-131.15151515151516" type="line"/>
      <point x="87.2060606060606" y="-131.15151515151516" type="line" smooth="yes"/>
      <point x="156.61212121212122" y="-131.15151515151516"/>
      <point x="191.88181818181818" y="-76.32424242424241"/>
      <point x="191.88181818181818" y="9.696969696969697" type="curve" smooth="yes"/>
      <point x="191.88181818181818" y="185.6757575757576" type="line" smooth="yes"/>
      <point x="191.88181818181818" y="264.75151515151515"/>
      <point x="226.95454545454544" y="299.92424242424244"/>
      <point x="292.85454545454553" y="303.47575757575754" type="curve"/>
      <point x="292.85454545454553" y="327.37272727272733" type="line"/>
      <point x="236.88181818181815" y="329.37272727272733"/>
      <point x="191.88181818181818" y="357.27272727272725"/>
      <point x="191.88181818181818" y="444.57575757575756" type="curve" smooth="yes"/>
      <point x="191.88181818181818" y="620.1515151515151" type="line" smooth="yes"/>
      <point x="191.88181818181818" y="709.5757575757576"/>
      <point x="156.61212121212122" y="760.0"/>
      <point x="88.30909090909091" y="760.0" type="curve" smooth="yes"/>
      <point x="55.57272727272727" y="760.0" type="line"/>
      <point x="55.57272727272727" y="731.3303030303031" type="line"/>
      <point x="76.07575757575758" y="731.3303030303031" type="line" smooth="yes"/>
      <point x="130.14242424242425" y="731.3303030303031"/>
      <point x="150.22121212121212" y="692.1"/>
      <point x="150.22121212121212" y="614.9939393939394" type="curve" smooth="yes"/>
      <point x="150.22121212121212" y="442.57575757575756" type="line" smooth="yes"/>
      <point x="150.22121212121212" y="373.4878787878788"/>
      <point x="178.07575757575756" y="328.9848484848485"/>
      <point x="231.3242424242424" y="317.2121212121212" type="curve"/>
      <point x="231.3242424242424" y="314.8727272727273" type="line"/>
      <point x="179.62121212121212" y="303.75454545454545"/>
      <point x="150.22121212121212" y="257.8969696969697"/>
      <point x="150.22121212121212" y="188.6757575757576" type="curve" smooth="yes"/>
      <point x="150.22121212121212" y="12.681818181818183" type="line" smooth="yes"/>
      <point x="150.22121212121212" y="-65.0090909090909"/>
      <point x="128.4878787878788" y="-102.48181818181818"/>
      <point x="77.25757575757576" y="-102.48181818181818" type="curve" smooth="yes"/>
      <point x="55.57272727272727" y="-102.48181818181818" type="line"/>
    </contour>
  </outline>
</glyph>
<glyph name="asciitilde" format="2">
  <advance width="465.2"/>
  <unicode hex="007E"/>
  <outline>
    <contour>
      <point x="48.93939393939394" y="275.45151515151514" type="curve"/>
      <point x="83.0969696969697" y="275.45151515151514" type="line"/>
      <point x="94.11515151515151" y="355.23636363636365"/>
      <point x="105.7151515151515" y="404.2666666666667"/>
      <point x="145.89090909090908" y="404.2666666666667" type="curve" smooth="yes"/>
      <point x="173.6727272727273" y="404.2666666666667"/>
      <point x="191.6878787878788" y="382.01818181818186"/>
      <point x="223.65151515151516" y="341.26969696969695" type="curve" smooth="yes"/>
      <point x="258.98484848484856" y="296.3212121212121"/>
      <point x="284.54545454545456" y="276.0030303030303"/>
      <point x="319.8818181818181" y="276.0030303030303" type="curve" smooth="yes"/>
      <point x="392.50303030303036" y="276.0030303030303"/>
      <point x="407.9939393939394" y="370.6272727272727"/>
      <point x="416.40606060606063" y="437.1454545454545" type="curve"/>
      <point x="381.8" y="437.1454545454545" type="line"/>
      <point x="371.03939393939396" y="362.3424242424243"/>
      <point x="359.8727272727272" y="309.4333333333333"/>
      <point x="319.50000000000006" y="309.4333333333333" type="curve" smooth="yes"/>
      <point x="295.069696969697" y="309.4333333333333"/>
      <point x="276.2878787878788" y="327.7181818181818"/>
      <point x="243.64848484848486" y="369.3333333333333" type="curve" smooth="yes"/>
      <point x="209.0757575757576" y="412.9030303030303"/>
      <point x="184.03333333333333" y="437.6969696969697"/>
      <point x="145.44545454545454" y="437.6969696969697" type="curve" smooth="yes"/>
      <point x="71.45757575757575" y="437.6969696969697"/>
      <point x="58.23333333333334" y="344.90303030303033"/>
    </contour>
  </outline>
</glyph>
<glyph name="twosuperior" format="2">
  <advance width="334.030303030303"/>
  <unicode hex="00B2"/>
  <outline>
    <contour>
      <point x="38.96666666666667" y="386.44848484848484" type="line"/>
      <point x="275.26363636363635" y="386.44848484848484" type="line"/>
      <point x="277.0121212121212" y="487.70000000000005" type="line"/>
      <point x="256.06060606060606" y="487.70000000000005" type="line"/>
      <point x="254.4242424242424" y="466.1484848484848" type="line"/>
      <point x="252.78787878787878" y="432.1818181818182"/>
      <point x="247.30606060606064" y="420.1848484848485"/>
      <point x="217.73939393939395" y="420.1848484848485" type="curve"/>
      <point x="85.07878787878788" y="420.1848484848485" type="line"/>
      <point x="183.66666666666666" y="545.3727272727273" type="line"/>
      <point x="229.14848484848483" y="599.8787878787879"/>
      <point x="264.2060606060606" y="644.6636363636364"/>
      <point x="264.2060606060606" y="713.5969696969697" type="curve" smooth="yes"/>
      <point x="264.2060606060606" y="784.9969696969697"/>
      <point x="222.39999999999998" y="823.7484848484848"/>
      <point x="156.03333333333333" y="823.7484848484848" type="curve" smooth="yes"/>
      <point x="88.94545454545455" y="823.7484848484848"/>
      <point x="50.28484848484848" y="780.6060606060606"/>
      <point x="50.28484848484848" y="741.9636363636364" type="curve" smooth="yes"/>
      <point x="50.28484848484848" y="719.8909090909091"/>
      <point x="63.824242424242435" y="709.2575757575759"/>
      <point x="82.27575757575758" y="709.2575757575759" type="curve"/>
      <point x="82.27575757575758" y="759.6212121212121"/>
      <point x="102.66363636363637" y="796.4575757575758"/>
      <point x="154.669696969697" y="796.4575757575758" type="curve" smooth="yes"/>
      <point x="206.0848484848485" y="796.4575757575758"/>
      <point x="226.32121212121214" y="762.5575757575758"/>
      <point x="226.32121212121214" y="712.0636363636364" type="curve" smooth="yes"/>
      <point x="226.32121212121214" y="649.1757575757575"/>
      <point x="195.34848484848487" y="602.5090909090909"/>
      <point x="153.16060606060606" y="550.2363636363636" type="curve" smooth="yes"/>
      <point x="38.96666666666667" y="406.0878787878788" type="line"/>
    </contour>
  </outline>
</glyph>
<glyph name="threesuperior" format="2">
  <advance width="334.030303030303"/>
  <unicode hex="00B3"/>
  <outline>
    <contour>
      <point x="150.8121212121212" y="378.8969696969697" type="curve" smooth="yes"/>
      <point x="225.8909090909091" y="378.8969696969697"/>
      <point x="282.3818181818182" y="419.5969696969697"/>
      <point x="282.3818181818182" y="506.2212121212121" type="curve" smooth="yes"/>
      <point x="282.3818181818182" y="578.3545454545454"/>
      <point x="236.30909090909097" y="602.5969696969697"/>
      <point x="190.3181818181818" y="611.1333333333333" type="curve"/>
      <point x="190.3181818181818" y="613.1575757575758" type="line"/>
      <point x="231.09696969696972" y="625.7"/>
      <point x="268.1818181818182" y="661.1181818181817"/>
      <point x="268.1818181818182" y="721.9454545454546" type="curve" smooth="yes"/>
      <point x="268.1818181818182" y="784.4181818181818"/>
      <point x="229.33636363636361" y="822.1969696969696"/>
      <point x="154.26060606060608" y="822.1969696969696" type="curve" smooth="yes"/>
      <point x="89.15151515151516" y="822.1969696969696"/>
      <point x="43.35151515151515" y="781.9181818181818"/>
      <point x="43.35151515151515" y="737.5757575757576" type="curve" smooth="yes"/>
      <point x="43.35151515151515" y="710.0151515151515"/>
      <point x="57.172727272727265" y="699.1272727272727"/>
      <point x="72.97575757575757" y="699.1272727272727" type="curve"/>
      <point x="72.97575757575757" y="755.3151515151515"/>
      <point x="94.86666666666666" y="794.9060606060607"/>
      <point x="153.85151515151514" y="794.9060606060607" type="curve" smooth="yes"/>
      <point x="204.65757575757576" y="794.9060606060607"/>
      <point x="230.08484848484846" y="770.4242424242425"/>
      <point x="230.08484848484846" y="717.6363636363636" type="curve" smooth="yes"/>
      <point x="230.08484848484846" y="662.439393939394"/>
      <point x="194.75757575757575" y="623.7939393939395"/>
      <point x="137.00909090909093" y="623.7939393939395" type="curve" smooth="yes"/>
      <point x="106.49393939393939" y="623.7939393939395" type="line"/>
      <point x="106.49393939393939" y="596.1424242424243" type="line"/>
      <point x="133.08787878787882" y="596.1424242424243" type="line" smooth="yes"/>
      <point x="207.86060606060605" y="596.1424242424243"/>
      <point x="243.9878787878788" y="565.1272727272727"/>
      <point x="243.9878787878788" y="505.8818181818182" type="curve" smooth="yes"/>
      <point x="243.9878787878788" y="436.669696969697"/>
      <point x="205.46969696969697" y="407.1"/>
      <point x="151.6030303030303" y="407.1" type="curve" smooth="yes"/>
      <point x="84.9" y="407.1"/>
      <point x="65.03939393939395" y="447.0818181818182"/>
      <point x="65.03939393939395" y="501.57272727272726" type="curve"/>
      <point x="48.76969696969697" y="501.57272727272726"/>
      <point x="36.906060606060606" y="490.1060606060606"/>
      <point x="36.906060606060606" y="462.94545454545454" type="curve" smooth="yes"/>
      <point x="36.906060606060606" y="420.6424242424242"/>
      <point x="75.72424242424242" y="378.8969696969697"/>
    </contour>
  </outline>
</glyph>
<glyph name="multiply" format="2">
  <advance width="465.2"/>
  <unicode hex="00D7"/>
  <outline>
    <contour>
      <point x="82.43030303030304" y="148.4939393939394" type="line"/>
      <point x="236.4060606060606" y="333.90303030303033" type="line"/>
      <point x="390.38181818181823" y="148.4939393939394" type="line"/>
      <point x="416.8515151515152" y="170.7818181818182" type="line"/>
      <point x="259.0787878787879" y="360.5212121212121" type="line"/>
      <point x="416.8515151515152" y="551.4515151515152" type="line"/>
      <point x="391.169696969697" y="573.4878787878788" type="line"/>
      <point x="236.4060606060606" y="387.839393939394" type="line"/>
      <point x="82.02727272727273" y="573.3363636363636" type="line"/>
      <point x="56.1969696969697" y="551.3636363636364" type="line"/>
      <point x="214.11818181818182" y="360.5848484848485" type="line"/>
      <point x="56.43333333333334" y="170.93333333333334" type="line"/>
    </contour>
  </outline>
</glyph>
<glyph name="divide" format="2">
  <advance width="465.2"/>
  <unicode hex="00F7"/>
  <outline>
    <contour>
      <point x="53.46060606060606" y="340.5181818181818" type="line"/>
      <point x="411.73939393939395" y="340.5181818181818" type="line"/>
      <point x="411.73939393939395" y="374.7969696969697" type="line"/>
      <point x="53.46060606060606" y="374.7969696969697" type="line"/>
    </contour>
    <contour>
      <point x="233.1" y="130.95454545454547" type="curve" smooth="yes"/>
      <point x="253.0212121212121" y="130.95454545454547"/>
      <point x="268.41515151515154" y="140.93636363636364"/>
      <point x="268.41515151515154" y="172.25454545454545" type="curve" smooth="yes"/>
      <point x="268.41515151515154" y="205.36060606060607"/>
      <point x="253.0212121212121" y="214.8939393939394"/>
      <point x="233.1" y="214.8939393939394" type="curve" smooth="yes"/>
      <point x="212.1787878787879" y="214.8939393939394"/>
      <point x="198.1878787878788" y="205.36060606060607"/>
      <point x="198.1878787878788" y="172.25454545454545" type="curve" smooth="yes"/>
      <point x="198.1878787878788" y="140.93636363636364"/>
      <point x="212.1787878787879" y="130.95454545454547"/>
    </contour>
    <contour>
      <point x="233.1" y="502.31212121212116" type="curve" smooth="yes"/>
      <point x="253.0212121212121" y="502.31212121212116"/>
      <point x="268.41515151515154" y="512.2939393939394"/>
      <point x="268.41515151515154" y="543.8484848484849" type="curve" smooth="yes"/>
      <point x="268.41515151515154" y="576.7181818181818"/>
      <point x="253.0212121212121" y="586.2515151515152"/>
      <point x="233.1" y="586.2515151515152" type="curve" smooth="yes"/>
      <point x="212.1787878787879" y="586.2515151515152"/>
      <point x="198.1878787878788" y="576.7181818181818"/>
      <point x="198.1878787878788" y="543.8484848484849" type="curve" smooth="yes"/>
      <point x="198.1878787878788" y="512.2939393939394"/>
      <point x="212.1787878787879" y="502.31212121212116"/>
    </contour>
  </outline>
</glyph>
<glyph name="udatta-deva" format="2">
  <unicode hex="0951"/>
  <anchor x="0.0" y="544.5454545454545" name="_vedic"/>
  <outline>
    <contour>
      <point x="-15.672727272727274" y="906.0454545454545" type="line"/>
      <point x="15.672727272727274" y="906.0454545454545" type="line"/>
      <point x="15.672727272727274" y="1092.378787878788" type="line"/>
      <point x="-15.672727272727274" y="1092.378787878788" type="line"/>
    </contour>
  </outline>
</glyph>
<glyph name="anudatta-deva" format="2">
  <unicode hex="0952"/>
  <anchor x="0.0" y="0.0" name="_bottom"/>
  <outline>
    <contour>
      <point x="-186.7151515151515" y="-466.7757575757576" type="line"/>
      <point x="186.7151515151515" y="-466.7757575757576" type="line"/>
      <point x="186.7151515151515" y="-433.6545454545455" type="line"/>
      <point x="-186.7151515151515" y="-433.6545454545455" type="line"/>
    </contour>
  </outline>
</glyph>
<glyph name="danda-deva" format="2">
  <advance width="259.44545454545454"/>
  <unicode hex="0964"/>
  <outline>
    <contour>
      <point x="108.31818181818181" y="0.0" type="line"/>
      <point x="150.57575757575756" y="0.0" type="line"/>
      <point x="150.57575757575756" y="544.5454545454545" type="line"/>
      <point x="108.31818181818181" y="544.5454545454545" type="line"/>
    </contour>
  </outline>
</glyph>
<glyph name="dbldanda-deva" format="2">
  <advance width="465.53939393939396"/>
  <unicode hex="0965"/>
  <outline>
    <contour>
      <point x="314.9636363636364" y="0.0" type="line"/>
      <point x="356.669696969697" y="0.0" type="line"/>
      <point x="356.669696969697" y="544.5454545454545" type="line"/>
      <point x="314.9636363636364" y="544.5454545454545" type="line"/>
    </contour>
    <contour>
      <point x="108.31818181818181" y="0.0" type="line"/>
      <point x="150.57575757575756" y="0.0" type="line"/>
      <point x="150.57575757575756" y="544.5454545454545" type="line"/>
      <point x="108.31818181818181" y="544.5454545454545" type="line"/>
    </contour>
  </outline>
</glyph>
<glyph name="anusvara-tamil" format="2">
  <unicode hex="0B82"/>
  <note>
uni0B82
</note>
  <anchor x="0.0" y="544.5454545454545" name="_top"/>
  <outline>
    <contour>
      <point x="0.0" y="646.3939393939394" type="curve" smooth="yes"/>
      <point x="55.27878787878788" y="646.3939393939394"/>
      <point x="93.57878787878789" y="686.2727272727273"/>
      <point x="93.57878787878789" y="740.1242424242424" type="curve" smooth="yes"/>
      <point x="93.57878787878789" y="793.6545454545454"/>
      <point x="55.27878787878788" y="834.2333333333333"/>
      <point x="0.0" y="834.2333333333333" type="curve" smooth="yes"/>
      <point x="-55.27878787878788" y="834.2333333333333"/>
      <point x="-93.57878787878789" y="793.6545454545454"/>
      <point x="-93.57878787878789" y="740.1242424242424" type="curve" smooth="yes"/>
      <point x="-93.57878787878789" y="686.2727272727273"/>
      <point x="-55.27878787878788" y="646.3939393939394"/>
    </contour>
    <contour>
      <point x="0.0" y="677.3090909090909" type="curve" smooth="yes"/>
      <point x="-35.90909090909091" y="677.3090909090909"/>
      <point x="-60.4060606060606" y="704.0030303030304"/>
      <point x="-60.4060606060606" y="740.1242424242424" type="curve" smooth="yes"/>
      <point x="-60.4060606060606" y="776.0727272727273"/>
      <point x="-35.90909090909091" y="803.3181818181818"/>
      <point x="0.0" y="803.3181818181818" type="curve" smooth="yes"/>
      <point x="35.90909090909091" y="803.3181818181818"/>
      <point x="60.4060606060606" y="776.0727272727273"/>
      <point x="60.4060606060606" y="740.1242424242424" type="curve" smooth="yes"/>
      <point x="60.4060606060606" y="704.0030303030304"/>
      <point x="35.90909090909091" y="677.3090909090909"/>
    </contour>
  </outline>
</glyph>
<glyph name="visarga-tamil" format="2">
  <advance width="715.660606060606"/>
  <unicode hex="0B83"/>
  <note>
uni0B83
</note>
  <outline>
    <contour>
      <point x="528.9636363636364" y="0.0" type="curve" smooth="yes"/>
      <point x="607.1060606060606" y="0.0"/>
      <point x="656.7575757575758" y="76.57575757575758"/>
      <point x="656.7575757575758" y="181.84848484848484" type="curve" smooth="yes"/>
      <point x="656.7575757575758" y="285.3333333333333"/>
      <point x="611.6666666666666" y="363.4848484848485"/>
      <point x="530.3727272727273" y="363.4848484848485" type="curve" smooth="yes"/>
      <point x="445.0484848484848" y="363.4848484848485"/>
      <point x="405.1242424242424" y="280.6060606060606"/>
      <point x="405.1242424242424" y="181.84848484848484" type="curve" smooth="yes"/>
      <point x="405.1242424242424" y="79.72727272727272"/>
      <point x="444.9" y="0.0"/>
    </contour>
    <contour>
      <point x="182.04242424242426" y="0.0" type="curve" smooth="yes"/>
      <point x="260.73636363636365" y="0.0"/>
      <point x="309.83636363636367" y="76.57575757575758"/>
      <point x="309.83636363636367" y="181.84848484848484" type="curve" smooth="yes"/>
      <point x="309.83636363636367" y="285.3333333333333"/>
      <point x="264.7454545454546" y="363.4848484848485"/>
      <point x="184.0030303030303" y="363.4848484848485" type="curve" smooth="yes"/>
      <point x="98.27575757575758" y="363.4848484848485"/>
      <point x="58.730303030303034" y="280.6060606060606"/>
      <point x="58.730303030303034" y="181.84848484848484" type="curve" smooth="yes"/>
      <point x="58.730303030303034" y="79.72727272727272"/>
      <point x="98.12727272727273" y="0.0"/>
    </contour>
    <contour>
      <point x="357.06060606060606" y="405.6969696969697" type="curve" smooth="yes"/>
      <point x="435.7545454545454" y="405.6969696969697"/>
      <point x="484.8545454545454" y="481.27272727272725"/>
      <point x="484.8545454545454" y="587.3333333333334" type="curve" smooth="yes"/>
      <point x="484.8545454545454" y="691.030303030303"/>
      <point x="439.7636363636363" y="768.969696969697"/>
      <point x="358.46969696969694" y="768.969696969697" type="curve" smooth="yes"/>
      <point x="273.2939393939394" y="768.969696969697"/>
      <point x="233.36969696969697" y="686.3030303030303"/>
      <point x="233.36969696969697" y="587.3333333333334" type="curve" smooth="yes"/>
      <point x="233.36969696969697" y="485.2121212121212"/>
      <point x="273.1454545454545" y="405.6969696969697"/>
    </contour>
    <contour>
      <point x="177.53636363636363" y="31.472727272727273" type="curve" smooth="yes"/>
      <point x="115.0" y="31.472727272727273"/>
      <point x="88.93333333333334" y="97.71818181818182"/>
      <point x="88.93333333333334" y="181.84848484848484" type="curve" smooth="yes"/>
      <point x="88.93333333333334" y="264.0424242424242"/>
      <point x="116.02424242424244" y="332.6515151515151"/>
      <point x="179.34848484848487" y="332.6515151515151" type="curve" smooth="yes"/>
      <point x="244.46060606060607" y="332.6515151515151"/>
      <point x="273.630303030303" y="268.0393939393939"/>
      <point x="273.630303030303" y="181.84848484848484" type="curve" smooth="yes"/>
      <point x="273.630303030303" y="92.23030303030303"/>
      <point x="240.60000000000002" y="31.472727272727273"/>
    </contour>
    <contour>
      <point x="352.5545454545454" y="437.1060606060606" type="curve" smooth="yes"/>
      <point x="290.25454545454545" y="437.1060606060606"/>
      <point x="263.95151515151514" y="503.3515151515152"/>
      <point x="263.95151515151514" y="587.3333333333334" type="curve" smooth="yes"/>
      <point x="263.95151515151514" y="669.6757575757575"/>
      <point x="291.04242424242426" y="738.2848484848486"/>
      <point x="354.6030303030303" y="738.2848484848486" type="curve" smooth="yes"/>
      <point x="419.4787878787879" y="738.2848484848486"/>
      <point x="448.5848484848485" y="673.5878787878788"/>
      <point x="448.5848484848485" y="587.3333333333334" type="curve" smooth="yes"/>
      <point x="448.5848484848485" y="497.92727272727274"/>
      <point x="415.6181818181818" y="437.1060606060606"/>
    </contour>
    <contour>
      <point x="524.4575757575758" y="31.472727272727273" type="curve" smooth="yes"/>
      <point x="462.1575757575758" y="31.472727272727273"/>
      <point x="435.70606060606065" y="97.71818181818182"/>
      <point x="435.70606060606065" y="181.84848484848484" type="curve" smooth="yes"/>
      <point x="435.70606060606065" y="264.0424242424242"/>
      <point x="462.94545454545454" y="332.6515151515151"/>
      <point x="526.5060606060606" y="332.6515151515151" type="curve" smooth="yes"/>
      <point x="591.3818181818182" y="332.6515151515151"/>
      <point x="620.5515151515152" y="268.0393939393939"/>
      <point x="620.5515151515152" y="181.84848484848484" type="curve" smooth="yes"/>
      <point x="620.5515151515152" y="92.23030303030303"/>
      <point x="587.5212121212121" y="31.472727272727273"/>
    </contour>
  </outline>
</glyph>
<glyph name="a-tamil" format="2">
  <advance width="1050.1"/>
  <unicode hex="0B85"/>
  <note>
uni0B85
</note>
  <anchor x="507.6242424242423" y="0.0" name="bottom"/>
  <anchor x="361.67575757575764" y="-89.69696969696969" name="nukta"/>
  <anchor x="513.5121212121212" y="544.5454545454545" name="top"/>
  <anchor x="514.3606060606061" y="544.5454545454545" name="vedic"/>
  <outline>
    <contour>
      <point x="908.5242424242423" y="-153.9909090909091" type="line"/>
      <point x="950.7818181818182" y="-153.9909090909091" type="line"/>
      <point x="950.7818181818182" y="544.5454545454545" type="line"/>
      <point x="908.5242424242423" y="544.5454545454545" type="line"/>
      <point x="908.5242424242423" y="164.3030303030303" type="line"/>
      <point x="95.32121212121213" y="164.3030303030303" type="line" smooth="yes"/>
      <point x="57.693939393939395" y="164.3030303030303"/>
      <point x="38.336363636363636" y="143.15757575757576"/>
      <point x="38.336363636363636" y="104.9090909090909" type="curve" smooth="yes"/>
      <point x="38.336363636363636" y="25.272727272727273"/>
      <point x="157.36666666666667" y="-89.69696969696969"/>
      <point x="361.67575757575764" y="-89.69696969696969" type="curve" smooth="yes"/>
      <point x="570.4878787878788" y="-89.69696969696969"/>
      <point x="755.660606060606" y="18.496969696969693"/>
      <point x="755.660606060606" y="265.6" type="curve" smooth="yes"/>
      <point x="755.660606060606" y="447.75151515151515"/>
      <point x="651.6969696969696" y="552.6969696969697"/>
      <point x="510.28787878787875" y="552.6969696969697" type="curve" smooth="yes"/>
      <point x="393.0363636363637" y="552.6969696969697"/>
      <point x="332.3363636363636" y="472.75757575757575"/>
      <point x="332.3363636363636" y="392.09090909090907" type="curve" smooth="yes"/>
      <point x="332.3363636363636" y="314.01212121212126"/>
      <point x="372.8636363636364" y="261.969696969697"/>
      <point x="440.1515151515152" y="261.969696969697" type="curve" smooth="yes"/>
      <point x="505.9424242424243" y="261.969696969697"/>
      <point x="553.3909090909091" y="308.21212121212125"/>
      <point x="553.3909090909091" y="388.030303030303" type="curve" smooth="yes"/>
      <point x="553.3909090909091" y="455.1515151515151"/>
      <point x="513.2969696969697" y="508.27272727272725"/>
      <point x="469.34545454545446" y="532.1575757575757" type="curve"/>
      <point x="438.7909090909091" y="527.030303030303" type="line"/>
      <point x="487.3030303030303" y="494.4848484848485"/>
      <point x="514.5515151515151" y="445.3030303030303"/>
      <point x="514.5515151515151" y="389.93939393939394" type="curve" smooth="yes"/>
      <point x="514.5515151515151" y="331.0909090909091"/>
      <point x="485.6454545454545" y="293.1212121212121"/>
      <point x="435.8" y="293.1212121212121" type="curve" smooth="yes"/>
      <point x="393.27878787878785" y="293.1212121212121"/>
      <point x="364.57878787878786" y="329.26060606060605"/>
      <point x="364.57878787878786" y="389.8787878787879" type="curve" smooth="yes"/>
      <point x="364.57878787878786" y="459.5818181818182"/>
      <point x="411.4151515151516" y="522.3333333333334"/>
      <point x="504.73939393939395" y="522.3333333333334" type="curve" smooth="yes"/>
      <point x="620.5575757575757" y="522.3333333333334"/>
      <point x="713.2515151515152" y="430.8484848484849"/>
      <point x="713.2515151515152" y="266.38787878787883" type="curve" smooth="yes"/>
      <point x="713.2515151515152" y="39.272727272727266"/>
      <point x="541.0969696969697" y="-57.75757575757575"/>
      <point x="358.5787878787879" y="-57.75757575757575" type="curve" smooth="yes"/>
      <point x="184.41212121212124" y="-57.75757575757575"/>
      <point x="71.2939393939394" y="37.9030303030303"/>
      <point x="71.2939393939394" y="107.7030303030303" type="curve" smooth="yes"/>
      <point x="71.2939393939394" y="122.12727272727273"/>
      <point x="79.87878787878788" y="134.72727272727272"/>
      <point x="100.25454545454545" y="134.72727272727272" type="curve" smooth="yes"/>
      <point x="908.5242424242423" y="134.72727272727272" type="line"/>
    </contour>
  </outline>
</glyph>
<glyph name="aa-tamil" format="2">
  <advance width="1139.5"/>
  <unicode hex="0B86"/>
  <note>
uni0B86
</note>
  <anchor x="560.1666666666666" y="0.0" name="bottom"/>
  <anchor x="361.67575757575764" y="-89.69696969696969" name="nukta"/>
  <anchor x="565.8818181818182" y="544.5454545454545" name="top"/>
  <anchor x="566.2030303030303" y="544.5454545454545" name="vedic"/>
  <outline>
    <contour>
      <point x="804.3424242424242" y="-394.53939393939396" type="curve" smooth="yes"/>
      <point x="948.6030303030302" y="-394.53939393939396"/>
      <point x="1115.8727272727274" y="-287.3181818181818"/>
      <point x="1115.8727272727274" y="-105.76060606060607" type="curve" smooth="yes"/>
      <point x="1115.8727272727274" y="-30.80909090909091"/>
      <point x="1081.2606060606063" y="10.333333333333336"/>
      <point x="1028.5666666666668" y="10.333333333333336" type="curve" smooth="yes"/>
      <point x="969.9" y="10.333333333333336"/>
      <point x="938.8848484848485" y="-35.75757575757576"/>
      <point x="932.1818181818181" y="-111.54242424242425" type="curve"/>
      <point x="947.8878787878787" y="-121.37272727272727" type="line"/>
      <point x="949.5515151515152" y="-61.46666666666667"/>
      <point x="977.7030303030302" y="-27.37878787878788"/>
      <point x="1015.7636363636364" y="-27.37878787878788" type="curve" smooth="yes"/>
      <point x="1051.3181818181818" y="-27.37878787878788"/>
      <point x="1074.3363636363636" y="-53.23333333333333"/>
      <point x="1074.3363636363636" y="-108.77878787878787" type="curve" smooth="yes"/>
      <point x="1074.1878787878788" y="-269.8181818181818"/>
      <point x="922.6696969696969" y="-361.26060606060605"/>
      <point x="800.6272727272728" y="-361.26060606060605" type="curve" smooth="yes"/>
      <point x="728.6848484848485" y="-361.26060606060605"/>
      <point x="670.7515151515152" y="-334.4090909090909"/>
      <point x="670.7515151515152" y="-264.90909090909093" type="curve" smooth="yes"/>
      <point x="670.7515151515152" y="-219.54545454545453"/>
      <point x="696.5545454545455" y="-187.3181818181818"/>
      <point x="748.039393939394" y="-169.20000000000002" type="curve"/>
      <point x="737.6484848484849" y="-138.57575757575756" type="line"/>
      <point x="671.2484848484847" y="-162.34545454545454"/>
      <point x="636.6636363636364" y="-204.29999999999998"/>
      <point x="636.6636363636364" y="-262.8242424242424" type="curve" smooth="yes"/>
      <point x="636.6636363636364" y="-349.73333333333335"/>
      <point x="705.5575757575758" y="-394.53939393939396"/>
    </contour>
    <component base="a-tamil"/>
  </outline>
</glyph>
<glyph name="i-tamil" format="2">
  <advance width="801.8848484848486"/>
  <unicode hex="0B87"/>
  <note>
uni0B87
</note>
  <anchor x="391.0212121212121" y="0.0" name="bottom"/>
  <anchor x="389.0212121212121" y="-249.44242424242427" name="nukta"/>
  <anchor x="398.2181818181818" y="786.1878787878788" name="top"/>
  <anchor x="397.0212121212121" y="544.5454545454545" name="vedic"/>
  <outline>
    <contour>
      <point x="190.6878787878788" y="-282.030303030303" type="curve" smooth="yes"/>
      <point x="411.66969696969693" y="-282.030303030303"/>
      <point x="598.2333333333333" y="-5.484848484848484"/>
      <point x="598.2333333333333" y="261.06060606060606" type="curve" smooth="yes"/>
      <point x="598.2333333333333" y="442.8787878787879"/>
      <point x="520.1060606060606" y="552.6969696969697"/>
      <point x="386.79090909090905" y="552.6969696969697" type="curve" smooth="yes"/>
      <point x="282.1545454545454" y="552.6969696969697"/>
      <point x="218.63333333333335" y="479.46060606060604"/>
      <point x="218.63333333333335" y="391.45454545454544" type="curve" smooth="yes"/>
      <point x="218.63333333333335" y="311.9757575757576"/>
      <point x="259.8606060606061" y="262.1818181818182"/>
      <point x="324.0939393939394" y="262.1818181818182" type="curve" smooth="yes"/>
      <point x="390.8818181818182" y="262.1818181818182"/>
      <point x="434.42121212121214" y="309.73939393939395"/>
      <point x="434.42121212121214" y="387.3939393939394" type="curve" smooth="yes"/>
      <point x="434.42121212121214" y="451.75757575757575"/>
      <point x="399.7818181818182" y="505.3030303030303"/>
      <point x="349.25151515151515" y="531.1818181818181" type="curve"/>
      <point x="319.5030303030303" y="526.1818181818181" type="line"/>
      <point x="369.75454545454545" y="493.8484848484849"/>
      <point x="396.03030303030306" y="445.5151515151515"/>
      <point x="396.03030303030306" y="389.5151515151515" type="curve" smooth="yes"/>
      <point x="396.03030303030306" y="333.6363636363636"/>
      <point x="370.94545454545454" y="293.03636363636366"/>
      <point x="320.5696969696969" y="293.03636363636366" type="curve" smooth="yes"/>
      <point x="276.53939393939396" y="293.03636363636366"/>
      <point x="250.87575757575758" y="331.6363636363636"/>
      <point x="250.87575757575758" y="389.45454545454544" type="curve" smooth="yes"/>
      <point x="250.87575757575758" y="461.57575757575756"/>
      <point x="295.5484848484848" y="522.3333333333334"/>
      <point x="379.8" y="522.3333333333334" type="curve" smooth="yes"/>
      <point x="492.0393939393939" y="522.3333333333334"/>
      <point x="556.060606060606" y="425.8484848484849"/>
      <point x="556.060606060606" y="266.72727272727275" type="curve" smooth="yes"/>
      <point x="556.060606060606" y="18.909090909090907"/>
      <point x="398.05151515151516" y="-250.0909090909091"/>
      <point x="197.15151515151516" y="-250.0909090909091" type="curve" smooth="yes"/>
      <point x="126.95757575757575" y="-250.0909090909091"/>
      <point x="86.33939393939394" y="-216.12121212121212"/>
      <point x="86.33939393939394" y="-145.77575757575758" type="curve" smooth="yes"/>
      <point x="86.33939393939394" y="-13.581818181818182"/>
      <point x="235.44242424242424" y="75.12121212121212"/>
      <point x="389.1030303030303" y="75.12121212121212" type="curve" smooth="yes"/>
      <point x="538.5606060606061" y="75.12121212121212"/>
      <point x="693.5787878787879" y="-13.54848484848485"/>
      <point x="693.5787878787879" y="-144.01515151515153" type="curve" smooth="yes"/>
      <point x="693.5787878787879" y="-219.1848484848485"/>
      <point x="646.6909090909091" y="-250.0909090909091"/>
      <point x="579.4484848484849" y="-250.0909090909091" type="curve" smooth="yes"/>
      <point x="390.97575757575754" y="-250.0909090909091"/>
      <point x="102.87878787878786" y="74.93030303030302"/>
      <point x="102.87878787878786" y="388.08787878787876" type="curve" smooth="yes"/>
      <point x="102.87878787878786" y="617.8272727272728"/>
      <point x="207.87575757575758" y="742.8212121212122"/>
      <point x="397.5969696969697" y="742.8212121212122" type="curve" smooth="yes"/>
      <point x="595.7242424242424" y="742.8212121212122"/>
      <point x="709.6090909090908" y="602.3484848484849"/>
      <point x="709.6090909090908" y="358.6424242424243" type="curve" smooth="yes"/>
      <point x="709.6090909090908" y="103.33333333333333" type="line"/>
      <point x="741.7151515151515" y="103.33333333333333" type="line"/>
      <point x="741.7151515151515" y="358.6424242424243" type="line" smooth="yes"/>
      <point x="741.7151515151515" y="640.7121212121212"/>
      <point x="614.8787878787879" y="786.1878787878788"/>
      <point x="398.2181818181818" y="786.1878787878788" type="curve" smooth="yes"/>
      <point x="183.60303030303032" y="786.1878787878788"/>
      <point x="67.45454545454544" y="634.6121212121212"/>
      <point x="67.45454545454544" y="399.23939393939395" type="curve" smooth="yes"/>
      <point x="67.45454545454544" y="68.72424242424243"/>
      <point x="368.6333333333333" y="-282.030303030303"/>
      <point x="589.8181818181818" y="-282.030303030303" type="curve" smooth="yes"/>
      <point x="667.730303030303" y="-282.030303030303"/>
      <point x="728.9242424242425" y="-242.15454545454548"/>
      <point x="728.9242424242425" y="-149.1121212121212" type="curve" smooth="yes"/>
      <point x="728.9242424242425" y="6.506060606060607"/>
      <point x="561.9636363636364" y="106.06060606060606"/>
      <point x="389.1030303030303" y="106.06060606060606" type="curve" smooth="yes"/>
      <point x="212.53636363636366" y="106.06060606060606"/>
      <point x="51.26969696969697" y="4.424242424242424"/>
      <point x="51.26969696969697" y="-146.47575757575757" type="curve" smooth="yes"/>
      <point x="51.26969696969697" y="-234.7909090909091"/>
      <point x="107.93030303030304" y="-282.030303030303"/>
    </contour>
  </outline>
</glyph>
<glyph name="ii-tamil" format="2">
  <advance width="620.4242424242425"/>
  <unicode hex="0B88"/>
  <note>
uni0B88
</note>
  <anchor x="329.3333333333333" y="0.0" name="bottom"/>
  <anchor x="329.7181818181818" y="0.0" name="nukta"/>
  <anchor x="332.6727272727273" y="544.5454545454545" name="top"/>
  <anchor x="332.26969696969695" y="544.5454545454545" name="vedic"/>
  <outline>
    <contour>
      <point x="99.78484848484848" y="0.0" type="line"/>
      <point x="132.31818181818184" y="0.0" type="line"/>
      <point x="132.31818181818184" y="514.969696969697" type="line"/>
      <point x="372.29393939393935" y="514.969696969697" type="line"/>
      <point x="372.29393939393935" y="0.0" type="line"/>
      <point x="415.1030303030303" y="0.0" type="line"/>
      <point x="415.1030303030303" y="514.969696969697" type="line"/>
      <point x="578.2363636363636" y="514.969696969697" type="line"/>
      <point x="578.2363636363636" y="544.5454545454545" type="line"/>
      <point x="99.78484848484848" y="544.5454545454545" type="line"/>
    </contour>
    <contour>
      <point x="250.8181818181818" y="226.25757575757575" type="curve" smooth="yes"/>
      <point x="270.90000000000003" y="226.25757575757575"/>
      <point x="286.4090909090909" y="242.6151515151515"/>
      <point x="286.4090909090909" y="261.78484848484845" type="curve" smooth="yes"/>
      <point x="286.4090909090909" y="281.2060606060606"/>
      <point x="270.90000000000003" y="297.6515151515151"/>
      <point x="250.8181818181818" y="297.6515151515151" type="curve" smooth="yes"/>
      <point x="229.79999999999998" y="297.6515151515151"/>
      <point x="213.50303030303027" y="281.2060606060606"/>
      <point x="213.50303030303027" y="261.78484848484845" type="curve" smooth="yes"/>
      <point x="213.50303030303027" y="242.6151515151515"/>
      <point x="229.79999999999998" y="226.25757575757575"/>
    </contour>
    <contour>
      <point x="534.7848484848485" y="226.25757575757575" type="curve" smooth="yes"/>
      <point x="555.1666666666667" y="226.25757575757575"/>
      <point x="570.6121212121212" y="242.6151515151515"/>
      <point x="570.6121212121212" y="261.78484848484845" type="curve" smooth="yes"/>
      <point x="570.6121212121212" y="281.2060606060606"/>
      <point x="555.1666666666667" y="297.6515151515151"/>
      <point x="534.7848484848485" y="297.6515151515151" type="curve" smooth="yes"/>
      <point x="513.7666666666667" y="297.6515151515151"/>
      <point x="497.76969696969707" y="281.2060606060606"/>
      <point x="497.76969696969707" y="261.78484848484845" type="curve" smooth="yes"/>
      <point x="497.76969696969707" y="242.6151515151515"/>
      <point x="513.7666666666667" y="226.25757575757575"/>
    </contour>
  </outline>
</glyph>
<glyph name="u-tamil" format="2">
  <advance width="848.7212121212123"/>
  <unicode hex="0B89"/>
  <note>
uni0B89
</note>
  <anchor x="442.81818181818187" y="0.0" name="bottom"/>
  <anchor x="442.96666666666675" y="0.0" name="nukta"/>
  <anchor x="445.1151515151516" y="544.5454545454545" name="top"/>
  <anchor x="445.26666666666677" y="544.5454545454545" name="vedic"/>
  <outline>
    <contour>
      <point x="136.87575757575758" y="0.0" type="curve" smooth="yes"/>
      <point x="824.7545454545453" y="0.0" type="line"/>
      <point x="824.7545454545453" y="29.575757575757578" type="line"/>
      <point x="135.38484848484848" y="29.575757575757578" type="line" smooth="yes"/>
      <point x="105.44545454545454" y="29.575757575757578"/>
      <point x="81.65151515151514" y="53.24242424242424"/>
      <point x="81.65151515151514" y="87.6969696969697" type="curve" smooth="yes"/>
      <point x="81.65151515151514" y="123.15151515151516"/>
      <point x="104.65757575757576" y="143.66666666666666"/>
      <point x="135.38484848484848" y="143.66666666666666" type="curve" smooth="yes"/>
      <point x="329.54545454545456" y="143.66666666666666" type="line" smooth="yes"/>
      <point x="446.7" y="143.66666666666666"/>
      <point x="526.3151515151515" y="209.21818181818182"/>
      <point x="526.3151515151515" y="338.3636363636364" type="curve" smooth="yes"/>
      <point x="526.3151515151515" y="473.1212121212121"/>
      <point x="437.50303030303036" y="552.6969696969697"/>
      <point x="306.1242424242425" y="552.6969696969697" type="curve" smooth="yes"/>
      <point x="195.95757575757577" y="552.6969696969697"/>
      <point x="127.06969696969699" y="474.8575757575757"/>
      <point x="127.06969696969699" y="391.64545454545447" type="curve" smooth="yes"/>
      <point x="127.06969696969699" y="315.07272727272726"/>
      <point x="165.6909090909091" y="261.969696969697"/>
      <point x="233.63333333333333" y="261.969696969697" type="curve" smooth="yes"/>
      <point x="300.08181818181816" y="261.969696969697"/>
      <point x="346.72424242424245" y="310.3757575757576"/>
      <point x="346.72424242424245" y="387.5848484848484" type="curve" smooth="yes"/>
      <point x="346.72424242424245" y="454.5575757575757"/>
      <point x="307.05757575757576" y="507.9757575757576"/>
      <point x="262.6151515151515" y="531.6060606060606" type="curve"/>
      <point x="231.97575757575754" y="527.030303030303" type="line"/>
      <point x="281.23030303030305" y="494.4848484848485"/>
      <point x="307.8848484848485" y="444.8575757575757"/>
      <point x="307.8848484848485" y="389.49393939393934" type="curve" smooth="yes"/>
      <point x="307.8848484848485" y="333.25454545454545"/>
      <point x="280.7636363636364" y="293.1212121212121"/>
      <point x="229.3242424242424" y="293.1212121212121" type="curve" smooth="yes"/>
      <point x="185.99696969696973" y="293.1212121212121"/>
      <point x="158.69696969696972" y="329.9181818181818"/>
      <point x="158.69696969696972" y="389.4333333333333" type="curve" smooth="yes"/>
      <point x="158.69696969696972" y="461.3424242424242"/>
      <point x="214.01818181818183" y="522.3333333333334"/>
      <point x="300.660606060606" y="522.3333333333334" type="curve" smooth="yes"/>
      <point x="409.1181818181818" y="522.3333333333334"/>
      <point x="483.26969696969695" y="455.6666666666667"/>
      <point x="483.26969696969695" y="341.90909090909093" type="curve" smooth="yes"/>
      <point x="483.26969696969695" y="230.6060606060606"/>
      <point x="421.9818181818182" y="173.8181818181818"/>
      <point x="321.76060606060605" y="173.8181818181818" type="curve" smooth="yes"/>
      <point x="136.87575757575758" y="173.8181818181818" type="line" smooth="yes"/>
      <point x="84.62727272727273" y="173.8181818181818"/>
      <point x="50.06969696969696" y="141.3939393939394"/>
      <point x="50.06969696969696" y="87.6969696969697" type="curve" smooth="yes"/>
      <point x="50.06969696969696" y="35.0"/>
      <point x="84.62727272727273" y="0.0"/>
    </contour>
  </outline>
</glyph>
<glyph name="uu-tamil" format="2">
  <advance width="1350.8545454545456"/>
  <unicode hex="0B8A"/>
  <note>
uni0B8A
</note>
  <anchor x="717.1515151515152" y="0.0" name="bottom"/>
  <anchor x="718.0030303030303" y="0.0" name="nukta"/>
  <anchor x="720.2151515151514" y="544.5454545454545" name="top"/>
  <anchor x="720.1515151515152" y="544.5454545454545" name="vedic"/>
  <outline>
    <contour>
      <point x="135.98484848484847" y="0.0" type="curve" smooth="yes"/>
      <point x="1331.9727272727273" y="0.0" type="line"/>
      <point x="1331.9727272727273" y="29.575757575757578" type="line"/>
      <point x="134.49393939393937" y="29.575757575757578" type="line" smooth="yes"/>
      <point x="104.4060606060606" y="29.575757575757578"/>
      <point x="81.65151515151514" y="53.24242424242424"/>
      <point x="81.65151515151514" y="87.6969696969697" type="curve" smooth="yes"/>
      <point x="81.65151515151514" y="123.15151515151516"/>
      <point x="103.61818181818182" y="143.66666666666666"/>
      <point x="134.49393939393937" y="143.66666666666666" type="curve" smooth="yes"/>
      <point x="329.54545454545456" y="143.66666666666666" type="line" smooth="yes"/>
      <point x="446.7" y="143.66666666666666"/>
      <point x="526.3151515151515" y="209.21818181818182"/>
      <point x="526.3151515151515" y="338.3636363636364" type="curve" smooth="yes"/>
      <point x="526.3151515151515" y="473.1212121212121"/>
      <point x="437.50303030303036" y="552.6969696969697"/>
      <point x="306.1242424242425" y="552.6969696969697" type="curve" smooth="yes"/>
      <point x="195.95757575757577" y="552.6969696969697"/>
      <point x="127.06969696969699" y="474.8575757575757"/>
      <point x="127.06969696969699" y="391.64545454545447" type="curve" smooth="yes"/>
      <point x="127.06969696969699" y="315.07272727272726"/>
      <point x="165.6909090909091" y="261.969696969697"/>
      <point x="233.63333333333333" y="261.969696969697" type="curve" smooth="yes"/>
      <point x="300.08181818181816" y="261.969696969697"/>
      <point x="346.72424242424245" y="310.3757575757576"/>
      <point x="346.72424242424245" y="387.5848484848484" type="curve" smooth="yes"/>
      <point x="346.72424242424245" y="454.5575757575757"/>
      <point x="307.05757575757576" y="507.9757575757576"/>
      <point x="262.6151515151515" y="531.6060606060606" type="curve"/>
      <point x="231.97575757575754" y="527.030303030303" type="line"/>
      <point x="281.23030303030305" y="494.4848484848485"/>
      <point x="307.8848484848485" y="444.8575757575757"/>
      <point x="307.8848484848485" y="389.49393939393934" type="curve" smooth="yes"/>
      <point x="307.8848484848485" y="333.25454545454545"/>
      <point x="280.7636363636364" y="293.1212121212121"/>
      <point x="229.3242424242424" y="293.1212121212121" type="curve" smooth="yes"/>
      <point x="185.99696969696973" y="293.1212121212121"/>
      <point x="158.69696969696972" y="329.9181818181818"/>
      <point x="158.69696969696972" y="389.4333333333333" type="curve" smooth="yes"/>
      <point x="158.69696969696972" y="461.3424242424242"/>
      <point x="214.01818181818183" y="522.3333333333334"/>
      <point x="300.660606060606" y="522.3333333333334" type="curve" smooth="yes"/>
      <point x="409.1181818181818" y="522.3333333333334"/>
      <point x="483.26969696969695" y="455.6666666666667"/>
      <point x="483.26969696969695" y="341.90909090909093" type="curve" smooth="yes"/>
      <point x="483.26969696969695" y="230.6060606060606"/>
      <point x="421.9818181818182" y="173.8181818181818"/>
      <point x="321.76060606060605" y="173.8181818181818" type="curve" smooth="yes"/>
      <point x="135.98484848484847" y="173.8181818181818" type="line" smooth="yes"/>
      <point x="83.73636363636363" y="173.8181818181818"/>
      <point x="50.06969696969696" y="141.3939393939394"/>
      <point x="50.06969696969696" y="87.6969696969697" type="curve" smooth="yes"/>
      <point x="50.06969696969696" y="35.0"/>
      <point x="83.73636363636363" y="0.0"/>
    </contour>
    <contour>
      <point x="744.1424242424242" y="103.78787878787878" type="curve" smooth="yes"/>
      <point x="817.2424242424242" y="103.78787878787878"/>
      <point x="865.6212121212121" y="154.95454545454547"/>
      <point x="865.6212121212121" y="243.0242424242424" type="curve" smooth="yes"/>
      <point x="865.6212121212121" y="325.67272727272723"/>
      <point x="818.5333333333334" y="375.26666666666665"/>
      <point x="754.9090909090909" y="375.26666666666665" type="curve" smooth="yes"/>
      <point x="682.5636363636364" y="375.26666666666665"/>
      <point x="642.5121212121212" y="310.6787878787879"/>
      <point x="627.0545454545455" y="237.8181818181818" type="curve"/>
      <point x="639.7151515151514" y="209.0" type="line"/>
      <point x="656.2212121212121" y="280.1939393939394"/>
      <point x="690.2606060606062" y="342.75757575757575"/>
      <point x="746.8515151515152" y="342.75757575757575" type="curve" smooth="yes"/>
      <point x="794.7939393939394" y="342.75757575757575"/>
      <point x="826.6121212121212" y="307.5787878787879"/>
      <point x="826.6121212121212" y="241.06060606060606" type="curve" smooth="yes"/>
      <point x="826.6121212121212" y="171.72727272727272"/>
      <point x="790.730303030303" y="134.72727272727272"/>
      <point x="739.7878787878789" y="134.72727272727272" type="curve" smooth="yes"/>
      <point x="679.9363636363637" y="134.72727272727272"/>
      <point x="636.4090909090909" y="192.96969696969697"/>
      <point x="636.4090909090909" y="293.7878787878788" type="curve" smooth="yes"/>
      <point x="636.4090909090909" y="426.6636363636364"/>
      <point x="688.9454545454546" y="522.3333333333334"/>
      <point x="801.4727272727273" y="522.3333333333334" type="curve" smooth="yes"/>
      <point x="889.8454545454547" y="522.3333333333334"/>
      <point x="968.7363636363638" y="457.0"/>
      <point x="968.8848484848486" y="323.06060606060606" type="curve"/>
      <point x="995.5727272727271" y="323.8484848484849" type="line"/>
      <point x="995.4242424242424" y="485.57575757575756"/>
      <point x="906.3424242424243" y="552.6969696969697"/>
      <point x="800.4969696969697" y="552.6969696969697" type="curve" smooth="yes"/>
      <point x="669.9151515151516" y="552.6969696969697"/>
      <point x="603.9757575757576" y="440.2"/>
      <point x="603.9757575757576" y="294.93939393939394" type="curve" smooth="yes"/>
      <point x="603.9757575757576" y="180.21212121212122"/>
      <point x="660.9878787878788" y="103.78787878787878"/>
    </contour>
    <contour>
      <point x="968.8848484848486" y="107.0" type="line"/>
      <point x="1010.460606060606" y="107.0" type="line"/>
      <point x="1010.460606060606" y="515.3939393939394" type="line"/>
      <point x="1183.7060606060606" y="515.3939393939394" type="line"/>
      <point x="1183.7060606060606" y="107.0" type="line"/>
      <point x="1224.581818181818" y="107.0" type="line"/>
      <point x="1224.581818181818" y="515.3939393939394" type="line"/>
      <point x="1331.9727272727273" y="515.3939393939394" type="line"/>
      <point x="1331.9727272727273" y="544.5454545454545" type="line"/>
      <point x="971.6848484848485" y="544.5454545454545" type="line"/>
      <point x="971.6848484848485" y="408.1515151515151" type="line"/>
      <point x="968.8848484848486" y="390.75757575757575" type="line"/>
    </contour>
  </outline>
</glyph>
<glyph name="e-tamil" format="2">
  <advance width="714.7848484848485"/>
  <unicode hex="0B8E"/>
  <note>
uni0B8E
</note>
  <anchor x="373.54242424242426" y="0.0" name="bottom"/>
  <anchor x="374.54242424242426" y="0.0" name="nukta"/>
  <anchor x="375.8636363636364" y="544.5454545454545" name="top"/>
  <anchor x="376.54242424242426" y="544.5454545454545" name="vedic"/>
  <outline>
    <contour>
      <point x="213.37272727272725" y="-4.212121212121212" type="curve" smooth="yes"/>
      <point x="293.40303030303033" y="-4.212121212121212"/>
      <point x="346.7545454545455" y="52.4"/>
      <point x="346.7545454545455" y="147.14545454545456" type="curve" smooth="yes"/>
      <point x="346.7545454545455" y="235.35454545454544"/>
      <point x="295.1424242424242" y="287.24242424242425"/>
      <point x="225.53333333333333" y="287.24242424242425" type="curve" smooth="yes"/>
      <point x="143.74242424242425" y="287.24242424242425"/>
      <point x="100.26666666666665" y="216.69696969696972"/>
      <point x="86.13030303030304" y="146.13030303030303" type="curve"/>
      <point x="99.99696969696971" y="116.9939393939394" type="line"/>
      <point x="118.02727272727272" y="190.58787878787876"/>
      <point x="153.77878787878788" y="253.33333333333334"/>
      <point x="216.24545454545452" y="253.33333333333334" type="curve" smooth="yes"/>
      <point x="272.5636363636364" y="253.33333333333334"/>
      <point x="306.7060606060606" y="209.6969696969697"/>
      <point x="306.7060606060606" y="142.84848484848484" type="curve" smooth="yes"/>
      <point x="306.7060606060606" y="68.15151515151516"/>
      <point x="265.0030303030303" y="26.93939393939394"/>
      <point x="208.56666666666666" y="26.93939393939394" type="curve" smooth="yes"/>
      <point x="136.1727272727273" y="26.93939393939394"/>
      <point x="89.84242424242424" y="101.91212121212122"/>
      <point x="89.84242424242424" y="233.39090909090908" type="curve" smooth="yes"/>
      <point x="89.84242424242424" y="395.0030303030303"/>
      <point x="166.82727272727274" y="514.969696969697"/>
      <point x="327.93030303030304" y="514.969696969697" type="curve" smooth="yes"/>
      <point x="510.609090909091" y="514.969696969697" type="line"/>
      <point x="510.609090909091" y="0.0" type="line"/>
      <point x="552.8666666666667" y="0.0" type="line"/>
      <point x="552.8666666666667" y="514.969696969697" type="line"/>
      <point x="689.9909090909091" y="514.969696969697" type="line"/>
      <point x="689.9909090909091" y="544.5454545454545" type="line"/>
      <point x="329.18484848484854" y="544.5454545454545" type="line" smooth="yes"/>
      <point x="140.51515151515153" y="544.5454545454545"/>
      <point x="56.77272727272727" y="410.79696969696965"/>
      <point x="56.77272727272727" y="234.39090909090908" type="curve" smooth="yes"/>
      <point x="56.77272727272727" y="88.04242424242425"/>
      <point x="116.59090909090908" y="-4.212121212121212"/>
    </contour>
  </outline>
</glyph>
<glyph name="ee-tamil" format="2">
  <advance width="714.7848484848485"/>
  <unicode hex="0B8F"/>
  <note>
uni0B8F
</note>
  <anchor x="373.54242424242426" y="0.0" name="bottom"/>
  <anchor x="374.54242424242426" y="-178.2" name="nukta"/>
  <anchor x="377.0060606060606" y="544.5454545454545" name="top"/>
  <anchor x="376.54242424242426" y="544.5454545454545" name="vedic"/>
  <outline>
    <contour>
      <point x="389.5151515151515" y="-202.27272727272728" type="line"/>
      <point x="552.8666666666667" y="3.3424242424242436" type="line"/>
      <point x="552.8666666666667" y="514.969696969697" type="line"/>
      <point x="689.9909090909091" y="514.969696969697" type="line"/>
      <point x="689.9909090909091" y="544.5454545454545" type="line"/>
      <point x="328.8666666666667" y="544.5454545454545" type="line" smooth="yes"/>
      <point x="140.19696969696972" y="544.5454545454545"/>
      <point x="56.77272727272727" y="410.79696969696965"/>
      <point x="56.77272727272727" y="234.39090909090908" type="curve" smooth="yes"/>
      <point x="56.77272727272727" y="88.04242424242425"/>
      <point x="116.59090909090908" y="-4.148484848484848"/>
      <point x="213.37272727272725" y="-4.148484848484848" type="curve" smooth="yes"/>
      <point x="293.40303030303033" y="-4.148484848484848"/>
      <point x="346.7545454545455" y="52.46363636363636"/>
      <point x="346.7545454545455" y="147.14545454545456" type="curve" smooth="yes"/>
      <point x="346.7545454545455" y="235.35454545454544"/>
      <point x="295.1424242424242" y="287.3060606060606"/>
      <point x="225.53333333333333" y="287.3060606060606" type="curve" smooth="yes"/>
      <point x="143.74242424242425" y="287.3060606060606"/>
      <point x="100.26666666666665" y="216.69696969696972"/>
      <point x="86.13030303030304" y="146.1939393939394" type="curve"/>
      <point x="99.99696969696971" y="117.05757575757576" type="line"/>
      <point x="118.02727272727272" y="190.65151515151516"/>
      <point x="153.77878787878788" y="253.33333333333334"/>
      <point x="216.24545454545452" y="253.33333333333334" type="curve" smooth="yes"/>
      <point x="272.5636363636364" y="253.33333333333334"/>
      <point x="306.7060606060606" y="209.76060606060608"/>
      <point x="306.7060606060606" y="142.84848484848484" type="curve" smooth="yes"/>
      <point x="306.7060606060606" y="68.2151515151515"/>
      <point x="265.0030303030303" y="26.93939393939394"/>
      <point x="208.56666666666666" y="26.93939393939394" type="curve" smooth="yes"/>
      <point x="136.1727272727273" y="26.93939393939394"/>
      <point x="89.84242424242424" y="101.91212121212122"/>
      <point x="89.84242424242424" y="233.39090909090908" type="curve" smooth="yes"/>
      <point x="89.84242424242424" y="395.0030303030303"/>
      <point x="166.82727272727274" y="514.969696969697"/>
      <point x="327.93030303030304" y="514.969696969697" type="curve" smooth="yes"/>
      <point x="510.609090909091" y="514.969696969697" type="line"/>
      <point x="510.609090909091" y="3.96060606060606" type="line"/>
      <point x="364.3848484848485" y="-181.70303030303032" type="line"/>
    </contour>
  </outline>
</glyph>
<glyph name="ai-tamil" format="2">
  <advance width="791.9787878787879"/>
  <unicode hex="0B90"/>
  <note>
uni0B90
</note>
  <anchor x="408.80909090909097" y="0.0" name="bottom"/>
  <anchor x="407.09090909090907" y="-281.8181818181818" name="nukta"/>
  <anchor x="414.1181818181818" y="544.5454545454545" name="top"/>
  <anchor x="413.95151515151514" y="544.5454545454545" name="vedic"/>
  <outline>
    <contour>
      <point x="236.4424242424242" y="-281.8181818181818" type="curve" smooth="yes"/>
      <point x="330.5151515151515" y="-281.8181818181818"/>
      <point x="387.8636363636364" y="-229.0969696969697"/>
      <point x="411.7818181818182" y="-163.0060606060606" type="curve"/>
      <point x="433.69393939393933" y="-228.82424242424244"/>
      <point x="484.42727272727274" y="-281.8181818181818"/>
      <point x="566.0575757575757" y="-281.8181818181818" type="curve" smooth="yes"/>
      <point x="660.0030303030303" y="-281.8181818181818"/>
      <point x="735.269696969697" y="-219.53636363636363"/>
      <point x="735.269696969697" y="-93.54848484848485" type="curve" smooth="yes"/>
      <point x="735.269696969697" y="-27.972727272727273"/>
      <point x="711.6030303030303" y="24.490909090909092"/>
      <point x="674.6666666666667" y="78.81515151515151" type="curve"/>
      <point x="648.0454545454545" y="60.17878787878788" type="line"/>
      <point x="678.539393939394" y="16.293939393939393"/>
      <point x="701.7333333333332" y="-37.24848484848485"/>
      <point x="701.7333333333332" y="-92.21212121212122" type="curve" smooth="yes"/>
      <point x="701.7333333333332" y="-193.16666666666666"/>
      <point x="645.2666666666667" y="-249.96969696969697"/>
      <point x="567.4848484848486" y="-249.96969696969697" type="curve" smooth="yes"/>
      <point x="480.1272727272727" y="-249.96969696969697"/>
      <point x="434.4606060606061" y="-179.27272727272725"/>
      <point x="434.4606060606061" y="-77.93939393939394" type="curve" smooth="yes"/>
      <point x="434.4606060606061" y="-15.0" type="line"/>
      <point x="393.6151515151515" y="-15.0" type="line"/>
      <point x="393.6151515151515" y="-94.3030303030303" type="line" smooth="yes"/>
      <point x="393.6151515151515" y="-172.0848484848485"/>
      <point x="336.76363636363635" y="-251.24242424242425"/>
      <point x="241.14242424242425" y="-251.24242424242425" type="curve" smooth="yes"/>
      <point x="158.23333333333335" y="-251.24242424242425"/>
      <point x="106.26060606060607" y="-201.33333333333331"/>
      <point x="106.26060606060607" y="-104.70909090909092" type="curve" smooth="yes"/>
      <point x="106.26060606060607" y="23.56969696969697"/>
      <point x="192.75757575757578" y="64.2969696969697"/>
      <point x="416.5090909090909" y="87.32727272727273" type="curve" smooth="yes"/>
      <point x="603.2333333333333" y="106.35454545454544"/>
      <point x="734.2515151515152" y="162.05454545454546"/>
      <point x="734.2515151515152" y="349.45454545454544" type="curve" smooth="yes"/>
      <point x="734.2515151515152" y="484.43636363636364"/>
      <point x="665.0484848484848" y="552.6969696969697"/>
      <point x="568.3515151515152" y="552.6969696969697" type="curve" smooth="yes"/>
      <point x="483.4848484848485" y="552.6969696969697"/>
      <point x="437.19696969696975" y="501.1181818181818"/>
      <point x="414.45757575757574" y="434.54242424242426" type="curve"/>
      <point x="388.44242424242424" y="501.8030303030303"/>
      <point x="335.40303030303033" y="552.6969696969697"/>
      <point x="245.99999999999997" y="552.6969696969697" type="curve" smooth="yes"/>
      <point x="125.4969696969697" y="552.6969696969697"/>
      <point x="57.47272727272727" y="461.8181818181818"/>
      <point x="57.47272727272727" y="350.57575757575756" type="curve" smooth="yes"/>
      <point x="57.47272727272727" y="238.78787878787878"/>
      <point x="104.62121212121212" y="162.3030303030303"/>
      <point x="184.33636363636364" y="162.3030303030303" type="curve" smooth="yes"/>
      <point x="243.43333333333334" y="162.3030303030303"/>
      <point x="291.6484848484848" y="205.15757575757576"/>
      <point x="291.6484848484848" y="283.8787878787879" type="curve" smooth="yes"/>
      <point x="291.6484848484848" y="355.8787878787879"/>
      <point x="253.0484848484849" y="400.969696969697"/>
      <point x="196.6848484848485" y="400.969696969697" type="curve" smooth="yes"/>
      <point x="135.04242424242423" y="400.969696969697"/>
      <point x="94.7060606060606" y="344.04242424242426"/>
      <point x="83.74848484848486" y="264.52121212121216" type="curve"/>
      <point x="100.57878787878788" y="240.46666666666667" type="line"/>
      <point x="112.86363636363636" y="319.3212121212121"/>
      <point x="142.45151515151517" y="368.7393939393939"/>
      <point x="189.33333333333331" y="368.7393939393939" type="curve" smooth="yes"/>
      <point x="229.330303030303" y="368.7393939393939"/>
      <point x="253.38181818181818" y="335.91515151515154"/>
      <point x="253.38181818181818" y="282.1515151515151" type="curve" smooth="yes"/>
      <point x="253.38181818181818" y="226.03939393939393"/>
      <point x="222.64545454545456" y="194.24242424242425"/>
      <point x="179.74242424242425" y="194.24242424242425" type="curve" smooth="yes"/>
      <point x="125.2969696969697" y="194.24242424242425"/>
      <point x="90.75454545454545" y="246.93939393939394"/>
      <point x="90.75454545454545" y="346.3636363636364" type="curve" smooth="yes"/>
      <point x="90.75454545454545" y="443.27272727272725"/>
      <point x="144.96363636363634" y="521.5454545454545"/>
      <point x="239.60000000000002" y="521.5454545454545" type="curve" smooth="yes"/>
      <point x="334.7939393939394" y="521.5454545454545"/>
      <point x="393.6151515151515" y="455.51818181818186"/>
      <point x="393.6151515151515" y="350.1121212121212" type="curve" smooth="yes"/>
      <point x="393.6151515151515" y="209.4848484848485" type="line"/>
      <point x="434.4606060606061" y="209.4848484848485" type="line"/>
      <point x="434.4606060606061" y="369.5727272727273" type="line" smooth="yes"/>
      <point x="434.4606060606061" y="443.3636363636364"/>
      <point x="477.439393939394" y="522.3333333333334"/>
      <point x="562.530303030303" y="522.3333333333334" type="curve" smooth="yes"/>
      <point x="646.2060606060606" y="522.3333333333334"/>
      <point x="690.6727272727272" y="457.2909090909091"/>
      <point x="690.6727272727272" y="353.93939393939394" type="curve" smooth="yes"/>
      <point x="690.6727272727272" y="192.87878787878788"/>
      <point x="600.3363636363636" y="133.06666666666666"/>
      <point x="386.79090909090905" y="112.18787878787879" type="curve" smooth="yes"/>
      <point x="158.94545454545454" y="89.79696969696971"/>
      <point x="62.918181818181814" y="38.75757575757576"/>
      <point x="62.918181818181814" y="-99.80000000000001" type="curve" smooth="yes"/>
      <point x="62.918181818181814" y="-218.53939393939396"/>
      <point x="133.02424242424243" y="-281.8181818181818"/>
    </contour>
  </outline>
</glyph>
<glyph name="o-tamil" format="2">
  <advance width="803.8575757575757"/>
  <unicode hex="0B92"/>
  <note>
uni0B92
</note>
  <anchor x="408.0030303030303" y="0.0" name="bottom"/>
  <anchor x="406.0030303030303" y="-335.0" name="nukta"/>
  <anchor x="401.0030303030303" y="544.5454545454545" name="top"/>
  <anchor x="401.0030303030303" y="544.5454545454545" name="vedic"/>
  <outline>
    <contour>
      <point x="301.8363636363636" y="-274.89696969696973" type="curve" smooth="yes"/>
      <point x="442.90303030303033" y="-274.89696969696973"/>
      <point x="471.030303030303" y="-121.75454545454545"/>
      <point x="617.9363636363637" y="-121.75454545454545" type="curve" smooth="yes"/>
      <point x="636.2818181818183" y="-121.75454545454545" type="line"/>
      <point x="636.2818181818183" y="-91.45454545454544" type="line"/>
      <point x="610.1393939393938" y="-91.45454545454544" type="line" smooth="yes"/>
      <point x="478.4515151515151" y="-91.45454545454544"/>
      <point x="381.76363636363635" y="34.115151515151524"/>
      <point x="493.54242424242426" y="216.46363636363637" type="curve"/>
      <point x="498.3757575757575" y="213.71515151515152" type="line"/>
      <point x="466.0969696969697" y="110.56060606060606"/>
      <point x="486.8090909090909" y="-5.0"/>
      <point x="600.069696969697" y="-5.0" type="curve" smooth="yes"/>
      <point x="685.930303030303" y="-5.0"/>
      <point x="747.1484848484849" y="65.61818181818181"/>
      <point x="747.1484848484849" y="202.49090909090907" type="curve" smooth="yes"/>
      <point x="747.1484848484849" y="424.1060606060606"/>
      <point x="589.0212121212121" y="552.6969696969697"/>
      <point x="385.92121212121214" y="552.6969696969697" type="curve" smooth="yes"/>
      <point x="191.49696969696967" y="552.6969696969697"/>
      <point x="56.77272727272727" y="407.36969696969703"/>
      <point x="56.77272727272727" y="231.20606060606062" type="curve" smooth="yes"/>
      <point x="56.77272727272727" y="86.2151515151515"/>
      <point x="119.55454545454548" y="-4.212121212121212"/>
      <point x="215.0272727272727" y="-4.212121212121212" type="curve" smooth="yes"/>
      <point x="295.29393939393947" y="-4.212121212121212"/>
      <point x="348.40909090909093" y="52.93636363636364"/>
      <point x="348.40909090909093" y="147.61818181818182" type="curve" smooth="yes"/>
      <point x="348.40909090909093" y="235.59090909090907"/>
      <point x="296.79696969696965" y="287.3060606060606"/>
      <point x="227.4242424242424" y="287.3060606060606" type="curve" smooth="yes"/>
      <point x="145.39696969696968" y="287.3060606060606"/>
      <point x="100.73939393939395" y="217.169696969697"/>
      <point x="86.6030303030303" y="146.430303030303" type="curve"/>
      <point x="100.46969696969697" y="117.29393939393938" type="line"/>
      <point x="118.35151515151516" y="191.12424242424242"/>
      <point x="155.669696969697" y="253.33333333333334"/>
      <point x="218.13636363636363" y="253.33333333333334" type="curve" smooth="yes"/>
      <point x="274.21818181818185" y="253.33333333333334"/>
      <point x="308.3606060606061" y="210.23333333333335"/>
      <point x="308.3606060606061" y="143.32121212121214" type="curve" smooth="yes"/>
      <point x="308.3606060606061" y="68.68787878787879"/>
      <point x="267.13030303030297" y="26.93939393939394"/>
      <point x="210.69393939393942" y="26.93939393939394" type="curve" smooth="yes"/>
      <point x="139.54545454545453" y="26.93939393939394"/>
      <point x="89.84242424242424" y="98.81818181818181"/>
      <point x="89.84242424242424" y="229.9060606060606" type="curve" smooth="yes"/>
      <point x="89.84242424242424" y="393.54545454545456"/>
      <point x="216.95454545454544" y="522.3333333333334"/>
      <point x="384.95454545454544" y="522.3333333333334" type="curve" smooth="yes"/>
      <point x="564.1545454545455" y="522.3333333333334"/>
      <point x="704.4000000000001" y="404.55757575757576"/>
      <point x="704.4000000000001" y="208.0" type="curve" smooth="yes"/>
      <point x="704.4000000000001" y="88.26060606060605"/>
      <point x="661.430303030303" y="26.93939393939394"/>
      <point x="593.821212121212" y="26.93939393939394" type="curve" smooth="yes"/>
      <point x="508.4181818181819" y="26.93939393939394"/>
      <point x="492.6242424242424" y="140.60909090909092"/>
      <point x="538.8515151515152" y="249.44545454545457" type="curve"/>
      <point x="495.37272727272733" y="271.53939393939396" type="line"/>
      <point x="344.94242424242424" y="52.86363636363637"/>
      <point x="433.3484848484849" y="-73.49393939393939"/>
      <point x="541.3939393939395" y="-105.8121212121212" type="curve"/>
      <point x="541.3939393939395" y="-110.02424242424242" type="line"/>
      <point x="432.6272727272727" y="-129.63030303030303"/>
      <point x="404.3212121212121" y="-239.53636363636366"/>
      <point x="294.68181818181824" y="-239.53636363636366" type="curve" smooth="yes"/>
      <point x="237.09696969696975" y="-239.53636363636366"/>
      <point x="208.03030303030303" y="-203.72727272727272"/>
      <point x="208.03030303030303" y="-160.02424242424243" type="curve" smooth="yes"/>
      <point x="208.03030303030303" y="-124.03333333333333"/>
      <point x="219.70303030303032" y="-102.14545454545454"/>
      <point x="253.37575757575758" y="-74.16060606060607" type="curve"/>
      <point x="232.03333333333336" y="-50.91212121212121" type="line"/>
      <point x="190.6969696969697" y="-85.46969696969697"/>
      <point x="175.13333333333333" y="-114.4151515151515"/>
      <point x="175.13333333333333" y="-159.02424242424243" type="curve" smooth="yes"/>
      <point x="175.13333333333333" y="-224.24848484848485"/>
      <point x="220.4393939393939" y="-274.89696969696973"/>
    </contour>
  </outline>
</glyph>
<glyph name="oo-tamil" format="2">
  <advance width="803.8575757575757"/>
  <unicode hex="0B93"/>
  <note>
uni0B93
</note>
  <anchor x="398.71212121212125" y="0.0" name="bottom"/>
  <anchor x="396.71212121212125" y="-255.4424242424242" name="nukta"/>
  <anchor x="391.71212121212125" y="544.5454545454545" name="top"/>
  <anchor x="391.71212121212125" y="544.5454545454545" name="vedic"/>
  <outline>
    <contour>
      <point x="286.1333333333334" y="-278.3484848484849" type="curve" smooth="yes"/>
      <point x="430.55757575757576" y="-278.3484848484849"/>
      <point x="467.1030303030303" y="-121.75454545454545"/>
      <point x="613.3545454545455" y="-121.75454545454545" type="curve" smooth="yes"/>
      <point x="628.1969696969697" y="-121.75454545454545" type="line"/>
      <point x="628.1969696969697" y="-91.45454545454544" type="line"/>
      <point x="606.0212121212121" y="-91.45454545454544" type="line" smooth="yes"/>
      <point x="476.69696969696975" y="-91.45454545454544"/>
      <point x="382.6484848484849" y="34.115151515151524"/>
      <point x="493.54242424242426" y="216.46363636363637" type="curve"/>
      <point x="498.3757575757575" y="213.71515151515152" type="line"/>
      <point x="466.0969696969697" y="110.56060606060606"/>
      <point x="486.8090909090909" y="-5.0"/>
      <point x="600.069696969697" y="-5.0" type="curve" smooth="yes"/>
      <point x="685.930303030303" y="-5.0"/>
      <point x="747.1484848484849" y="65.61818181818181"/>
      <point x="747.1484848484849" y="202.49090909090907" type="curve" smooth="yes"/>
      <point x="747.1484848484849" y="424.1060606060606"/>
      <point x="589.0212121212121" y="552.6969696969697"/>
      <point x="385.92121212121214" y="552.6969696969697" type="curve" smooth="yes"/>
      <point x="191.49696969696967" y="552.6969696969697"/>
      <point x="56.77272727272727" y="407.36969696969703"/>
      <point x="56.77272727272727" y="231.20606060606062" type="curve" smooth="yes"/>
      <point x="56.77272727272727" y="86.2151515151515"/>
      <point x="119.55454545454548" y="-4.212121212121212"/>
      <point x="215.0272727272727" y="-4.212121212121212" type="curve" smooth="yes"/>
      <point x="295.29393939393947" y="-4.212121212121212"/>
      <point x="348.40909090909093" y="52.93636363636364"/>
      <point x="348.40909090909093" y="147.61818181818182" type="curve" smooth="yes"/>
      <point x="348.40909090909093" y="235.59090909090907"/>
      <point x="296.79696969696965" y="287.3060606060606"/>
      <point x="227.4242424242424" y="287.3060606060606" type="curve" smooth="yes"/>
      <point x="145.39696969696968" y="287.3060606060606"/>
      <point x="100.73939393939395" y="217.169696969697"/>
      <point x="86.6030303030303" y="146.430303030303" type="curve"/>
      <point x="100.46969696969697" y="117.29393939393938" type="line"/>
      <point x="118.35151515151516" y="191.12424242424242"/>
      <point x="155.669696969697" y="253.33333333333334"/>
      <point x="218.13636363636363" y="253.33333333333334" type="curve" smooth="yes"/>
      <point x="274.21818181818185" y="253.33333333333334"/>
      <point x="308.3606060606061" y="210.23333333333335"/>
      <point x="308.3606060606061" y="143.32121212121214" type="curve" smooth="yes"/>
      <point x="308.3606060606061" y="68.68787878787879"/>
      <point x="267.13030303030297" y="26.93939393939394"/>
      <point x="210.69393939393942" y="26.93939393939394" type="curve" smooth="yes"/>
      <point x="139.54545454545453" y="26.93939393939394"/>
      <point x="89.84242424242424" y="98.81818181818181"/>
      <point x="89.84242424242424" y="229.9060606060606" type="curve" smooth="yes"/>
      <point x="89.84242424242424" y="393.54545454545456"/>
      <point x="216.95454545454544" y="522.3333333333334"/>
      <point x="384.95454545454544" y="522.3333333333334" type="curve" smooth="yes"/>
      <point x="564.1545454545455" y="522.3333333333334"/>
      <point x="704.4000000000001" y="404.55757575757576"/>
      <point x="704.4000000000001" y="208.0" type="curve" smooth="yes"/>
      <point x="704.4000000000001" y="88.26060606060605"/>
      <point x="661.430303030303" y="26.93939393939394"/>
      <point x="593.821212121212" y="26.93939393939394" type="curve" smooth="yes"/>
      <point x="508.4181818181819" y="26.93939393939394"/>
      <point x="492.6242424242424" y="140.60909090909092"/>
      <point x="538.8515151515152" y="249.44545454545457" type="curve"/>
      <point x="495.37272727272733" y="271.53939393939396" type="line"/>
      <point x="346.29999999999995" y="53.57272727272727"/>
      <point x="431.530303030303" y="-72.78484848484848"/>
      <point x="536.8969696969698" y="-105.8121212121212" type="curve"/>
      <point x="536.8969696969698" y="-110.02424242424242" type="line"/>
      <point x="428.50909090909096" y="-129.94848484848484"/>
      <point x="390.1909090909091" y="-243.81818181818178"/>
      <point x="277.8545454545455" y="-243.81818181818178" type="curve" smooth="yes"/>
      <point x="226.82424242424239" y="-243.81818181818178"/>
      <point x="193.0060606060606" y="-211.06363636363636"/>
      <point x="193.0060606060606" y="-169.0727272727273" type="curve" smooth="yes"/>
      <point x="193.0060606060606" y="-125.4818181818182"/>
      <point x="223.0090909090909" y="-100.04848484848485"/>
      <point x="257.8060606060606" y="-100.04848484848485" type="curve" smooth="yes"/>
      <point x="288.03030303030306" y="-100.04848484848485"/>
      <point x="310.3848484848485" y="-118.7909090909091"/>
      <point x="319.55757575757576" y="-142.78484848484848" type="curve"/>
      <point x="334.0212121212121" y="-134.4878787878788"/>
      <point x="344.4818181818182" y="-121.2"/>
      <point x="344.4818181818182" y="-102.7151515151515" type="curve" smooth="yes"/>
      <point x="344.4818181818182" y="-73.51212121212122"/>
      <point x="311.53939393939396" y="-54.36666666666667"/>
      <point x="274.88787878787883" y="-54.36666666666667" type="curve" smooth="yes"/>
      <point x="208.3848484848485" y="-54.36666666666667"/>
      <point x="162.4" y="-103.66363636363636"/>
      <point x="162.4" y="-167.43636363636364" type="curve" smooth="yes"/>
      <point x="162.4" y="-232.53333333333333"/>
      <point x="214.13939393939393" y="-278.3484848484849"/>
    </contour>
  </outline>
</glyph>
<glyph name="au-tamil" format="2">
  <advance width="1787.0000000000002"/>
  <unicode hex="0B94"/>
  <note>
uni0B94
</note>
  <anchor x="912.5545454545454" y="0.0" name="bottom"/>
  <anchor x="968.3484848484849" y="0.0" name="nukta"/>
  <anchor x="905.5545454545454" y="544.5454545454545" name="top"/>
  <anchor x="905.5545454545454" y="544.5454545454545" name="vedic"/>
  <outline>
    <contour>
      <point x="1008.1151515151514" y="-4.148484848484848" type="curve" smooth="yes"/>
      <point x="1086.830303030303" y="-4.148484848484848"/>
      <point x="1141.0242424242424" y="51.28181818181818"/>
      <point x="1141.0242424242424" y="148.72121212121215" type="curve" smooth="yes"/>
      <point x="1141.0242424242424" y="236.14242424242423"/>
      <point x="1088.2454545454548" y="287.3060606060606"/>
      <point x="1020.9303030303031" y="287.3060606060606" type="curve" smooth="yes"/>
      <point x="942.0303030303031" y="287.3060606060606"/>
      <point x="895.6393939393938" y="221.26666666666668"/>
      <point x="880.8030303030304" y="146.430303030303" type="curve"/>
      <point x="894.9060606060606" y="117.05757575757576" type="line"/>
      <point x="913.251515151515" y="190.88787878787878"/>
      <point x="948.6" y="253.33333333333334"/>
      <point x="1010.8545454545455" y="253.33333333333334" type="curve" smooth="yes"/>
      <point x="1066.1333333333334" y="253.33333333333334"/>
      <point x="1100.8272727272729" y="211.33636363636367"/>
      <point x="1100.8272727272729" y="144.42424242424244" type="curve" smooth="yes"/>
      <point x="1100.8272727272729" y="69.79090909090908"/>
      <point x="1060.8484848484848" y="26.93939393939394"/>
      <point x="1003.309090909091" y="26.93939393939394" type="curve" smooth="yes"/>
      <point x="930.0727272727272" y="26.93939393939394"/>
      <point x="884.6636363636363" y="105.37878787878788"/>
      <point x="884.6636363636363" y="231.1060606060606" type="curve" smooth="yes"/>
      <point x="884.6636363636363" y="403.26060606060605"/>
      <point x="965.2333333333332" y="522.3333333333334"/>
      <point x="1105.2636363636364" y="522.3333333333334" type="curve" smooth="yes"/>
      <point x="1217.4757575757576" y="522.3333333333334"/>
      <point x="1309.469696969697" y="453.9787878787879"/>
      <point x="1309.469696969697" y="280.5787878787879" type="curve"/>
      <point x="1339.1090909090908" y="282.3636363636364" type="line"/>
      <point x="1336.457575757576" y="476.2030303030303"/>
      <point x="1238.821212121212" y="552.6969696969697"/>
      <point x="1103.969696969697" y="552.6969696969697" type="curve" smooth="yes"/>
      <point x="943.3969696969698" y="552.6969696969697"/>
      <point x="851.530303030303" y="419.96363636363634"/>
      <point x="851.530303030303" y="232.89393939393938" type="curve" smooth="yes"/>
      <point x="851.530303030303" y="90.72121212121212"/>
      <point x="911.3333333333333" y="-4.148484848484848"/>
    </contour>
    <contour>
      <point x="1309.618181818182" y="0.0" type="line"/>
      <point x="1350.8757575757577" y="0.0" type="line"/>
      <point x="1350.8757575757577" y="514.969696969697" type="line"/>
      <point x="1562.881818181818" y="514.969696969697" type="line"/>
      <point x="1562.881818181818" y="0.0" type="line"/>
      <point x="1604.6060606060607" y="0.0" type="line"/>
      <point x="1604.6060606060607" y="514.969696969697" type="line"/>
      <point x="1762.2060606060606" y="514.969696969697" type="line"/>
      <point x="1762.2060606060606" y="544.5454545454545" type="line"/>
      <point x="1312.3969696969696" y="544.5454545454545" type="line"/>
      <point x="1312.3969696969696" y="383.8484848484849" type="line"/>
      <point x="1309.618181818182" y="362.3030303030303" type="line"/>
    </contour>
    <component base="o-tamil"/>
  </outline>
</glyph>
<glyph name="nga-tamil" format="2">
  <advance width="834.2848484848485"/>
  <unicode hex="0B99"/>
  <note>
uni0B99
</note>
  <anchor x="420.6575757575758" y="0.0" name="bottom"/>
  <anchor x="469.569696969697" y="544.5454545454545" name="imatra"/>
  <anchor x="420.6575757575758" y="0.0" name="nukta"/>
  <anchor x="421.53333333333325" y="544.5454545454545" name="top"/>
  <anchor x="418.8454545454546" y="544.5454545454545" name="vedic"/>
  <outline>
    <contour>
      <point x="99.78484848484848" y="0.0" type="line"/>
      <point x="132.9121212121212" y="0.0" type="line"/>
      <point x="132.9121212121212" y="514.969696969697" type="line"/>
      <point x="300.43030303030304" y="514.969696969697" type="line"/>
      <point x="300.43030303030304" y="189.6969696969697" type="line"/>
      <point x="342.09393939393937" y="189.6969696969697" type="line"/>
      <point x="342.09393939393937" y="214.73030303030305" type="line" smooth="yes"/>
      <point x="342.09393939393937" y="265.5818181818182"/>
      <point x="368.6454545454545" y="328.160606060606"/>
      <point x="434.869696969697" y="328.160606060606" type="curve" smooth="yes"/>
      <point x="488.4757575757576" y="328.160606060606"/>
      <point x="520.6" y="284.73636363636365"/>
      <point x="520.6" y="208.42424242424244" type="curve" smooth="yes"/>
      <point x="520.6" y="77.53939393939393"/>
      <point x="417.139393939394" y="29.575757575757578"/>
      <point x="361.90909090909093" y="29.575757575757578" type="curve" smooth="yes"/>
      <point x="300.43030303030304" y="29.575757575757578" type="line"/>
      <point x="300.43030303030304" y="0.0" type="line"/>
      <point x="734.9666666666667" y="0.0" type="line"/>
      <point x="734.9666666666667" y="544.5454545454545" type="line"/>
      <point x="693.1121212121213" y="544.5454545454545" type="line"/>
      <point x="693.1121212121213" y="29.575757575757578" type="line"/>
      <point x="445.1484848484849" y="29.575757575757578" type="line"/>
      <point x="510.8909090909091" y="57.2"/>
      <point x="562.9242424242425" y="112.87878787878788"/>
      <point x="562.9242424242425" y="216.54545454545456" type="curve" smooth="yes"/>
      <point x="562.9242424242425" y="306.2969696969697"/>
      <point x="515.478787878788" y="360.0909090909091"/>
      <point x="445.0878787878788" y="360.0909090909091" type="curve" smooth="yes"/>
      <point x="387.40303030303033" y="360.0909090909091"/>
      <point x="355.069696969697" y="326.56363636363636"/>
      <point x="342.3909090909091" y="294.80909090909097" type="curve"/>
      <point x="342.3909090909091" y="514.969696969697" type="line"/>
      <point x="499.54242424242426" y="514.969696969697" type="line"/>
      <point x="499.54242424242426" y="544.5454545454545" type="line"/>
      <point x="99.78484848484848" y="544.5454545454545" type="line"/>
    </contour>
  </outline>
</glyph>
<glyph name="ca-tamil" format="2">
  <advance width="562.8969696969698"/>
  <unicode hex="0B9A"/>
  <note>
uni0B9A
</note>
  <anchor x="299.5" y="0.0" name="bottom"/>
  <anchor x="464.0878787878788" y="544.5454545454545" name="imatra"/>
  <anchor x="299.4424242424243" y="0.0" name="nukta"/>
  <anchor x="341.74545454545455" y="544.5454545454545" name="top"/>
  <anchor x="308.20000000000005" y="544.5454545454545" name="vedic"/>
  <outline>
    <contour>
      <point x="212.81212121212124" y="-4.0" type="curve" smooth="yes"/>
      <point x="316.9212121212121" y="-4.0"/>
      <point x="382.25454545454545" y="62.62727272727273"/>
      <point x="382.25454545454545" y="182.66666666666666" type="curve" smooth="yes"/>
      <point x="382.25454545454545" y="272.45454545454544" type="line"/>
      <point x="523.2454545454545" y="272.45454545454544" type="line"/>
      <point x="523.2454545454545" y="302.8181818181818" type="line"/>
      <point x="382.25454545454545" y="302.8181818181818" type="line"/>
      <point x="382.25454545454545" y="514.969696969697" type="line"/>
      <point x="523.2454545454545" y="514.969696969697" type="line"/>
      <point x="523.2454545454545" y="544.5454545454545" type="line"/>
      <point x="159.43030303030304" y="544.5454545454545" type="line"/>
      <point x="159.43030303030304" y="283.9515151515152" type="line"/>
      <point x="191.96363636363634" y="283.9515151515152" type="line"/>
      <point x="191.96363636363634" y="514.969696969697" type="line"/>
      <point x="340.7848484848485" y="514.969696969697" type="line"/>
      <point x="340.7848484848485" y="302.8181818181818" type="line"/>
      <point x="208.1181818181818" y="302.8181818181818" type="line" smooth="yes"/>
      <point x="111.25454545454546" y="302.8181818181818"/>
      <point x="60.3090909090909" y="230.55151515151513"/>
      <point x="60.3090909090909" y="148.2909090909091" type="curve" smooth="yes"/>
      <point x="60.3090909090909" y="60.854545454545445"/>
      <point x="116.95454545454544" y="-4.0"/>
    </contour>
    <contour>
      <point x="211.43939393939394" y="26.93939393939394" type="curve" smooth="yes"/>
      <point x="139.5727272727273" y="26.93939393939394"/>
      <point x="97.2121212121212" y="75.84848484848484"/>
      <point x="97.2121212121212" y="149.44242424242427" type="curve" smooth="yes"/>
      <point x="97.2121212121212" y="212.6"/>
      <point x="130.21515151515155" y="272.45454545454544"/>
      <point x="212.5818181818182" y="272.45454545454544" type="curve" smooth="yes"/>
      <point x="340.7848484848485" y="272.45454545454544" type="line"/>
      <point x="340.7848484848485" y="177.4181818181818" type="line" smooth="yes"/>
      <point x="340.7848484848485" y="79.4"/>
      <point x="286.1363636363637" y="26.93939393939394"/>
    </contour>
  </outline>
</glyph>
<glyph name="tta-tamil" format="2">
  <advance width="718.8454545454546"/>
  <unicode hex="0B9F"/>
  <note>
uni0B9F
</note>
  <anchor x="399.45757575757574" y="0.0" name="bottom"/>
  <anchor x="399.45757575757574" y="0.0" name="nukta"/>
  <anchor x="412.72727272727275" y="544.5454545454545" name="top"/>
  <anchor x="398.55151515151516" y="544.5454545454545" name="vedic"/>
  <outline>
    <contour>
      <point x="99.78484848484848" y="0.0" type="line"/>
      <point x="698.4212121212122" y="0.0" type="line"/>
      <point x="698.4212121212122" y="29.575757575757578" type="line"/>
      <point x="141.97878787878787" y="29.575757575757578" type="line"/>
      <point x="141.97878787878787" y="544.5454545454545" type="line"/>
      <point x="99.78484848484848" y="544.5454545454545" type="line"/>
    </contour>
  </outline>
</glyph>
<glyph name="nna-tamil" format="2">
  <advance width="1357.1242424242425"/>
  <unicode hex="0BA3"/>
  <note>
uni0BA3
</note>
  <anchor x="724.5969696969697" y="0.0" name="bottom"/>
  <anchor x="1243.6151515151514" y="544.5454545454545" name="imatra"/>
  <anchor x="724.3" y="0.0" name="nukta"/>
  <anchor x="721.1121212121212" y="544.5454545454545" name="top"/>
  <anchor x="696.3212121212122" y="544.5454545454545" name="vedic"/>
  <outline>
    <contour>
      <point x="548.660606060606" y="-5.0" type="curve" smooth="yes"/>
      <point x="629.0757575757576" y="-5.0"/>
      <point x="684.7909090909092" y="59.89090909090908"/>
      <point x="684.7909090909092" y="179.75151515151515" type="curve" smooth="yes"/>
      <point x="684.7909090909092" y="401.1484848484849"/>
      <point x="542.660606060606" y="552.6969696969697"/>
      <point x="343.3363636363636" y="552.6969696969697" type="curve" smooth="yes"/>
      <point x="166.4666666666667" y="552.6969696969697"/>
      <point x="56.77272727272727" y="423.1636363636364"/>
      <point x="56.77272727272727" y="232.5848484848485" type="curve" smooth="yes"/>
      <point x="56.77272727272727" y="91.28484848484848"/>
      <point x="117.39090909090908" y="-4.148484848484848"/>
      <point x="212.03636363636366" y="-4.148484848484848" type="curve" smooth="yes"/>
      <point x="291.45151515151514" y="-4.148484848484848"/>
      <point x="346.05454545454546" y="51.28181818181818"/>
      <point x="346.05454545454546" y="148.72121212121215" type="curve" smooth="yes"/>
      <point x="346.05454545454546" y="236.14242424242423"/>
      <point x="293.3393939393939" y="287.3060606060606"/>
      <point x="226.02424242424243" y="287.3060606060606" type="curve" smooth="yes"/>
      <point x="147.1242424242424" y="287.3060606060606"/>
      <point x="100.88181818181819" y="221.03030303030303"/>
      <point x="86.19393939393939" y="146.430303030303" type="curve"/>
      <point x="100.06060606060606" y="117.29393939393938" type="line"/>
      <point x="118.09090909090908" y="191.12424242424242"/>
      <point x="153.6939393939394" y="253.33333333333334"/>
      <point x="215.94848484848484" y="253.33333333333334" type="curve" smooth="yes"/>
      <point x="271.2272727272727" y="253.33333333333334"/>
      <point x="305.92121212121214" y="211.33636363636367"/>
      <point x="305.92121212121214" y="144.42424242424244" type="curve" smooth="yes"/>
      <point x="305.92121212121214" y="69.79090909090908"/>
      <point x="265.9424242424243" y="26.93939393939394"/>
      <point x="208.4030303030303" y="26.93939393939394" type="curve" smooth="yes"/>
      <point x="135.83030303030304" y="26.93939393939394"/>
      <point x="89.84242424242424" y="104.52424242424243"/>
      <point x="89.84242424242424" y="230.669696969697" type="curve" smooth="yes"/>
      <point x="89.84242424242424" y="407.6878787878788"/>
      <point x="188.030303030303" y="522.3333333333334"/>
      <point x="338.0" y="522.3333333333334" type="curve" smooth="yes"/>
      <point x="522.060606060606" y="522.3333333333334"/>
      <point x="643.3666666666666" y="382.78181818181815"/>
      <point x="643.3666666666666" y="179.02727272727276" type="curve" smooth="yes"/>
      <point x="643.3666666666666" y="74.57575757575758"/>
      <point x="602.7060606060605" y="26.93939393939394"/>
      <point x="544.1575757575758" y="26.93939393939394" type="curve" smooth="yes"/>
      <point x="486.969696969697" y="26.93939393939394"/>
      <point x="454.4969696969697" y="80.50000000000001"/>
      <point x="454.4969696969697" y="177.26363636363638" type="curve" smooth="yes"/>
      <point x="454.4969696969697" y="359.06060606060606"/>
      <point x="539.7939393939395" y="522.3333333333334"/>
      <point x="718.8484848484849" y="522.3333333333334" type="curve" smooth="yes"/>
      <point x="891.160606060606" y="522.3333333333334"/>
      <point x="990.7666666666668" y="360.7727272727273"/>
      <point x="990.7666666666668" y="177.38181818181818" type="curve" smooth="yes"/>
      <point x="990.7666666666668" y="72.73939393939393"/>
      <point x="949.2545454545455" y="26.93939393939394"/>
      <point x="891.6242424242424" y="26.93939393939394" type="curve" smooth="yes"/>
      <point x="834.6727272727272" y="26.93939393939394"/>
      <point x="801.039393939394" y="80.94545454545455"/>
      <point x="801.039393939394" y="177.45454545454544" type="curve" smooth="yes"/>
      <point x="801.039393939394" y="360.1212121212122"/>
      <point x="907.7454545454545" y="514.969696969697"/>
      <point x="1088.0242424242424" y="514.969696969697" type="curve" smooth="yes"/>
      <point x="1332.330303030303" y="514.969696969697" type="line"/>
      <point x="1332.330303030303" y="544.5454545454545" type="line"/>
      <point x="1092.3666666666666" y="544.5454545454545" type="line" smooth="yes"/>
      <point x="885.739393939394" y="544.5454545454545"/>
      <point x="770.4606060606061" y="373.55151515151516"/>
      <point x="770.4606060606061" y="180.4121212121212" type="curve" smooth="yes"/>
      <point x="770.4606060606061" y="56.875757575757575"/>
      <point x="815.8060606060606" y="-5.0"/>
      <point x="896.0636363636364" y="-5.0" type="curve" smooth="yes"/>
      <point x="975.4969696969697" y="-5.0"/>
      <point x="1032.4272727272728" y="58.24545454545454"/>
      <point x="1032.4272727272728" y="178.04242424242426" type="curve" smooth="yes"/>
      <point x="1032.4272727272728" y="380.5181818181818"/>
      <point x="911.6303030303029" y="552.6969696969697"/>
      <point x="723.3969696969698" y="552.6969696969697" type="curve" smooth="yes"/>
      <point x="518.2393939393941" y="552.6969696969697"/>
      <point x="423.53333333333336" y="371.4939393939394"/>
      <point x="423.53333333333336" y="180.4757575757576" type="curve" smooth="yes"/>
      <point x="423.53333333333336" y="56.74848484848485"/>
      <point x="467.8030303030303" y="-5.0"/>
    </contour>
    <contour>
      <point x="1155.7848484848485" y="0.0" type="line"/>
      <point x="1198.0424242424242" y="0.0" type="line"/>
      <point x="1198.0424242424242" y="528.2121212121212" type="line"/>
      <point x="1155.7848484848485" y="528.2121212121212" type="line"/>
    </contour>
  </outline>
</glyph>
<glyph name="na-tamil" format="2">
  <advance width="638.2878787878789"/>
  <unicode hex="0BA8"/>
  <note>
uni0BA8
</note>
  <anchor x="324.4848484848485" y="0.0" name="bottom"/>
  <anchor x="463.76969696969695" y="544.5454545454545" name="imatra"/>
  <anchor x="335.76363636363635" y="-162.0909090909091" name="nukta"/>
  <anchor x="339.32424242424247" y="544.5454545454545" name="top"/>
  <anchor x="336.38787878787883" y="544.5454545454545" name="vedic"/>
  <outline>
    <contour>
      <point x="130.63030303030305" y="-201.72727272727272" type="curve"/>
      <point x="130.63030303030305" y="-158.72727272727272"/>
      <point x="147.36666666666667" y="-122.59696969696971"/>
      <point x="201.21515151515152" y="-122.59696969696971" type="curve" smooth="yes"/>
      <point x="315.2969696969697" y="-122.59696969696971" type="line" smooth="yes"/>
      <point x="477.5151515151515" y="-122.59696969696971"/>
      <point x="594.3" y="-51.99393939393939"/>
      <point x="594.3" y="146.78181818181818" type="curve" smooth="yes"/>
      <point x="594.3" y="268.77575757575755"/>
      <point x="538.2787878787879" y="331.6060606060606"/>
      <point x="463.9212121212121" y="331.6060606060606" type="curve" smooth="yes"/>
      <point x="398.21818181818185" y="331.6060606060606"/>
      <point x="369.8848484848485" y="287.8757575757576"/>
      <point x="357.91818181818184" y="257.5060606060606" type="curve"/>
      <point x="357.91818181818184" y="514.969696969697" type="line"/>
      <point x="515.3" y="514.969696969697" type="line"/>
      <point x="515.3" y="544.5454545454545" type="line"/>
      <point x="103.58181818181819" y="544.5454545454545" type="line"/>
      <point x="103.58181818181819" y="0.0" type="line"/>
      <point x="136.1151515151515" y="0.0" type="line"/>
      <point x="136.1151515151515" y="514.969696969697" type="line"/>
      <point x="316.2757575757576" y="514.969696969697" type="line"/>
      <point x="316.2757575757576" y="0.0" type="line"/>
      <point x="357.91818181818184" y="0.0" type="line"/>
      <point x="357.91818181818184" y="176.6818181818182" type="line" smooth="yes"/>
      <point x="357.91818181818184" y="227.9"/>
      <point x="388.1151515151515" y="298.9939393939394"/>
      <point x="452.1757575757576" y="298.9939393939394" type="curve" smooth="yes"/>
      <point x="509.6969696969697" y="298.9939393939394"/>
      <point x="549.869696969697" y="251.9212121212121"/>
      <point x="549.869696969697" y="145.23636363636365" type="curve" smooth="yes"/>
      <point x="549.869696969697" y="-35.75151515151515"/>
      <point x="454.9030303030303" y="-92.72424242424243"/>
      <point x="308.07575757575756" y="-92.72424242424243" type="curve" smooth="yes"/>
      <point x="171.0060606060606" y="-92.72424242424243" type="line" smooth="yes"/>
      <point x="119.70606060606062" y="-92.72424242424243"/>
      <point x="81.79090909090908" y="-114.85454545454544"/>
      <point x="81.79090909090908" y="-155.36363636363637" type="curve" smooth="yes"/>
      <point x="81.79090909090908" y="-183.24242424242425"/>
      <point x="99.72121212121212" y="-201.72727272727272"/>
    </contour>
  </outline>
</glyph>
<glyph name="pa-tamil" format="2">
  <advance width="727.0424242424242"/>
  <unicode hex="0BAA"/>
  <note>
uni0BAA
</note>
  <anchor x="364.8727272727273" y="0.0" name="bottom"/>
  <anchor x="620.1212121212121" y="544.5454545454545" name="imatra"/>
  <anchor x="364.8727272727273" y="0.0" name="nukta"/>
  <anchor x="367.01818181818186" y="544.5454545454545" name="top"/>
  <anchor x="363.6909090909091" y="544.5454545454545" name="vedic"/>
  <outline>
    <contour>
      <point x="99.78484848484848" y="0.0" type="line"/>
      <point x="627.7242424242424" y="0.0" type="line"/>
      <point x="627.7242424242424" y="544.5454545454545" type="line"/>
      <point x="585.6151515151515" y="544.5454545454545" type="line"/>
      <point x="585.6151515151515" y="29.575757575757578" type="line"/>
      <point x="141.97878787878787" y="29.575757575757578" type="line"/>
      <point x="141.97878787878787" y="544.5454545454545" type="line"/>
      <point x="99.78484848484848" y="544.5454545454545" type="line"/>
    </contour>
  </outline>
</glyph>
<glyph name="ma-tamil" format="2">
  <advance width="739.1030303030302"/>
  <unicode hex="0BAE"/>
  <note>
uni0BAE
</note>
  <anchor x="373.57575757575756" y="0.0" name="bottom"/>
  <anchor x="660.3606060606061" y="544.5454545454545" name="imatra"/>
  <anchor x="374.57575757575756" y="0.0" name="nukta"/>
  <anchor x="396.5090909090909" y="544.5454545454545" name="top"/>
  <anchor x="389.73939393939395" y="544.5454545454545" name="vedic"/>
  <outline>
    <contour>
      <point x="99.78484848484848" y="0.0" type="line"/>
      <point x="546.8939393939395" y="0.0" type="line" smooth="yes"/>
      <point x="643.6090909090909" y="0.0"/>
      <point x="680.690909090909" y="75.45151515151514"/>
      <point x="680.690909090909" y="217.30303030303028" type="curve" smooth="yes"/>
      <point x="680.690909090909" y="418.72424242424245"/>
      <point x="613.9969696969697" y="552.6969696969697"/>
      <point x="490.1090909090909" y="552.6969696969697" type="curve" smooth="yes"/>
      <point x="402.3272727272727" y="552.6969696969697"/>
      <point x="372.44242424242424" y="488.0090909090909"/>
      <point x="372.44242424242424" y="392.1818181818182" type="curve" smooth="yes"/>
      <point x="372.44242424242424" y="29.575757575757578" type="line"/>
      <point x="141.97878787878787" y="29.575757575757578" type="line"/>
      <point x="141.97878787878787" y="544.5454545454545" type="line"/>
      <point x="99.78484848484848" y="544.5454545454545" type="line"/>
    </contour>
    <contour>
      <point x="414.70000000000005" y="29.575757575757578" type="line"/>
      <point x="414.70000000000005" y="392.39393939393943" type="line" smooth="yes"/>
      <point x="414.70000000000005" y="476.3545454545455"/>
      <point x="434.09999999999997" y="520.7212121212121"/>
      <point x="496.1515151515152" y="520.7212121212121" type="curve" smooth="yes"/>
      <point x="589.0030303030304" y="520.7212121212121"/>
      <point x="647.5363636363636" y="398.2666666666667"/>
      <point x="647.5363636363636" y="215.30303030303028" type="curve" smooth="yes"/>
      <point x="647.5363636363636" y="94.81515151515151"/>
      <point x="619.0787878787879" y="29.575757575757578"/>
      <point x="541.0272727272727" y="29.575757575757578" type="curve" smooth="yes"/>
    </contour>
  </outline>
</glyph>
<glyph name="ya-tamil" format="2">
  <advance width="774.5212121212122"/>
  <unicode hex="0BAF"/>
  <note>
uni0BAF
</note>
  <anchor x="399.45151515151514" y="0.0" name="bottom"/>
  <anchor x="668.4060606060606" y="544.5454545454545" name="imatra"/>
  <anchor x="399.8969696969697" y="0.0" name="nukta"/>
  <anchor x="401.99696969696976" y="544.5454545454545" name="top"/>
  <anchor x="388.2878787878788" y="544.5454545454545" name="vedic"/>
  <outline>
    <contour>
      <point x="207.74848484848485" y="-5.0" type="curve" smooth="yes"/>
      <point x="259.6454545454545" y="-5.0"/>
      <point x="293.6878787878788" y="25.796969696969697"/>
      <point x="310.0060606060606" y="61.9" type="curve"/>
      <point x="310.0060606060606" y="0.0" type="line"/>
      <point x="675.2030303030303" y="0.0" type="line"/>
      <point x="675.2030303030303" y="544.5454545454545" type="line"/>
      <point x="633.260606060606" y="544.5454545454545" type="line"/>
      <point x="633.260606060606" y="29.575757575757578" type="line"/>
      <point x="349.2878787878788" y="29.575757575757578" type="line"/>
      <point x="349.2878787878788" y="544.5454545454545" type="line"/>
      <point x="307.1575757575757" y="544.5454545454545" type="line"/>
      <point x="307.1575757575757" y="137.73333333333332" type="line" smooth="yes"/>
      <point x="307.1575757575757" y="76.94545454545455"/>
      <point x="269.53939393939396" y="28.424242424242426"/>
      <point x="216.40606060606058" y="28.424242424242426" type="curve" smooth="yes"/>
      <point x="168.96969696969697" y="28.424242424242426"/>
      <point x="139.64545454545456" y="60.62424242424242"/>
      <point x="139.64545454545456" y="130.54545454545456" type="curve" smooth="yes"/>
      <point x="139.64545454545456" y="544.5454545454545" type="line"/>
      <point x="98.06666666666666" y="544.5454545454545" type="line"/>
      <point x="98.06666666666666" y="136.35151515151514" type="line" smooth="yes"/>
      <point x="98.06666666666666" y="39.72121212121212"/>
      <point x="142.3969696969697" y="-5.0"/>
    </contour>
  </outline>
</glyph>
<glyph name="la-tamil" format="2">
  <advance width="836.2878787878789"/>
  <unicode hex="0BB2"/>
  <note>
uni0BB2
</note>
  <anchor x="424.8454545454546" y="0.0" name="bottom"/>
  <anchor x="424.8454545454546" y="0.0" name="nukta"/>
  <anchor x="433.8818181818181" y="544.5454545454545" name="top"/>
  <anchor x="419.77878787878785" y="544.5454545454545" name="vedic"/>
  <outline>
    <contour>
      <point x="213.43636363636367" y="-4.148484848484848" type="curve" smooth="yes"/>
      <point x="293.40303030303033" y="-4.148484848484848"/>
      <point x="346.7545454545455" y="52.46363636363636"/>
      <point x="346.7545454545455" y="147.14545454545456" type="curve" smooth="yes"/>
      <point x="346.7545454545455" y="235.35454545454544"/>
      <point x="295.1424242424242" y="287.3060606060606"/>
      <point x="225.53333333333333" y="287.3060606060606" type="curve" smooth="yes"/>
      <point x="143.8060606060606" y="287.3060606060606"/>
      <point x="100.33030303030304" y="216.69696969696972"/>
      <point x="86.19393939393939" y="146.1939393939394" type="curve"/>
      <point x="100.06060606060606" y="117.05757575757576" type="line"/>
      <point x="117.94242424242424" y="190.65151515151516"/>
      <point x="153.84242424242422" y="253.33333333333334"/>
      <point x="216.24545454545452" y="253.33333333333334" type="curve" smooth="yes"/>
      <point x="272.62727272727267" y="253.33333333333334"/>
      <point x="306.769696969697" y="209.76060606060608"/>
      <point x="306.769696969697" y="142.84848484848484" type="curve" smooth="yes"/>
      <point x="306.769696969697" y="68.2151515151515"/>
      <point x="265.06666666666666" y="26.93939393939394"/>
      <point x="208.63030303030305" y="26.93939393939394" type="curve" smooth="yes"/>
      <point x="136.36363636363637" y="26.93939393939394"/>
      <point x="89.84242424242424" y="101.53030303030305"/>
      <point x="89.84242424242424" y="232.24545454545458" type="curve" smooth="yes"/>
      <point x="89.84242424242424" y="393.56060606060606"/>
      <point x="154.5818181818182" y="522.3333333333334"/>
      <point x="295.2787878787879" y="522.3333333333334" type="curve" smooth="yes"/>
      <point x="396.3515151515152" y="522.3333333333334"/>
      <point x="462.63333333333327" y="457.94242424242424"/>
      <point x="462.63333333333327" y="334.41818181818184" type="curve" smooth="yes"/>
      <point x="462.63333333333327" y="148.27272727272728" type="line" smooth="yes"/>
      <point x="462.63333333333327" y="50.981818181818184"/>
      <point x="505.0060606060606" y="-3.1515151515151514"/>
      <point x="586.6151515151515" y="-3.1515151515151514" type="curve" smooth="yes"/>
      <point x="691.1060606060606" y="-3.1515151515151514"/>
      <point x="778.3424242424243" y="99.04545454545455"/>
      <point x="778.3424242424243" y="282.93939393939394" type="curve" smooth="yes"/>
      <point x="778.3424242424243" y="384.16969696969693"/>
      <point x="754.9212121212121" y="466.42121212121214"/>
      <point x="690.0" y="550.6484848484848" type="curve"/>
      <point x="662.4666666666666" y="530.6545454545454" type="line"/>
      <point x="716.8878787878788" y="462.4909090909091"/>
      <point x="744.9757575757576" y="388.71515151515155"/>
      <point x="744.9757575757576" y="285.06060606060606" type="curve" smooth="yes"/>
      <point x="744.9757575757576" y="117.05454545454546"/>
      <point x="669.5393939393939" y="28.272727272727273"/>
      <point x="591.3272727272728" y="28.272727272727273" type="curve" smooth="yes"/>
      <point x="528.1272727272727" y="28.272727272727273"/>
      <point x="504.8909090909091" y="71.66969696969697"/>
      <point x="504.8909090909091" y="147.03636363636363" type="curve" smooth="yes"/>
      <point x="504.8909090909091" y="333.41515151515154" type="line" smooth="yes"/>
      <point x="504.8909090909091" y="482.95454545454544"/>
      <point x="418.45757575757574" y="552.6969696969697"/>
      <point x="298.1848484848485" y="552.6969696969697" type="curve" smooth="yes"/>
      <point x="134.2151515151515" y="552.6969696969697"/>
      <point x="56.77272727272727" y="408.93030303030304"/>
      <point x="56.77272727272727" y="233.37272727272727" type="curve" smooth="yes"/>
      <point x="56.77272727272727" y="87.66060606060607"/>
      <point x="116.90909090909089" y="-4.148484848484848"/>
    </contour>
  </outline>
</glyph>
<glyph name="lla-tamil" format="2">
  <advance width="991.390909090909"/>
  <unicode hex="0BB3"/>
  <note>
uni0BB3
</note>
  <anchor x="507.46666666666664" y="0.0" name="bottom"/>
  <anchor x="914.4151515151516" y="544.5454545454545" name="imatra"/>
  <anchor x="507.97272727272724" y="0.0" name="nukta"/>
  <anchor x="535.069696969697" y="544.5454545454545" name="top"/>
  <anchor x="515.2757575757576" y="544.5454545454545" name="vedic"/>
  <outline>
    <contour>
      <point x="212.74242424242428" y="-4.148484848484848" type="curve" smooth="yes"/>
      <point x="292.22121212121215" y="-4.148484848484848"/>
      <point x="346.20303030303035" y="51.28181818181818"/>
      <point x="346.20303030303035" y="148.72121212121215" type="curve" smooth="yes"/>
      <point x="346.20303030303035" y="236.14242424242423"/>
      <point x="293.48787878787874" y="287.3060606060606"/>
      <point x="226.32121212121214" y="287.3060606060606" type="curve" smooth="yes"/>
      <point x="147.20909090909092" y="287.3060606060606"/>
      <point x="100.81818181818181" y="221.26666666666668"/>
      <point x="86.13030303030304" y="146.430303030303" type="curve"/>
      <point x="99.99696969696971" y="117.05757575757576" type="line"/>
      <point x="118.02727272727272" y="190.88787878787878"/>
      <point x="153.77878787878788" y="253.33333333333334"/>
      <point x="216.24545454545452" y="253.33333333333334" type="curve" smooth="yes"/>
      <point x="271.4606060606061" y="253.33333333333334"/>
      <point x="306.1545454545454" y="211.33636363636367"/>
      <point x="306.1545454545454" y="144.42424242424244" type="curve" smooth="yes"/>
      <point x="306.1545454545454" y="69.79090909090908"/>
      <point x="266.0272727272727" y="26.93939393939394"/>
      <point x="208.4878787878788" y="26.93939393939394" type="curve" smooth="yes"/>
      <point x="135.46363636363637" y="26.93939393939394"/>
      <point x="89.84242424242424" y="105.37878787878788"/>
      <point x="89.84242424242424" y="231.1060606060606" type="curve" smooth="yes"/>
      <point x="89.84242424242424" y="403.26060606060605"/>
      <point x="170.3242424242424" y="522.3333333333334"/>
      <point x="310.50606060606066" y="522.3333333333334" type="curve" smooth="yes"/>
      <point x="422.6545454545454" y="522.3333333333334"/>
      <point x="514.0090909090909" y="453.9787878787879"/>
      <point x="514.0090909090909" y="280.5787878787879" type="curve"/>
      <point x="544.3515151515152" y="282.3636363636364" type="line"/>
      <point x="541.8484848484849" y="476.2030303030303"/>
      <point x="444.21212121212125" y="552.6969696969697"/>
      <point x="309.29696969696965" y="552.6969696969697" type="curve" smooth="yes"/>
      <point x="148.63939393939395" y="552.6969696969697"/>
      <point x="56.77272727272727" y="419.96363636363634"/>
      <point x="56.77272727272727" y="232.89393939393938" type="curve" smooth="yes"/>
      <point x="56.77272727272727" y="90.72121212121212"/>
      <point x="116.51212121212122" y="-4.148484848484848"/>
    </contour>
    <contour>
      <point x="514.0090909090909" y="0.0" type="line"/>
      <point x="556.1181818181818" y="0.0" type="line"/>
      <point x="556.1181818181818" y="514.969696969697" type="line"/>
      <point x="767.8878787878788" y="514.969696969697" type="line"/>
      <point x="767.8878787878788" y="0.0" type="line"/>
      <point x="809.9333333333333" y="0.0" type="line"/>
      <point x="809.9333333333333" y="514.969696969697" type="line"/>
      <point x="966.5969696969696" y="514.969696969697" type="line"/>
      <point x="966.5969696969696" y="544.5454545454545" type="line"/>
      <point x="517.5515151515151" y="544.5454545454545" type="line"/>
      <point x="517.5515151515151" y="383.8484848484849" type="line"/>
      <point x="514.0090909090909" y="362.3030303030303" type="line"/>
    </contour>
  </outline>
</glyph>
<glyph name="va-tamil" format="2">
  <advance width="934.709090909091"/>
  <unicode hex="0BB5"/>
  <note>
uni0BB5
</note>
  <anchor x="478.60606060606057" y="0.0" name="bottom"/>
  <anchor x="799.5212121212122" y="544.5454545454545" name="imatra"/>
  <anchor x="478.60606060606057" y="0.0" name="nukta"/>
  <anchor x="464.6151515151515" y="544.5454545454545" name="top"/>
  <anchor x="455.8333333333333" y="544.5454545454545" name="vedic"/>
  <outline>
    <contour>
      <point x="212.33333333333337" y="-4.148484848484848" type="curve" smooth="yes"/>
      <point x="291.7484848484849" y="-4.148484848484848"/>
      <point x="346.20303030303035" y="50.809090909090905"/>
      <point x="346.20303030303035" y="148.24848484848485" type="curve" smooth="yes"/>
      <point x="346.20303030303035" y="235.9060606060606"/>
      <point x="293.48787878787874" y="287.3060606060606"/>
      <point x="226.08484848484846" y="287.3060606060606" type="curve" smooth="yes"/>
      <point x="146.56363636363636" y="287.3060606060606"/>
      <point x="100.88181818181819" y="220.55757575757576"/>
      <point x="86.19393939393939" y="146.1939393939394" type="curve"/>
      <point x="100.06060606060606" y="117.05757575757576" type="line"/>
      <point x="117.94242424242424" y="190.65151515151516"/>
      <point x="153.84242424242422" y="253.33333333333334"/>
      <point x="216.24545454545452" y="253.33333333333334" type="curve" smooth="yes"/>
      <point x="271.5242424242424" y="253.33333333333334"/>
      <point x="306.21818181818185" y="210.86363636363637"/>
      <point x="306.21818181818185" y="143.95151515151514" type="curve" smooth="yes"/>
      <point x="306.21818181818185" y="69.31818181818181"/>
      <point x="265.6181818181818" y="26.93939393939394"/>
      <point x="208.0787878787879" y="26.93939393939394" type="curve" smooth="yes"/>
      <point x="134.70909090909092" y="26.93939393939394"/>
      <point x="89.84242424242424" y="105.94242424242425"/>
      <point x="89.84242424242424" y="231.14242424242425" type="curve" smooth="yes"/>
      <point x="89.84242424242424" y="400.09999999999997"/>
      <point x="172.91212121212124" y="522.3333333333334"/>
      <point x="319.0878787878788" y="522.3333333333334" type="curve" smooth="yes"/>
      <point x="448.5333333333333" y="522.3333333333334"/>
      <point x="549.0939393939394" y="429.0242424242424"/>
      <point x="549.0939393939394" y="261.3333333333333" type="curve" smooth="yes"/>
      <point x="549.0939393939394" y="151.4969696969697"/>
      <point x="511.5878787878788" y="80.44242424242424"/>
      <point x="469.2424242424242" y="23.645454545454548" type="curve"/>
      <point x="482.7878787878788" y="0.0" type="line"/>
      <point x="835.390909090909" y="0.0" type="line"/>
      <point x="835.390909090909" y="544.5454545454545" type="line"/>
      <point x="793.1333333333334" y="544.5454545454545" type="line"/>
      <point x="793.1333333333334" y="29.575757575757578" type="line"/>
      <point x="513.2515151515152" y="29.575757575757578" type="line"/>
      <point x="553.6878787878788" y="86.22121212121213"/>
      <point x="590.8212121212122" y="158.06363636363636"/>
      <point x="590.8212121212122" y="262.1363636363636" type="curve" smooth="yes"/>
      <point x="590.8212121212122" y="447.04848484848486"/>
      <point x="477.28181818181815" y="552.6969696969697"/>
      <point x="325.1454545454545" y="552.6969696969697" type="curve" smooth="yes"/>
      <point x="152.55151515151513" y="552.6969696969697"/>
      <point x="56.77272727272727" y="414.3848484848485"/>
      <point x="56.77272727272727" y="232.8212121212121" type="curve" smooth="yes"/>
      <point x="56.77272727272727" y="91.52121212121213"/>
      <point x="116.35757575757575" y="-4.148484848484848"/>
    </contour>
  </outline>
</glyph>
<glyph name="sa-tamil" format="2">
  <advance width="1060.2636363636364"/>
  <unicode hex="0BB8"/>
  <note>
uni0BB8
</note>
  <anchor x="543.3000000000001" y="0.0" name="bottom"/>
  <anchor x="543.3000000000001" y="0.0" name="nukta"/>
  <anchor x="534.0666666666667" y="544.5454545454545" name="top"/>
  <anchor x="530.5909090909091" y="544.5454545454545" name="vedic"/>
  <outline>
    <contour>
      <point x="481.7818181818182" y="0.0" type="line"/>
      <point x="523.8030303030304" y="0.0" type="line"/>
      <point x="523.8030303030304" y="422.07272727272726" type="line" smooth="yes"/>
      <point x="523.8030303030304" y="487.3424242424243"/>
      <point x="554.6393939393939" y="522.1212121212121"/>
      <point x="606.1121212121212" y="522.1212121212121" type="curve" smooth="yes"/>
      <point x="657.5909090909091" y="522.1212121212121"/>
      <point x="685.9727272727272" y="485.69696969696975"/>
      <point x="685.9727272727272" y="422.57272727272726" type="curve" smooth="yes"/>
      <point x="685.9727272727272" y="148.5909090909091" type="line" smooth="yes"/>
      <point x="685.9727272727272" y="51.300000000000004"/>
      <point x="728.1969696969697" y="-3.1515151515151514"/>
      <point x="810.1909090909091" y="-3.1515151515151514" type="curve" smooth="yes"/>
      <point x="915.1454545454546" y="-3.1515151515151514"/>
      <point x="1002.3181818181819" y="99.04545454545455"/>
      <point x="1002.3181818181819" y="282.93939393939394" type="curve" smooth="yes"/>
      <point x="1002.3181818181819" y="384.40606060606063"/>
      <point x="979.130303030303" y="465.3818181818182"/>
      <point x="913.530303030303" y="549.5454545454545" type="curve"/>
      <point x="885.6787878787878" y="529.9121212121212" type="line"/>
      <point x="940.3787878787878" y="461.4939393939394"/>
      <point x="968.3151515151515" y="388.95151515151514"/>
      <point x="968.3151515151515" y="285.06060606060606" type="curve" smooth="yes"/>
      <point x="968.3151515151515" y="117.05454545454546"/>
      <point x="892.8787878787878" y="28.272727272727273"/>
      <point x="814.6909090909091" y="28.272727272727273" type="curve" smooth="yes"/>
      <point x="752.7" y="28.272727272727273"/>
      <point x="728.0818181818181" y="71.66969696969697"/>
      <point x="728.0818181818181" y="147.35454545454547" type="curve" smooth="yes"/>
      <point x="728.0818181818181" y="416.96363636363634" type="line" smooth="yes"/>
      <point x="728.0818181818181" y="507.32727272727277"/>
      <point x="681.0757575757576" y="552.6969696969697"/>
      <point x="610.2272727272727" y="552.6969696969697" type="curve" smooth="yes"/>
      <point x="537.0272727272727" y="552.6969696969697"/>
      <point x="493.4545454545454" y="499.39696969696973"/>
      <point x="493.4545454545454" y="428.2212121212121" type="curve" smooth="yes"/>
      <point x="493.4545454545454" y="376.43636363636364" type="line"/>
      <point x="481.7818181818182" y="376.43636363636364" type="line"/>
    </contour>
    <contour>
      <point x="216.6757575757576" y="-4.148484848484848" type="curve" smooth="yes"/>
      <point x="296.70606060606065" y="-4.148484848484848"/>
      <point x="350.2060606060606" y="52.46363636363636"/>
      <point x="350.2060606060606" y="147.14545454545456" type="curve" smooth="yes"/>
      <point x="350.2060606060606" y="235.35454545454544"/>
      <point x="298.5939393939394" y="287.3060606060606"/>
      <point x="228.6" y="287.3060606060606" type="curve" smooth="yes"/>
      <point x="147.1939393939394" y="287.3060606060606"/>
      <point x="103.86666666666666" y="216.69696969696972"/>
      <point x="89.73030303030303" y="146.1939393939394" type="curve"/>
      <point x="103.59696969696971" y="117.05757575757576" type="line"/>
      <point x="121.62727272727271" y="190.65151515151516"/>
      <point x="157.230303030303" y="253.33333333333334"/>
      <point x="219.4848484848485" y="253.33333333333334" type="curve" smooth="yes"/>
      <point x="275.8666666666667" y="253.33333333333334"/>
      <point x="310.0090909090909" y="209.76060606060608"/>
      <point x="310.0090909090909" y="142.84848484848484" type="curve" smooth="yes"/>
      <point x="310.0090909090909" y="68.2151515151515"/>
      <point x="268.4545454545455" y="26.93939393939394"/>
      <point x="212.01818181818183" y="26.93939393939394" type="curve" smooth="yes"/>
      <point x="138.86060606060607" y="26.93939393939394"/>
      <point x="92.89090909090908" y="101.91212121212122"/>
      <point x="92.89090909090908" y="233.39090909090908" type="curve" smooth="yes"/>
      <point x="92.89090909090908" y="392.60606060606057"/>
      <point x="159.0060606060606" y="522.3333333333334"/>
      <point x="301.5515151515151" y="522.3333333333334" type="curve" smooth="yes"/>
      <point x="401.6242424242424" y="522.3333333333334"/>
      <point x="481.7818181818182" y="465.8121212121212"/>
      <point x="481.7818181818182" y="324.3424242424242" type="curve"/>
      <point x="513.0878787878788" y="324.3787878787879" type="line"/>
      <point x="511.9212121212121" y="488.3"/>
      <point x="420.3606060606061" y="552.6969696969697"/>
      <point x="302.75757575757575" y="552.6969696969697" type="curve" smooth="yes"/>
      <point x="138.53636363636363" y="552.6969696969697"/>
      <point x="60.3090909090909" y="408.50606060606066"/>
      <point x="60.3090909090909" y="234.39090909090908" type="curve" smooth="yes"/>
      <point x="60.3090909090909" y="88.04242424242425"/>
      <point x="120.04242424242422" y="-4.148484848484848"/>
    </contour>
  </outline>
</glyph>
<glyph name="ha-tamil" format="2">
  <advance width="1306.6272727272728"/>
  <unicode hex="0BB9"/>
  <note>
uni0BB9
</note>
  <anchor x="668.1060606060606" y="0.0" name="bottom"/>
  <anchor x="668.1060606060606" y="-141.75757575757575" name="nukta"/>
  <anchor x="670.8424242424243" y="546.6727272727272" name="top"/>
  <anchor x="662.9242424242425" y="544.5454545454545" name="vedic"/>
  <outline>
    <contour>
      <point x="157.10909090909092" y="-203.0212121212121" type="curve"/>
      <point x="157.10909090909092" y="-160.29696969696968"/>
      <point x="173.20606060606062" y="-123.51212121212122"/>
      <point x="227.14242424242425" y="-123.51212121212122" type="curve" smooth="yes"/>
      <point x="867.7424242424241" y="-123.51212121212122" type="line" smooth="yes"/>
      <point x="1099.2575757575758" y="-123.51212121212122"/>
      <point x="1248.2969696969699" y="-27.566666666666666"/>
      <point x="1248.2969696969699" y="259.6212121212121" type="curve" smooth="yes"/>
      <point x="1248.2969696969699" y="436.1545454545454"/>
      <point x="1189.2181818181818" y="552.6969696969697"/>
      <point x="1057.3090909090909" y="552.6969696969697" type="curve" smooth="yes"/>
      <point x="980.0212121212122" y="552.6969696969697"/>
      <point x="943.2454545454544" y="508.9393939393939"/>
      <point x="928.8151515151516" y="472.3181818181818" type="curve"/>
      <point x="916.2969696969698" y="510.55454545454546"/>
      <point x="886.4333333333333" y="552.4848484848485"/>
      <point x="820.6666666666666" y="552.4848484848485" type="curve" smooth="yes"/>
      <point x="749.0848484848485" y="552.4848484848485"/>
      <point x="704.360606060606" y="501.2575757575757"/>
      <point x="704.360606060606" y="409.2272727272727" type="curve" smooth="yes"/>
      <point x="704.360606060606" y="29.575757575757578" type="line"/>
      <point x="513.2515151515152" y="29.575757575757578" type="line"/>
      <point x="553.6878787878788" y="86.22121212121213"/>
      <point x="590.8212121212122" y="158.06363636363636"/>
      <point x="590.8212121212122" y="262.1363636363636" type="curve" smooth="yes"/>
      <point x="590.8212121212122" y="447.04848484848486"/>
      <point x="477.28181818181815" y="552.6969696969697"/>
      <point x="325.1454545454545" y="552.6969696969697" type="curve" smooth="yes"/>
      <point x="152.55151515151513" y="552.6969696969697"/>
      <point x="56.77272727272727" y="414.3848484848485"/>
      <point x="56.77272727272727" y="232.8212121212121" type="curve" smooth="yes"/>
      <point x="56.77272727272727" y="91.52121212121213"/>
      <point x="116.35757575757575" y="-4.148484848484848"/>
      <point x="212.33333333333337" y="-4.148484848484848" type="curve" smooth="yes"/>
      <point x="291.7484848484849" y="-4.148484848484848"/>
      <point x="346.20303030303035" y="50.809090909090905"/>
      <point x="346.20303030303035" y="148.24848484848485" type="curve" smooth="yes"/>
      <point x="346.20303030303035" y="235.9060606060606"/>
      <point x="293.48787878787874" y="287.3060606060606"/>
      <point x="226.08484848484846" y="287.3060606060606" type="curve" smooth="yes"/>
      <point x="146.56363636363636" y="287.3060606060606"/>
      <point x="100.88181818181819" y="220.55757575757576"/>
      <point x="86.19393939393939" y="146.1939393939394" type="curve"/>
      <point x="100.06060606060606" y="117.05757575757576" type="line"/>
      <point x="118.09090909090908" y="190.65151515151516"/>
      <point x="153.84242424242422" y="253.33333333333334"/>
      <point x="216.24545454545452" y="253.33333333333334" type="curve" smooth="yes"/>
      <point x="271.5242424242424" y="253.33333333333334"/>
      <point x="306.21818181818185" y="210.86363636363637"/>
      <point x="306.21818181818185" y="143.95151515151514" type="curve" smooth="yes"/>
      <point x="306.21818181818185" y="69.31818181818181"/>
      <point x="265.6181818181818" y="26.93939393939394"/>
      <point x="208.0787878787879" y="26.93939393939394" type="curve" smooth="yes"/>
      <point x="134.70909090909092" y="26.93939393939394"/>
      <point x="89.84242424242424" y="105.94242424242425"/>
      <point x="89.84242424242424" y="231.14242424242425" type="curve" smooth="yes"/>
      <point x="89.84242424242424" y="400.09999999999997"/>
      <point x="172.91212121212124" y="522.3333333333334"/>
      <point x="319.0878787878788" y="522.3333333333334" type="curve" smooth="yes"/>
      <point x="448.5333333333333" y="522.3333333333334"/>
      <point x="549.0939393939394" y="429.0242424242424"/>
      <point x="549.0939393939394" y="261.3333333333333" type="curve" smooth="yes"/>
      <point x="549.0939393939394" y="151.4969696969697"/>
      <point x="511.5878787878788" y="80.44242424242424"/>
      <point x="469.2424242424242" y="23.645454545454548" type="curve"/>
      <point x="482.7878787878788" y="0.0" type="line"/>
      <point x="737.0424242424243" y="0.0" type="line"/>
      <point x="737.0424242424243" y="413.25454545454545" type="line" smooth="yes"/>
      <point x="737.0424242424243" y="482.7151515151515"/>
      <point x="767.0181818181818" y="522.1212121212121"/>
      <point x="820.7515151515152" y="522.1212121212121" type="curve" smooth="yes"/>
      <point x="873.1878787878787" y="522.1212121212121"/>
      <point x="907.3909090909092" y="483.5666666666667"/>
      <point x="907.3909090909092" y="412.7272727272727" type="curve" smooth="yes"/>
      <point x="907.3909090909092" y="0.0" type="line"/>
      <point x="949.0969696969697" y="0.0" type="line"/>
      <point x="949.0969696969697" y="411.7272727272727" type="line" smooth="yes"/>
      <point x="949.0969696969697" y="483.23636363636365"/>
      <point x="996.2" y="522.3333333333334"/>
      <point x="1055.909090909091" y="522.3333333333334" type="curve" smooth="yes"/>
      <point x="1134.530303030303" y="522.3333333333334"/>
      <point x="1205.4424242424243" y="462.6060606060606"/>
      <point x="1205.4424242424243" y="261.8515151515152" type="curve" smooth="yes"/>
      <point x="1205.4424242424243" y="-11.218181818181813"/>
      <point x="1069.2454545454545" y="-92.80606060606061"/>
      <point x="858.9424242424243" y="-92.80606060606061" type="curve" smooth="yes"/>
      <point x="196.93333333333334" y="-92.80606060606061" type="line" smooth="yes"/>
      <point x="146.18484848484846" y="-92.80606060606061"/>
      <point x="108.03333333333335" y="-116.17272727272729"/>
      <point x="108.03333333333335" y="-156.65757575757573" type="curve" smooth="yes"/>
      <point x="108.03333333333335" y="-185.17272727272726"/>
      <point x="126.4969696969697" y="-203.0212121212121"/>
    </contour>
  </outline>
</glyph>
<glyph name="aaMatra-tamil" format="2">
  <advance width="570.839393939394"/>
  <unicode hex="0BBE"/>
  <note>
uni0BBE
</note>
  <anchor x="307.1515151515151" y="0.0" name="bottom"/>
  <anchor x="306.7030303030303" y="0.0" name="nukta"/>
  <anchor x="300.7030303030303" y="544.5454545454545" name="top"/>
  <anchor x="300.7030303030303" y="544.5454545454545" name="vedic"/>
  <outline>
    <contour>
      <point x="99.78484848484848" y="0.0" type="line"/>
      <point x="132.61515151515152" y="0.0" type="line"/>
      <point x="132.61515151515152" y="514.969696969697" type="line"/>
      <point x="346.6363636363636" y="514.969696969697" type="line"/>
      <point x="346.6363636363636" y="0.0" type="line"/>
      <point x="388.830303030303" y="0.0" type="line"/>
      <point x="388.830303030303" y="514.969696969697" type="line"/>
      <point x="546.0454545454546" y="514.969696969697" type="line"/>
      <point x="546.0454545454546" y="544.5454545454545" type="line"/>
      <point x="99.78484848484848" y="544.5454545454545" type="line"/>
    </contour>
  </outline>
</glyph>
<glyph name="iMatra-tamil" format="2">
  <advance width="189.6242424242424"/>
  <unicode hex="0BBF"/>
  <note>
uni0BBF
</note>
  <anchor x="-104.03030303030303" y="793.9121212121213" name="top"/>
  <outline>
    <contour>
      <point x="68.53636363636363" y="0.0" type="line"/>
      <point x="102.33030303030304" y="0.0" type="line"/>
      <point x="102.33030303030304" y="557.4212121212122" type="line" smooth="yes"/>
      <point x="102.33030303030304" y="712.7848484848485"/>
      <point x="17.412121212121214" y="793.9121212121213"/>
      <point x="-104.03030303030303" y="793.9121212121213" type="curve" smooth="yes"/>
      <point x="-205.2969696969697" y="793.9121212121213"/>
      <point x="-267.42424242424244" y="725.1121212121212"/>
      <point x="-267.42424242424244" y="645.5424242424243" type="curve" smooth="yes"/>
      <point x="-267.42424242424244" y="560.4818181818183"/>
      <point x="-208.91515151515154" y="514.969696969697"/>
      <point x="-138.10303030303032" y="514.969696969697" type="curve" smooth="yes"/>
      <point x="-131.84242424242427" y="514.969696969697" type="line"/>
      <point x="-131.84242424242427" y="544.5454545454545" type="line"/>
      <point x="-136.2909090909091" y="544.5454545454545" type="line" smooth="yes"/>
      <point x="-191.34545454545457" y="544.5454545454545"/>
      <point x="-232.46666666666664" y="579.2636363636364"/>
      <point x="-232.46666666666664" y="638.6969696969697" type="curve" smooth="yes"/>
      <point x="-232.46666666666664" y="700.6545454545454"/>
      <point x="-185.43333333333334" y="751.2060606060605"/>
      <point x="-105.7090909090909" y="751.2060606060605" type="curve" smooth="yes"/>
      <point x="-6.6999999999999975" y="751.2060606060605"/>
      <point x="68.53636363636363" y="688.190909090909"/>
      <point x="68.53636363636363" y="542.1545454545454" type="curve" smooth="yes"/>
    </contour>
  </outline>
</glyph>
<glyph name="iiMatra-tamil" format="2">
  <unicode hex="0BC0"/>
  <note>
uni0BC0
</note>
  <anchor x="0.0" y="544.5454545454545" name="_imatra"/>
  <anchor x="3.5393939393939395" y="874.1212121212121" name="top"/>
  <outline>
    <contour>
      <point x="-13.924242424242426" y="517.6060606060606" type="curve" smooth="yes"/>
      <point x="0.0" y="517.6060606060606" type="line"/>
      <point x="0.0" y="544.5454545454545" type="line"/>
      <point x="-13.478787878787879" y="544.5454545454545" type="line" smooth="yes"/>
      <point x="-88.7909090909091" y="544.5454545454545"/>
      <point x="-130.3939393939394" y="598.9575757575757"/>
      <point x="-130.3939393939394" y="684.9454545454545" type="curve" smooth="yes"/>
      <point x="-130.3939393939394" y="774.8060606060606"/>
      <point x="-90.93939393939395" y="845.3333333333334"/>
      <point x="1.5181818181818176" y="845.3333333333334" type="curve" smooth="yes"/>
      <point x="69.2151515151515" y="845.3333333333334"/>
      <point x="116.9909090909091" y="802.6363636363636"/>
      <point x="116.9909090909091" y="731.969696969697" type="curve" smooth="yes"/>
      <point x="116.9909090909091" y="679.8666666666667"/>
      <point x="90.02727272727273" y="647.3333333333334"/>
      <point x="45.31212121212121" y="647.3333333333334" type="curve" smooth="yes"/>
      <point x="-28.487878787878792" y="647.3333333333334"/>
      <point x="-45.0030303030303" y="753.8727272727273"/>
      <point x="-3.4000000000000012" y="854.1515151515151" type="curve"/>
      <point x="-29.233333333333334" y="858.1515151515151" type="line"/>
      <point x="-84.49696969696969" y="741.0545454545454"/>
      <point x="-55.11212121212122" y="617.7575757575758"/>
      <point x="48.94848484848486" y="617.7575757575758" type="curve" smooth="yes"/>
      <point x="111.81515151515151" y="617.7575757575758"/>
      <point x="156.25757575757578" y="660.9969696969697"/>
      <point x="156.25757575757578" y="729.778787878788" type="curve" smooth="yes"/>
      <point x="156.25757575757578" y="818.2606060606062"/>
      <point x="95.04848484848485" y="874.1212121212121"/>
      <point x="3.5393939393939395" y="874.1212121212121" type="curve" smooth="yes"/>
      <point x="-107.51212121212122" y="874.1212121212121"/>
      <point x="-165.18787878787882" y="788.7060606060606"/>
      <point x="-165.18787878787882" y="685.709090909091" type="curve" smooth="yes"/>
      <point x="-165.18787878787882" y="582.7757575757576"/>
      <point x="-108.98787878787878" y="517.6060606060606"/>
    </contour>
  </outline>
</glyph>
<glyph name="uMatra-tamil" format="2">
  <advance width="429.7818181818182"/>
  <unicode hex="0BC1"/>
  <note>
uni0BC1
</note>
  <anchor x="175.8090909090909" y="544.5454545454545" name="top"/>
  <outline>
    <contour>
      <point x="260.5787878787879" y="225.8181818181818" type="curve" smooth="yes"/>
      <point x="337.9939393939394" y="225.8181818181818"/>
      <point x="400.17272727272723" y="275.26969696969695"/>
      <point x="400.17272727272723" y="378.01515151515156" type="curve" smooth="yes"/>
      <point x="400.17272727272723" y="544.5454545454545" type="line"/>
      <point x="-206.5090909090909" y="544.5454545454545" type="line"/>
      <point x="-181.43030303030304" y="514.969696969697" type="line"/>
      <point x="358.06363636363636" y="514.969696969697" type="line"/>
      <point x="358.06363636363636" y="371.67575757575753" type="line" smooth="yes"/>
      <point x="358.06363636363636" y="297.25454545454545"/>
      <point x="315.8454545454546" y="258.20303030303035"/>
      <point x="255.39090909090908" y="258.20303030303035" type="curve" smooth="yes"/>
      <point x="192.5787878787879" y="258.20303030303035"/>
      <point x="160.93030303030304" y="300.96666666666664"/>
      <point x="160.93030303030304" y="378.6969696969697" type="curve" smooth="yes"/>
      <point x="160.93030303030304" y="527.7272727272727" type="line"/>
      <point x="128.39696969696968" y="527.7272727272727" type="line"/>
      <point x="128.39696969696968" y="381.8242424242424" type="line" smooth="yes"/>
      <point x="128.39696969696968" y="281.27878787878785"/>
      <point x="174.9363636363636" y="225.8181818181818"/>
    </contour>
  </outline>
</glyph>
<glyph name="uuMatra-tamil" format="2">
  <advance width="694.5363636363637"/>
  <unicode hex="0BC2"/>
  <note>
uni0BC2
</note>
  <anchor x="362.3333333333333" y="780.0" name="top"/>
  <outline>
    <contour>
      <point x="318.2" y="0.7878787878787878" type="curve" smooth="yes"/>
      <point x="520.2818181818183" y="0.7878787878787878"/>
      <point x="652.0484848484849" y="148.35757575757577"/>
      <point x="652.0484848484849" y="407.8484848484849" type="curve" smooth="yes"/>
      <point x="652.0484848484849" y="635.3454545454546"/>
      <point x="541.2121212121212" y="780.0"/>
      <point x="362.3333333333333" y="780.0" type="curve" smooth="yes"/>
      <point x="195.7090909090909" y="780.0"/>
      <point x="133.5272727272727" y="658.5484848484849"/>
      <point x="133.5272727272727" y="534.239393939394" type="curve" smooth="yes"/>
      <point x="133.5272727272727" y="382.77878787878785" type="line" smooth="yes"/>
      <point x="133.5272727272727" y="281.6606060606061"/>
      <point x="180.25757575757575" y="225.8181818181818"/>
      <point x="266.17272727272723" y="225.8181818181818" type="curve" smooth="yes"/>
      <point x="343.2060606060606" y="225.8181818181818"/>
      <point x="405.00303030303036" y="275.46060606060604"/>
      <point x="405.00303030303036" y="378.01515151515156" type="curve" smooth="yes"/>
      <point x="405.00303030303036" y="544.5454545454545" type="line"/>
      <point x="-208.06969696969696" y="544.5454545454545" type="line"/>
      <point x="-189.14242424242425" y="514.969696969697" type="line"/>
      <point x="362.9575757575758" y="514.969696969697" type="line"/>
      <point x="362.9575757575758" y="371.67575757575753" type="line" smooth="yes"/>
      <point x="362.9575757575758" y="297.25454545454545"/>
      <point x="320.039393939394" y="258.20303030303035"/>
      <point x="260.5212121212121" y="258.20303030303035" type="curve" smooth="yes"/>
      <point x="197.34545454545457" y="258.20303030303035"/>
      <point x="166.06060606060606" y="301.5393939393939"/>
      <point x="166.06060606060606" y="379.6515151515152" type="curve" smooth="yes"/>
      <point x="166.06060606060606" y="534.239393939394" type="line" smooth="yes"/>
      <point x="166.06060606060606" y="646.0636363636364"/>
      <point x="222.33333333333334" y="749.8484848484849"/>
      <point x="356.9727272727273" y="749.8484848484849" type="curve" smooth="yes"/>
      <point x="522.1090909090908" y="749.8484848484849"/>
      <point x="608.7757575757576" y="610.0242424242424"/>
      <point x="608.7757575757576" y="412.8666666666667" type="curve" smooth="yes"/>
      <point x="608.7757575757576" y="175.0090909090909"/>
      <point x="500.8454545454546" y="31.151515151515152"/>
      <point x="317.87878787878793" y="31.151515151515152" type="curve" smooth="yes"/>
      <point x="215.56969696969693" y="31.151515151515152"/>
      <point x="151.24545454545455" y="67.39393939393939"/>
      <point x="86.11818181818182" y="144.28181818181818" type="curve"/>
      <point x="61.109090909090924" y="122.82424242424241" type="line"/>
      <point x="130.04848484848486" y="43.95151515151515"/>
      <point x="201.85151515151514" y="0.7878787878787878"/>
    </contour>
  </outline>
</glyph>
<glyph name="eMatra-tamil" format="2">
  <advance width="677.0454545454546"/>
  <unicode hex="0BC6"/>
  <note>
uni0BC6
</note>
  <outline>
    <contour>
      <point x="251.79696969696974" y="-4.148484848484848" type="curve" smooth="yes"/>
      <point x="334.9939393939394" y="-4.148484848484848"/>
      <point x="391.73333333333335" y="54.590909090909086"/>
      <point x="391.73333333333335" y="151.29393939393938" type="curve" smooth="yes"/>
      <point x="391.73333333333335" y="239.56666666666666"/>
      <point x="339.25454545454545" y="293.8818181818182"/>
      <point x="264.76666666666665" y="293.8818181818182" type="curve" smooth="yes"/>
      <point x="186.57272727272726" y="293.8818181818182"/>
      <point x="128.4757575757576" y="225.11818181818182"/>
      <point x="108.66969696969697" y="133.1969696969697" type="curve"/>
      <point x="126.44848484848484" y="105.95151515151515" type="line"/>
      <point x="145.8939393939394" y="196.86666666666667"/>
      <point x="194.24545454545455" y="259.9090909090909"/>
      <point x="257.5181818181818" y="259.9090909090909" type="curve" smooth="yes"/>
      <point x="315.4090909090909" y="259.9090909090909"/>
      <point x="351.92121212121214" y="215.3121212121212"/>
      <point x="351.92121212121214" y="147.63636363636363" type="curve" smooth="yes"/>
      <point x="351.92121212121214" y="72.70606060606062"/>
      <point x="307.69696969696975" y="26.93939393939394"/>
      <point x="246.9272727272727" y="26.93939393939394" type="curve" smooth="yes"/>
      <point x="147.12121212121212" y="26.93939393939394"/>
      <point x="85.23030303030303" y="150.73636363636365"/>
      <point x="85.23030303030303" y="357.639393939394" type="curve" smooth="yes"/>
      <point x="85.23030303030303" y="603.2636363636364"/>
      <point x="190.27878787878788" y="761.3454545454546"/>
      <point x="359.02727272727276" y="761.3454545454546" type="curve" smooth="yes"/>
      <point x="478.3787878787878" y="761.3454545454546"/>
      <point x="556.509090909091" y="697.369696969697"/>
      <point x="556.509090909091" y="512.0636363636364" type="curve" smooth="yes"/>
      <point x="556.509090909091" y="0.0" type="line"/>
      <point x="589.7515151515152" y="0.0" type="line"/>
      <point x="589.7515151515152" y="525.0666666666667" type="line" smooth="yes"/>
      <point x="589.7515151515152" y="724.660606060606"/>
      <point x="499.71212121212125" y="804.0727272727273"/>
      <point x="360.75151515151515" y="804.0727272727273" type="curve" smooth="yes"/>
      <point x="169.84848484848484" y="804.0727272727273"/>
      <point x="52.0969696969697" y="629.3393939393939"/>
      <point x="52.0969696969697" y="360.42424242424244" type="curve" smooth="yes"/>
      <point x="52.0969696969697" y="136.2090909090909"/>
      <point x="125.95151515151514" y="-4.148484848484848"/>
    </contour>
  </outline>
</glyph>
<glyph name="eeMatra-tamil" format="2">
  <advance width="499.92424242424244"/>
  <unicode hex="0BC7"/>
  <note>
uni0BC7
</note>
  <outline>
    <contour>
      <point x="307.93030303030304" y="-4.212121212121212" type="curve" smooth="yes"/>
      <point x="393.160606060606" y="-4.212121212121212"/>
      <point x="449.6424242424242" y="50.651515151515156"/>
      <point x="449.6424242424242" y="147.11818181818182" type="curve" smooth="yes"/>
      <point x="449.6424242424242" y="236.5606060606061"/>
      <point x="399.4787878787879" y="288.49393939393934"/>
      <point x="330.869696969697" y="288.49393939393934" type="curve" smooth="yes"/>
      <point x="239.15454545454546" y="288.49393939393934"/>
      <point x="194.08787878787876" y="188.50909090909093"/>
      <point x="189.53636363636363" y="69.3" type="curve"/>
      <point x="211.58787878787876" y="41.83636363636364" type="line"/>
      <point x="218.42121212121208" y="164.4787878787879"/>
      <point x="250.48787878787877" y="254.5212121212121"/>
      <point x="321.6" y="254.5212121212121" type="curve" smooth="yes"/>
      <point x="376.8787878787878" y="254.5212121212121"/>
      <point x="409.4454545454545" y="210.71212121212122"/>
      <point x="409.4454545454545" y="142.6727272727273" type="curve" smooth="yes"/>
      <point x="409.4454545454545" y="66.63939393939394"/>
      <point x="364.8484848484848" y="26.93939393939394"/>
      <point x="304.23636363636365" y="26.93939393939394" type="curve" smooth="yes"/>
      <point x="187.04545454545456" y="26.93939393939394"/>
      <point x="91.37575757575758" y="173.2818181818182"/>
      <point x="91.37575757575758" y="391.430303030303" type="curve" smooth="yes"/>
      <point x="91.37575757575758" y="610.2818181818183"/>
      <point x="187.04545454545456" y="762.0393939393939"/>
      <point x="304.0" y="762.0393939393939" type="curve" smooth="yes"/>
      <point x="364.8484848484848" y="762.0393939393939"/>
      <point x="409.4454545454545" y="722.1909090909091"/>
      <point x="409.4454545454545" y="646.1575757575757" type="curve" smooth="yes"/>
      <point x="409.4454545454545" y="578.6696969696969"/>
      <point x="376.8787878787878" y="535.0090909090909"/>
      <point x="321.6" y="535.0090909090909" type="curve" smooth="yes"/>
      <point x="250.72424242424245" y="535.0090909090909"/>
      <point x="219.36666666666667" y="623.5484848484849"/>
      <point x="212.53333333333336" y="747.2212121212121" type="curve"/>
      <point x="190.24545454545455" y="719.5060606060606" type="line"/>
      <point x="195.03333333333336" y="599.0515151515151"/>
      <point x="239.39090909090908" y="500.9515151515152"/>
      <point x="330.869696969697" y="500.9515151515152" type="curve" smooth="yes"/>
      <point x="399.4787878787879" y="500.9515151515152"/>
      <point x="449.6424242424242" y="552.4181818181818"/>
      <point x="449.6424242424242" y="641.860606060606" type="curve" smooth="yes"/>
      <point x="449.6424242424242" y="738.730303030303"/>
      <point x="392.92424242424244" y="793.5939393939394"/>
      <point x="307.93030303030304" y="793.5939393939394" type="curve" smooth="yes"/>
      <point x="164.06363636363636" y="793.5939393939394"/>
      <point x="58.7939393939394" y="623.7818181818183"/>
      <point x="58.7939393939394" y="391.72727272727275" type="curve" smooth="yes"/>
      <point x="58.7939393939394" y="160.46060606060607"/>
      <point x="164.3" y="-4.212121212121212"/>
    </contour>
  </outline>
</glyph>
